<?xml version="1.0" encoding="UTF-8" standalone="no"?><!DOCTYPE svg PUBLIC "-//W3C//DTD SVG 1.1//EN" "http://www.w3.org/Graphics/SVG/1.1/DTD/svg11.dtd"><svg width="100%" height="100%" viewBox="0 0 109 108" version="1.1" xmlns="http://www.w3.org/2000/svg" xmlns:xlink="http://www.w3.org/1999/xlink" xml:space="preserve" xmlns:serif="http://www.serif.com/" style="fill-rule:evenodd;clip-rule:evenodd;stroke-linejoin:round;stroke-miterlimit:2;"><g><g><path d="M53.829,0.684c6.778,0.377 27.675,5.836 33.888,11.484c1.13,1.13 11.296,10.543 14.873,17.32c2.636,4.895 6.024,24.851 6.024,26.357c0,11.484 -10.166,33.888 -24.474,43.866c-3.389,2.447 -25.039,8.284 -30.311,8.095c-17.697,-0.753 -36.712,-13.367 -41.418,-18.262c-3.012,-3.012 -9.413,-20.144 -9.978,-23.345c-0.377,-3.012 -2.259,-14.12 -2.071,-17.885c0.377,-4.895 6.024,-21.839 8.66,-25.604c6.024,-9.225 31.817,-22.968 44.807,-22.027Z" style="fill:#262a3f;fill-rule:nonzero;"/><path d="M10.904,48.691c0.188,-3.577 4.518,-16.379 6.401,-19.203c0.124,-0.125 0.25,-0.314 0.377,-0.565c-3.2,-1.318 -7.719,-4.707 -8.284,-6.589c-0.126,0.126 -0.252,0.251 -0.377,0.377c-2.636,3.765 -8.284,20.709 -8.66,25.604c2.071,-1.13 8.284,-0.753 10.543,0.377Z" style="fill:#5c647b;fill-rule:nonzero;"/><path d="M17.682,28.923c5.46,-6.778 28.616,-17.509 34.829,-17.509c0.941,-2.447 1.13,-8.848 0.188,-10.731c-12.802,-0.188 -37.088,12.425 -43.301,21.65c0.565,1.883 5.083,5.271 8.284,6.589Z" style="fill:#a3afbd;fill-rule:nonzero;"/><path d="M53.264,11.603c3.2,0.565 19.768,4.707 25.98,8.66c1.318,-3.765 3.389,-6.966 6.213,-9.79c-7.907,-4.895 -25.416,-9.413 -31.628,-9.79l-1.13,0c0.941,1.883 0.753,8.284 -0.188,10.731c0.25,0 0.503,0.063 0.753,0.188Z" style="fill:#a3afbd;fill-rule:nonzero;"/><path d="M85.457,10.474c-2.824,2.824 -4.895,6.024 -6.213,9.79c0.503,0.251 0.941,0.565 1.318,0.941c0.753,0.753 7.907,7.531 10.919,12.614c3.954,-0.753 7.342,-2.447 10.543,-5.271c-3.954,-6.589 -13.179,-15.249 -14.308,-16.379c-0.627,-0.502 -1.38,-1.067 -2.259,-1.694Z" style="fill:#5c647b;fill-rule:nonzero;"/><path d="M102.024,28.547c-3.2,2.824 -6.589,4.518 -10.543,5.271c0,0.126 0.064,0.251 0.188,0.377c1.883,3.765 6.401,20.897 6.401,22.027l0,1.13c3.577,-1.13 7.154,-1.506 10.543,-1.506c0,-1.506 -3.389,-21.462 -6.024,-26.357c-0.25,-0.251 -0.439,-0.565 -0.565,-0.941Z" style="fill:#5c647b;fill-rule:nonzero;"/><path d="M108.614,55.846c-3.389,0 -6.966,0.377 -10.543,1.506c-0.753,9.037 -10.355,26.545 -20.521,33.888c2.071,4.142 4.33,6.589 6.589,8.472c14.308,-9.978 24.474,-32.381 24.474,-43.866Z" style="fill:#262a3f;fill-rule:nonzero;"/><path d="M84.139,99.711c-2.259,-1.883 -4.518,-4.33 -6.589,-8.472c-2.636,1.883 -19.015,6.401 -22.968,6.024c1.005,3.514 0.753,7.028 -0.753,10.543l0.565,0c6.024,-0.188 26.545,-5.648 29.746,-8.095Z" style="fill:#262a3f;fill-rule:nonzero;"/><path d="M53.829,107.806c1.506,-3.514 1.758,-7.028 0.753,-10.543c-10.731,-0.941 -32.57,-13.743 -33.888,-15.626c-3.263,2.51 -6.024,5.146 -8.284,7.907c4.707,4.895 23.721,17.509 41.418,18.262Z" style="fill:#262a3f;fill-rule:nonzero;"/><path d="M12.411,89.545c2.259,-2.761 5.021,-5.397 8.284,-7.907c-0.941,-1.318 -7.907,-16.944 -8.284,-19.391c-3.012,2.447 -6.401,3.577 -9.978,3.954c0.565,3.2 6.966,20.333 9.978,23.345Z" style="fill:#5c647b;fill-rule:nonzero;"/><path d="M2.433,66.2c3.577,-0.377 6.966,-1.506 9.978,-3.954c-0.377,-2.259 -1.694,-10.731 -1.506,-13.555c-2.259,-1.13 -8.472,-1.506 -10.543,-0.377c-0.188,3.765 1.694,14.873 2.071,17.885Z" style="fill:#37425b;fill-rule:nonzero;"/><path d="M18.435,29.677c-0.377,0.377 -1.13,0.565 -1.506,1.129c-2.447,5.648 -3.954,10.543 -5.648,16.379c0,4.33 0.188,7.342 0.941,11.484c0.377,2.824 1.318,3.201 3.954,2.071c11.296,-4.518 22.592,-7.531 33.888,-9.978c5.648,-4.142 13.555,-11.673 18.262,-16.756c3.2,-3.577 5.648,-7.342 9.225,-12.049c0.25,-0.251 0.377,-0.565 0.377,-0.941c0,-0.377 0,-0.941 -0.188,-1.13c-8.284,-3.389 -16.756,-6.401 -25.604,-7.907c-11.108,2.636 -21.274,7.154 -30.499,13.932c-0.879,0.502 -1.694,1.067 -2.447,1.694c-0.565,0.565 -0.565,1.318 -0.753,2.071Z" style="fill:#424e6e;fill-rule:nonzero;"/><path d="M78.68,21.582c-3.012,3.577 -5.648,7.342 -8.095,11.484c-0.377,0.377 -0.753,0.941 0.377,1.13c1.694,0.377 3.389,0.941 5.271,0.941c3.577,0 7.154,-0.565 10.731,-1.13c0.941,0 1.883,0 2.636,-0.377c0.941,-0.377 0.565,-0.753 0.377,-1.318c-0.377,-0.753 -0.753,-1.506 -1.318,-2.259c-1.883,-2.071 -3.765,-4.142 -5.836,-6.024c-0.941,-0.941 -1.883,-2.071 -3.2,-2.824c-0.188,-0.188 -0.753,0 -0.941,0.377Z" style="fill:#37425b;fill-rule:nonzero;"/><path d="M95.435,58.293c-3.765,1.506 -7.531,3.389 -11.108,5.271c-1.506,2.259 -3.136,4.456 -4.895,6.589c-0.25,2.887 -0.565,5.774 -0.941,8.66c-0.377,2.887 -0.753,5.711 -1.13,8.472c-0.188,1.506 -0.188,3.012 0.188,3.012c0.188,0 1.506,-0.565 2.824,-1.883c2.259,-1.883 4.895,-4.707 5.271,-5.271c2.824,-3.2 5.083,-6.966 7.154,-10.731c1.506,-3.577 3.765,-7.719 4.518,-11.861c0.377,-1.883 0.753,-3.2 -1.883,-2.259Z" style="fill:#262a3f;fill-rule:nonzero;"/><path d="M83.951,63.188c4.142,-1.506 9.978,-5.271 11.296,-5.648c2.071,-0.753 2.447,-0.941 2.071,-2.259c-0.565,-2.636 -1.13,-5.271 -1.883,-7.719c-1.318,-4.142 -2.824,-8.284 -4.33,-12.425c0,-0.251 -0.062,-0.502 -0.188,-0.753c-1.318,-0.188 -2.824,-0.188 -3.954,0c-3.389,0.377 -6.778,0.753 -10.166,1.13c-0.941,0 -1.694,0.188 -2.447,0.188c-1.318,-0.188 -2.447,-0.377 -3.765,-0.377c-1.506,0 -2.071,0.377 -3.2,1.318c-5.648,4.769 -11.045,9.601 -16.191,14.496c-13.367,2.636 -25.98,6.024 -37.276,11.672c0.377,6.213 3.954,13.743 7.531,18.826c2.636,2.447 5.836,4.33 9.225,6.213c7.531,4.142 17.697,8.848 23.91,9.413c1.506,0.188 4.707,-0.377 8.284,-1.318c4.707,-1.506 9.037,-2.447 12.99,-4.33c0.753,-1.318 0.188,-3.2 0.565,-4.33c0.879,-5.774 1.694,-11.547 2.447,-17.32c2.009,-2.259 3.703,-4.518 5.083,-6.778Z" style="fill:#37425b;fill-rule:nonzero;"/><path d="M44.039,23.841c-0.565,-0.377 -1.13,-1.694 -0.565,-2.259c1.883,-2.071 4.707,-3.577 7.154,-4.895c0.753,-0.377 1.883,-0.565 2.824,-0.188c2.259,1.318 4.895,2.447 6.401,4.707c2.071,3.389 -6.966,4.142 -8.472,4.142c-2.447,0 -5.083,-0.188 -7.342,-1.506Z" style="fill:#262a3f;fill-rule:nonzero;"/><path d="M44.039,23.464c-0.753,-0.377 -0.941,-1.694 -0.377,-2.259c1.883,-2.071 4.518,-3.577 6.966,-4.895c0.753,-0.377 1.883,-0.377 2.824,0c2.259,1.13 4.895,2.447 6.213,4.518c2.259,3.2 -6.778,3.954 -8.284,3.954c-2.447,0 -5.083,0 -7.342,-1.318Z" style="fill:#37425b;fill-rule:nonzero;"/><path d="M67.572,22.146c-0.377,0 -1.883,0.377 -2.636,0.941c-0.377,0.377 -0.565,0.941 -0.377,1.318c0.565,1.318 2.259,2.636 3.765,3.389c0.565,0.377 1.318,0.377 1.694,0c0.753,-0.565 1.318,-1.695 1.506,-2.636c0.188,-0.565 -0.188,-1.694 -0.941,-2.071c-0.377,-0.565 -1.883,-0.753 -3.012,-0.941Z" style="fill:#262a3f;fill-rule:nonzero;"/><path d="M67.572,22.146c-0.377,-0.188 -1.883,0.377 -2.636,0.753c-0.377,0.377 -0.565,0.941 -0.377,1.318c0.565,1.318 2.259,2.447 3.765,3.2c0.565,0.188 1.318,0.377 1.694,0c0.753,-0.565 1.318,-1.506 1.506,-2.447c0.188,-0.565 -0.377,-1.694 -0.941,-2.071c-0.565,-0.565 -1.883,-0.753 -3.012,-0.753Z" style="fill:#37425b;fill-rule:nonzero;"/><path d="M48.934,83.709c-1.13,0 -5.46,-1.13 -6.401,-1.318c-0.941,-0.188 -0.377,3.954 0.565,4.518c2.447,1.506 3.577,3.012 4.518,3.389c0.565,0.188 2.071,0.565 3.765,0.941c1.694,0.377 3.2,0.941 3.954,0.941c2.259,-0.188 6.213,-2.824 6.778,-4.33c0.565,-2.071 -0.565,-4.518 -2.447,-4.518c-1.13,0 -6.401,0.941 -10.731,0.377Z" style="fill:#262a3f;fill-rule:nonzero;"/><path d="M48.934,83.332c-1.318,-0.188 -5.648,-1.318 -6.589,-1.506c-0.941,-0.188 -0.377,3.954 0.565,4.518c2.447,1.506 3.577,3.012 4.707,3.577c0.941,0.377 6.213,1.694 7.531,1.506c2.447,-0.188 6.589,-2.259 6.966,-3.765c0.753,-2.071 -0.565,-4.518 -2.447,-4.707c-1.13,0 -6.401,0.941 -10.731,0.377Z" style="fill:#424e6e;fill-rule:nonzero;"/><path d="M53.076,1.814c11.108,1.318 25.039,5.648 30.122,11.108c7.531,2.259 14.496,9.978 16.944,17.132c4.895,6.589 6.966,18.45 7.154,25.792c1.318,2.447 0.188,7.531 -1.318,13.179c1.694,-4.895 2.636,-9.601 2.636,-13.179c0,-1.506 -3.389,-21.462 -6.024,-26.357c-3.577,-6.778 -13.743,-16.191 -14.873,-17.32c-6.213,-5.648 -27.11,-11.108 -33.888,-11.484c-12.99,-0.941 -38.782,12.802 -44.807,22.027c-2.636,3.765 -8.284,20.709 -8.66,25.604c0,2.071 0.377,6.589 0.941,10.543c-0.188,-3.389 -0.188,-8.848 0.377,-10.919c2.071,-7.719 4.518,-17.132 8.472,-24.286c12.425,-11.484 28.993,-20.709 42.924,-21.839Z" style="fill:#ebfaff;fill-opacity:0.7;fill-rule:nonzero;"/><path d="M16.552,27.417c0.377,0 18.262,-11.108 22.027,-13.179c3.577,-0.941 7.531,-1.883 11.296,-2.824c1.13,-0.377 1.883,-0.565 2.447,-1.13c0.941,-0.753 0.941,-6.024 0.753,-8.472c0.377,3.577 0.753,4.33 0.565,7.154c-0.188,3.389 9.978,4.33 12.614,5.083c3.954,1.318 7.154,3.2 10.919,4.707c1.318,0.565 1.883,0.941 2.447,-0.565c0.188,-0.377 0.377,-1.318 0.565,-1.318c0.753,-0.941 1.694,-2.071 2.447,-3.2c-0.565,1.13 -1.506,2.259 -2.071,3.577c-0.188,0.565 -0.377,1.318 -0.377,1.883c-0.188,1.13 0,1.506 0.941,2.259c1.883,1.506 3.765,3.012 5.46,4.895c1.694,1.883 3.2,4.142 4.895,6.213c0.188,0.188 0.377,0.377 0.753,0.377c0.941,-0.188 1.694,-0.188 2.824,-0.565c1.506,-0.377 2.824,-1.13 4.33,-1.694c-1.694,0.941 -3.389,2.071 -5.271,3.012c-0.188,0 -1.506,-0.188 -1.506,0.565c0.188,2.636 1.694,5.083 2.447,7.719c0.565,2.071 0.753,4.33 1.318,6.401c0.753,2.447 1.694,4.895 2.447,7.342l0,0.753c2.824,-0.377 5.083,-0.377 8.095,-0.565c-3.012,0.377 -5.648,0.753 -8.095,1.506c-0.188,1.318 0,2.824 -0.188,4.142c-0.377,1.694 -4.33,7.531 -5.836,10.919c1.506,-3.577 3.765,-7.719 4.518,-11.861c0.377,-1.883 0.753,-3.2 -1.883,-2.259c-3.765,1.506 -7.531,3.389 -11.108,5.271c-1.506,2.259 -3.138,4.456 -4.895,6.589c-0.25,2.887 -0.565,5.774 -0.941,8.66c-0.377,2.887 -0.753,5.711 -1.13,8.472c-0.188,1.506 -0.188,3.012 0.188,3.012c0.188,0 1.506,-0.565 2.824,-1.883c2.259,-1.883 4.895,-4.707 5.271,-5.271c-1.256,1.632 -2.574,3.326 -3.954,5.083c-1.318,1.13 -2.259,1.883 -3.2,3.389c-0.188,0.941 0.565,2.447 0.941,3.012c1.003,1.13 2.009,2.322 3.012,3.577c-0.565,-0.565 -2.636,-2.636 -3.012,-2.824c-0.565,-0.941 -0.753,-1.318 -1.506,-1.883c-0.565,-0.377 -1.13,-0.753 -1.883,-0.565c-4.392,1.13 -8.786,2.134 -13.179,3.012c4.707,-1.506 9.037,-2.447 12.99,-4.33c0.753,-1.318 0.188,-3.2 0.565,-4.33c0.879,-5.774 1.694,-11.547 2.447,-17.32c2.009,-2.259 3.703,-4.518 5.083,-6.778c4.142,-1.506 9.978,-5.271 11.296,-5.648c2.071,-0.753 2.447,-0.941 2.071,-2.259c-0.565,-2.636 -1.13,-5.271 -1.883,-7.719c-1.318,-4.142 -2.824,-8.284 -4.33,-12.425c0,-0.251 -0.062,-0.502 -0.188,-0.753c-1.318,-0.188 -2.824,-0.188 -3.954,0c-3.389,0.377 -6.778,0.753 -10.166,1.13c-0.941,0 -1.694,0.188 -2.447,0.188c-1.318,-0.188 -2.447,-0.377 -3.765,-0.377c-1.506,0 -2.071,0.377 -3.2,1.318c-5.648,4.769 -11.045,9.601 -16.191,14.496c-13.367,2.636 -25.98,6.024 -37.276,11.672c0.377,6.213 3.954,13.743 7.531,18.826c2.636,2.447 5.836,4.33 9.225,6.213c-2.886,-1.381 -5.71,-2.824 -8.472,-4.33c-1.506,-0.753 -1.506,-0.941 -3.012,0c-1.13,0.565 -2.071,1.506 -3.2,2.259c0.879,-1.004 1.821,-2.008 2.824,-3.012c1.318,-1.13 0.941,-1.694 0.188,-3.2c-2.259,-4.707 -4.518,-9.225 -6.213,-14.12c-0.565,-1.506 -0.377,-2.071 -1.883,-1.318c-1.883,0.941 -2.447,1.13 -4.895,1.506c2.259,-0.753 4.707,-1.694 5.083,-3.389c0.188,-4.33 -0.188,-8.284 -0.941,-12.614c-0.188,-1.883 -3.2,-1.506 -6.589,-1.883c1.506,0 2.636,-0.377 4.142,-0.377c1.883,0 1.883,0 2.636,-1.694c1.694,-5.083 3.765,-10.166 5.083,-15.438c0.126,-0.377 0.188,-0.753 0.188,-1.13c-2.636,-1.883 -2.824,-2.636 -4.895,-5.083c1.694,1.694 4.33,3.389 5.836,3.389Zm54.408,6.778c1.694,0.377 3.389,0.941 5.271,0.941c3.577,0 7.154,-0.565 10.731,-1.13c0.941,0 1.883,0 2.636,-0.377c0.941,-0.377 0.565,-0.753 0.377,-1.318c-0.377,-0.753 -0.753,-1.506 -1.318,-2.259c-1.883,-2.071 -3.765,-4.142 -5.836,-6.024c-0.941,-0.941 -1.883,-2.071 -3.2,-2.824c-0.188,-0.188 -0.753,0 -0.941,0.377c-3.012,3.577 -5.648,7.342 -8.095,11.484c-0.377,0.377 -0.753,0.941 0.377,1.13Zm-54.785,26.545c11.296,-4.518 22.592,-7.531 33.888,-9.978c5.648,-4.142 13.555,-11.672 18.262,-16.756c3.2,-3.577 5.648,-7.342 9.225,-12.049c0.25,-0.251 0.377,-0.565 0.377,-0.941c0,-0.377 0,-0.941 -0.188,-1.13c-8.284,-3.389 -16.756,-6.401 -25.604,-7.907c-11.108,2.636 -21.274,7.154 -30.499,13.932c-0.879,0.502 -1.694,1.067 -2.447,1.694c-0.565,0.565 -0.565,1.318 -0.753,2.071c-0.377,0.377 -1.13,0.565 -1.506,1.13c-2.447,5.648 -3.954,10.543 -5.648,16.379c0,4.33 0.188,7.342 0.941,11.484c0.377,2.824 1.318,3.2 3.954,2.071Z" style="fill:#698195;"/></g></g></svg>