<?xml version="1.0" encoding="UTF-8" standalone="no"?><!DOCTYPE svg PUBLIC "-//W3C//DTD SVG 1.1//EN" "http://www.w3.org/Graphics/SVG/1.1/DTD/svg11.dtd"><svg width="100%" height="100%" viewBox="0 0 68 58" version="1.1" xmlns="http://www.w3.org/2000/svg" xmlns:xlink="http://www.w3.org/1999/xlink" xml:space="preserve" xmlns:serif="http://www.serif.com/" style="fill-rule:evenodd;clip-rule:evenodd;stroke-linejoin:round;stroke-miterlimit:2;"><path d="M55.856,33.52c3.776,-0.034 7.544,-0.324 11.28,-0.864c-1.426,-1.772 -2.74,-3.632 -3.936,-5.568c-1.392,-1.8 -2.808,-3.576 -4.32,-5.328c-6.898,-7.7 -14.736,-14.504 -23.328,-20.256c-0.802,-0.7 -1.816,-1.114 -2.88,-1.176c-1.076,0.206 -2.05,0.774 -2.76,1.608c-6.604,5.922 -12.87,12.212 -18.768,18.84c-3.752,4.41 -7.2,9.068 -10.32,13.944c3.24,0 7.008,-0.432 10.248,-0.48l0,23.016c0,0.312 -0.48,0.192 -0.168,0.168c3.524,0.08 7.05,-0.032 10.56,-0.336l1.608,0l0,-3.36c0,-1.104 0,-2.232 0.12,-3.36c0.144,-2.232 0,-7.776 0.456,-9.96c5.328,-0.264 10.632,-0.432 15.96,-0.672l2.088,0c0.632,-0.126 1.276,-0.182 1.92,-0.168c0.12,1.08 0.312,5.592 0.264,6.672l-0.144,3.552c0,2.4 -0.168,4.608 -0.24,6.912c0.296,-0.034 0.594,-0.034 0.888,0c2.04,0 4.08,0.288 6.12,0.336c1.056,0 4.32,0.552 5.232,0c0.204,-0.202 0.362,-0.446 0.462,-0.716c0.1,-0.268 0.138,-0.556 0.114,-0.844c0.072,-6.72 -1.008,-15.12 -0.456,-21.96Z" style="fill:#1d3965;fill-rule:nonzero;"/></svg>