<?xml version="1.0" encoding="UTF-8" standalone="no"?><!DOCTYPE svg PUBLIC "-//W3C//DTD SVG 1.1//EN" "http://www.w3.org/Graphics/SVG/1.1/DTD/svg11.dtd"><svg width="100%" height="100%" viewBox="0 0 59 50" version="1.1" xmlns="http://www.w3.org/2000/svg" xmlns:xlink="http://www.w3.org/1999/xlink" xml:space="preserve" xmlns:serif="http://www.serif.com/" style="fill-rule:evenodd;clip-rule:evenodd;stroke-linejoin:round;stroke-miterlimit:2;"><path d="M58.978,31.13c-0.886,5.126 -3.412,9.826 -7.2,13.392c-1.802,2.024 -4.182,3.448 -6.816,4.08c-3.082,0.556 -6.23,0.644 -9.336,0.264c-4.316,-0.39 -8.584,-1.194 -12.744,-2.4l-1.128,-0.336c-0.396,-0.066 -0.776,-0.196 -1.128,-0.384c0.12,-0.216 0,-0.504 0,-0.744c0,-0.24 2.4,-11.136 2.592,-11.112c6.828,1.248 13.842,1.052 20.592,-0.576c0.828,-5.392 0.828,-10.88 0,-16.272c-4.022,-2.504 -8.634,-3.904 -13.368,-4.056c-0.96,0 -1.872,0.84 -2.64,1.344c-0.36,0.216 -5.88,3.576 -5.544,3.96c2.208,2.4 5.232,4.056 7.656,6.336c0.12,0 0.576,0.72 0.744,0.72c-9.034,5.024 -19.046,8.036 -29.352,8.832c-1.114,-10.316 -0.126,-20.75 2.904,-30.672c2.928,2.064 5.76,4.176 8.544,6.36c3.998,-4.06 8.784,-7.262 14.064,-9.408c7.918,-0.72 15.886,0.706 23.064,4.128c1.27,0.744 2.264,1.882 2.832,3.24c0.48,1.632 1.176,3.216 1.728,4.8c1.128,3.192 2.184,6.432 3.144,9.6c1.062,2.842 1.534,5.872 1.392,8.904Z" style="fill:#1d3965;fill-rule:nonzero;"/></svg>