<?xml version="1.0" encoding="UTF-8" standalone="no"?><!DOCTYPE svg PUBLIC "-//W3C//DTD SVG 1.1//EN" "http://www.w3.org/Graphics/SVG/1.1/DTD/svg11.dtd"><svg width="100%" height="100%" viewBox="0 0 636 511" version="1.1" xmlns="http://www.w3.org/2000/svg" xmlns:xlink="http://www.w3.org/1999/xlink" xml:space="preserve" xmlns:serif="http://www.serif.com/" style="fill-rule:evenodd;clip-rule:evenodd;stroke-linejoin:round;stroke-miterlimit:2;"><g><path d="M306.69,498.919c21.821,-4.088 50.388,-8.516 65.464,-10.219c50.784,2.725 102.362,7.835 153.146,7.835c13.49,-1.022 31.343,-5.11 36.501,-6.132c15.077,0.341 40.072,1.022 49.991,0.341c1.19,-0.341 3.571,-1.703 5.555,-2.725c-0.397,-39.515 -3.968,-42.994 -0.794,-89.017c-3.174,-18.251 -6.745,-56.339 -7.142,-74.986c6.348,-50.784 10.712,-86.095 10.316,-139.657c-3.571,-38.882 -9.522,-62.878 -13.093,-95.58c3.968,-24.867 5.555,-46.669 4.761,-70.855c-1.19,-0.681 -2.777,-1.363 -4.364,-2.044c-50.388,5.791 -102.362,0.681 -153.146,-2.385c-44.833,4.769 -112.678,3.747 -158.304,1.703c-15.077,-2.044 -20.234,-2.385 -35.311,-2.725c-33.724,2.725 -76.176,5.791 -109.9,8.857c-29.756,-2.044 -51.578,-4.769 -81.334,-4.769c-3.174,2.044 -6.348,4.428 -9.125,7.154c-9.919,16.351 -18.647,33.724 -25.392,53.822c-3.968,37.131 -5.951,71.51 -3.571,114.756c-5.555,23.408 -7.935,42.452 -9.125,69.035c5.158,35.708 6.348,63.084 8.332,103.552c14.68,48.8 19.441,79.535 25.789,124.501c3.174,2.497 6.745,4.657 10.712,6.472c30.947,-0.681 67.051,-3.747 94.427,-6.472c48.404,4.088 97.601,6.813 145.608,9.538Z" style="fill:#424e6e;fill-rule:nonzero;"/><path d="M66.655,495.853c-3.968,-1.816 -7.538,-3.972 -10.712,-6.472l-15.473,6.132c6.745,6.132 14.68,10.56 22.615,14.307l3.571,-13.967Z" style="fill:#a3afbd;fill-opacity:0.5;fill-rule:nonzero;"/><path d="M55.943,489.38c-6.348,-44.966 -11.109,-75.7 -25.789,-124.501l-21.425,14.68c11.903,51.181 22.615,70.987 31.74,115.952l15.473,-6.132Z" style="fill:#a3afbd;fill-rule:nonzero;"/><path d="M30.154,364.88c-1.984,-40.469 -3.174,-67.845 -8.332,-103.552l-21.028,-6.745c3.44,41.524 6.082,83.183 7.935,124.977l21.425,-14.68Z" style="fill:#a3afbd;fill-rule:nonzero;"/><path d="M21.822,261.328c1.19,-26.582 3.571,-45.626 9.125,-69.035l-17.06,-9.919c-3.571,24.599 -7.935,48.8 -13.093,72.209l21.028,6.745Z" style="fill:#5c647b;fill-rule:nonzero;"/><path d="M13.887,182.374l17.06,9.919c-2.381,-43.246 -0.397,-77.626 3.571,-114.756l-14.68,1.022c-3.968,37.812 -5.951,58.983 -5.951,103.816Z" style="fill:#5c647b;fill-rule:nonzero;"/><path d="M34.518,77.536c6.745,-20.098 15.473,-37.471 25.392,-53.822l-16.267,-8.176c-7.407,21.12 -15.342,42.125 -23.805,63.02l14.68,-1.022Z" style="fill:#a3afbd;fill-rule:nonzero;"/><path d="M43.644,15.538l16.267,8.176c2.777,-2.725 5.951,-5.11 9.125,-7.154l-5.951,-15.67c-6.348,3.747 -13.886,9.198 -19.441,14.648Z" style="fill:#5c647b;fill-rule:nonzero;"/><path d="M63.084,0.89l5.951,15.67c29.756,0 51.578,2.725 81.334,4.769l8.332,-16.351c-31.74,-2.385 -64.274,-4.428 -95.617,-4.088Z" style="fill:#3a405e;fill-rule:nonzero;"/><path d="M158.702,4.978l-8.332,16.351c33.724,-3.066 76.176,-6.132 109.9,-8.857l-1.19,-11.923c-34.914,2.725 -65.067,4.428 -100.378,4.428Z" style="fill:#3a405e;fill-rule:nonzero;"/><path d="M259.08,0.55l1.19,11.923c15.077,0.341 20.234,0.681 35.311,2.725l10.712,-11.241c-14.68,-2.044 -29.36,-3.406 -47.213,-3.406Z" style="fill:#3a405e;fill-rule:nonzero;"/><path d="M306.293,3.956l-10.712,11.241c45.626,2.044 113.471,3.066 158.304,-1.703l-15.87,-13.285c-44.039,3.066 -87.682,4.428 -131.722,3.747Z" style="fill:#3a405e;fill-rule:nonzero;"/><path d="M438.015,0.209l15.87,13.285c50.784,3.066 102.759,8.176 153.146,2.385l5.158,-14.989c-14.811,2.044 -29.625,2.953 -44.436,2.725c-45.23,0 -84.905,-0.681 -129.738,-3.406Z" style="fill:#3a405e;fill-rule:nonzero;"/><path d="M612.189,0.89l-5.158,14.989c1.587,0.681 3.174,1.363 4.364,2.044l21.028,-5.11c-1.19,-3.747 -16.267,-11.582 -20.234,-11.923Z" style="fill:#3a405e;fill-rule:nonzero;"/><path d="M632.424,12.813l-21.028,5.11c0.794,24.186 -0.794,45.988 -4.761,70.855l22.615,-6.472c2.777,-23.505 4.364,-53.141 3.174,-69.492Z" style="fill:#3a405e;fill-rule:nonzero;"/><path d="M629.25,82.305l-22.615,6.472c3.571,32.702 9.522,56.698 13.093,95.58l15.473,-14.283c-3.571,-38.485 -6.348,-53.704 -5.951,-86.066l0,-1.703Z" style="fill:#3a405e;fill-rule:nonzero;"/><path d="M635.201,170.075l-15.473,14.283c0.397,53.562 -3.968,88.872 -10.316,139.657l20.631,8.729c3.571,-53.165 5.951,-107.52 5.158,-162.668Z" style="fill:#3a405e;fill-rule:nonzero;"/><path d="M630.043,332.743l-20.631,-8.729c0.397,18.647 3.968,56.736 7.142,74.986l19.441,-13.093c-2.777,-17.854 -5.951,-35.311 -5.951,-53.165Z" style="fill:#3a405e;fill-rule:nonzero;"/><path d="M635.994,385.908l-19.441,13.093c-3.174,46.023 0.397,49.502 0.794,89.017l15.077,4.769c-0.794,-42.922 0.794,-59.666 3.571,-106.879Z" style="fill:#3a405e;fill-rule:nonzero;"/><path d="M632.424,492.787l-15.077,-4.769c-1.984,1.022 -4.364,2.385 -5.555,2.725l0.397,14.307c4.761,-0.341 18.251,-7.835 20.234,-12.263Z" style="fill:#3a405e;fill-rule:nonzero;"/><path d="M612.189,505.05l-0.397,-14.307c-9.919,0.681 -34.914,0 -49.991,-0.341l-0.794,16.351c17.06,1.022 38.485,0 51.181,-1.703Z" style="fill:#3a405e;fill-rule:nonzero;"/><path d="M561.008,506.753l0.794,-16.351c-5.158,1.022 -23.012,5.11 -36.501,6.132l0.794,13.285c11.506,-1.703 23.012,-3.066 34.914,-3.066Z" style="fill:#3a405e;fill-rule:nonzero;"/><path d="M526.094,509.819l-0.794,-13.285c-50.784,0 -102.362,-5.11 -153.146,-7.835l0,17.032c53.562,3.066 101.569,4.088 153.94,4.088Z" style="fill:#3a405e;fill-rule:nonzero;"/><path d="M372.154,505.732l0,-17.032c-15.077,1.703 -43.643,6.132 -65.464,10.219l6.745,11.241c19.838,-2.725 39.278,-3.747 58.719,-4.428Z" style="fill:#3a405e;fill-rule:nonzero;"/><path d="M313.435,510.16l-6.745,-11.241c-48.007,-2.725 -97.204,-5.45 -145.608,-9.538l0,17.373c52.768,3.066 99.982,3.747 152.353,3.406Z" style="fill:#3a405e;fill-rule:nonzero;"/><path d="M161.082,506.753l0,-17.373c-27.376,2.725 -63.48,5.791 -94.427,6.472l-3.571,13.967c32.93,0.341 65.464,-0.341 97.998,-3.066Z" style="fill:#3a405e;fill-rule:nonzero;"/><path d="M30.154,364.88c14.68,48.8 19.441,79.535 25.789,124.501c3.174,2.497 6.745,4.653 10.712,6.472c28.963,-0.681 63.084,-3.406 89.269,-5.791c1.059,-0.228 1.984,-0.681 2.777,-1.363c0.528,-0.681 0.663,-1.478 0.397,-2.385c-0.266,-1.138 -0.663,-2.272 -1.19,-3.406c-7.538,-21.12 -16.267,-41.9 -26.979,-62.339c-3.174,-21.577 -9.391,-22.362 -18.647,-46.167c-12.43,-17.989 -22.087,-36.501 -28.963,-55.545c-14.283,-13.49 -27.376,-28.566 -39.675,-45.23c-4.761,-3.174 -9.919,-7.538 -14.283,-7.538c-1.853,0 -3.305,0.659 -4.364,1.984c-1.321,1.321 -1.853,2.908 -1.587,4.761c3.571,30.55 5.158,55.942 6.745,92.046Z" style="fill:#424e6e;fill-rule:nonzero;"/><path d="M92.047,325.998c5.158,15.87 12.299,29.756 20.631,43.246c1.587,0.794 2.777,1.19 3.571,0.794c1.587,-0.397 20.631,-28.963 23.012,-32.534c7.538,-4.761 13.49,-11.109 19.441,-19.838c2.777,-3.968 1.19,-3.571 -2.777,-3.174c-3.968,0 -21.425,1.984 -36.898,2.777c-8.729,0.397 -17.06,0.794 -22.218,0.794c-4.364,0 -7.142,0.794 -4.761,7.935Z" style="fill:#424e6e;fill-rule:nonzero;"/><path d="M45.627,266.089c1.587,-7.935 -3.968,-48.404 -9.919,-65.067c-1.984,-5.555 -5.158,-8.332 -6.348,-0.794c-2.381,16.267 -5.158,31.343 -6.745,48.404l0,1.587c-0.397,2.777 0.397,4.364 1.587,6.348c3.174,4.761 9.522,6.745 15.87,9.919c1.984,1.19 4.761,3.174 5.555,-0.397Z" style="fill:#424e6e;fill-rule:nonzero;"/><path d="M32.931,190.706c8.729,17.854 11.903,38.088 14.283,57.529c0.794,7.142 0.794,13.886 1.984,21.028c1.19,5.555 2.777,9.522 6.348,13.886c8.332,11.506 17.854,21.425 27.773,30.153c4.364,3.571 6.348,3.174 11.506,3.174c19.044,0 40.469,-2.381 59.116,-3.968c5.158,-0.397 7.538,-0.794 12.696,-2.381c10.316,1.984 20.234,2.381 30.947,3.174c9.125,0.794 18.251,0.794 24.995,0c4.761,-0.397 8.332,-1.19 9.125,-1.984c2.381,-1.984 4.364,-3.174 5.951,-8.332c9.919,-36.104 15.077,-97.998 16.267,-148.782c0,-7.142 -1.19,-9.919 -3.968,-16.664c-9.919,-24.599 -35.311,-42.972 -46.42,-56.939c-30.947,-23.505 -47.213,-47.01 -54.752,-56.207c-1.19,-1.703 -3.968,-2.725 -7.935,-3.747c-9.919,-0.681 -19.441,-1.703 -28.566,-2.385l-1.19,0c-5.555,-0.341 -6.348,-0.341 -9.522,4.769c-3.571,6.132 -7.935,12.263 -12.299,18.054c-15.473,12.263 -31.343,23.505 -48.007,34.065c-5.951,3.747 -7.142,4.428 -7.538,11.582c-3.174,33.724 -4.761,60.329 -3.174,99.211c0.794,1.587 1.587,3.174 2.381,4.761Z" style="fill:#424e6e;fill-rule:nonzero;"/><path d="M41.66,72.427c15.87,-9.879 31.74,-20.098 46.42,-32.021c2.381,-2.725 12.696,-18.395 11.506,-21.12c-0.397,-1.022 -1.19,-1.703 -4.364,-2.044c-8.332,-0.341 -16.664,-0.681 -26.186,-0.681c-3.174,2.044 -6.348,4.428 -9.125,7.154c-8.729,14.307 -16.267,29.636 -22.615,46.328c-2.381,5.791 -1.19,5.791 4.364,2.385Z" style="fill:#424e6e;fill-rule:nonzero;"/><path d="M172.191,313.699c-4.364,-0.397 -8.332,1.19 -11.109,4.761c-6.745,7.935 -13.49,15.077 -19.838,21.028c-6.348,7.538 -17.06,22.218 -21.821,34.121c-1.587,3.968 -1.587,7.538 -0.397,11.506c6.082,20.103 10.843,16.491 14.283,34.433c11.109,19.758 19.441,41.218 26.979,63.02c0.397,1.703 1.19,3.066 1.984,4.428c1.19,1.703 3.174,2.725 5.555,3.066c42.849,3.406 86.492,5.791 129.341,8.176l0.794,0c2.381,0.341 7.142,0.341 7.935,0c1.587,-1.703 -0.794,-5.45 -1.984,-9.538c-11.506,-33.043 -20.631,-65.745 -25.789,-98.788c-15.077,-22.823 -27.376,-32.569 -38.088,-61.532c-3.174,-8.729 -4.761,-9.522 -13.886,-10.712c-6.745,-0.794 -17.457,-1.19 -28.566,-1.984c-9.125,-0.794 -18.251,-1.587 -25.392,-1.984Z" style="fill:#424e6e;fill-rule:nonzero;"/><path d="M282.885,394.68c5.555,30.999 13.886,62.339 23.408,93.678c0.794,3.066 1.19,5.45 1.984,7.154c1.19,2.725 3.174,2.385 5.951,2.044c17.854,-3.066 38.485,-6.132 51.975,-8.176l0.397,0c2.381,-0.341 3.968,-0.681 5.951,-2.385c0.794,-1.022 1.587,-2.385 3.174,-4.428c7.669,-10.901 15.342,-21.686 23.012,-32.362c1.984,-3.066 2.381,-5.45 0.397,-7.154c-22.615,-17.032 -107.52,-51.097 -113.074,-50.416c-1.059,0.228 -2.115,0.91 -3.174,2.044Z" style="fill:#424e6e;fill-rule:nonzero;"/><path d="M278.124,402.968c27.773,18.647 43.246,-1.134 69.828,11.81c20.631,9.879 36.898,16.692 52.768,25.889c3.571,2.044 11.506,-2.385 14.283,-4.428c15.87,-11.241 30.153,-24.186 43.246,-38.834c22.484,-64.723 47.876,-124.969 76.176,-195.59c0.266,-22.218 0.528,-44.436 0.794,-66.654c0.397,-11.903 -1.984,4.715 -7.142,-4.483c-15.87,-27.593 -48.8,-76.987 -58.323,-92.316c-5.158,-8.176 -13.093,-17.032 -15.077,-18.395c-5.951,-4.769 -11.109,-2.044 -18.647,-0.341c-30.947,7.835 -69.035,21.802 -90.856,36.79c-8.332,1.703 -29.36,4.088 -39.675,6.813c-6.348,2.044 -7.142,3.406 -9.125,8.516c-10.316,29.977 -23.805,38.42 -39.675,70.953c-0.794,56.736 -5.951,115.455 -15.87,171c10.712,34.914 23.408,62.29 37.295,89.666l0,-0.397Z" style="fill:#424e6e;fill-rule:nonzero;"/><path d="M249.161,131.59c3.968,9.919 5.951,7.935 9.125,0.794c15.077,-32.137 27.773,-38.496 38.088,-68.132c1.19,-9.198 2.381,-42.581 -0.397,-47.35c-0.794,-0.681 -1.19,-1.363 -1.587,-2.044c-14.283,-1.703 -19.441,-2.044 -34.121,-2.385c-30.947,2.385 -68.638,5.11 -100.378,8.176c-3.174,1.703 -3.968,3.066 -4.364,4.428c-1.587,4.769 29.756,41.218 49.991,54.163c15.87,21.12 31.343,23.387 43.643,52.35Z" style="fill:#37425b;fill-rule:nonzero;"/><path d="M302.723,61.185c3.968,0.341 34.517,-6.813 40.072,-8.176c24.202,-12.604 49.594,-23.505 77.367,-30.999c3.174,-0.681 20.631,-4.428 21.821,-6.813c0,-0.341 -1.587,-0.341 -2.381,-0.341c-41.262,3.066 -95.617,2.385 -135.689,0.681l-4.364,0c-0.794,0.341 -0.794,3.066 -0.794,3.747c-0.397,3.747 0.397,10.901 0.794,16.692c0,6.813 -0.397,13.967 -0.397,20.098c-0.397,3.066 -0.794,4.769 3.571,5.11Z" style="fill:#424e6e;fill-rule:nonzero;"/><path d="M452.298,408.647c-15.342,14.989 -31.078,27.364 -47.213,37.131c-3.174,4.428 -25.789,30.999 -28.963,40.537c-0.397,0.681 -0.397,1.703 0,2.044c0.266,0.225 0.528,0.453 0.794,0.681l1.587,0c48.404,2.725 97.998,7.494 146.798,7.494c9.919,-0.681 21.821,-3.066 29.756,-4.769c7.935,-1.703 1.587,-5.45 -1.587,-8.176c-5.158,-4.088 -24.202,-18.054 -41.659,-34.065c-18.251,-16.692 -35.708,-35.087 -43.643,-42.922c-7.142,-7.154 -9.125,-4.769 -15.87,2.044Z" style="fill:#424e6e;fill-rule:nonzero;"/><path d="M470.152,393.446c-5.555,18.647 -4.761,1.575 1.984,10.772c9.125,12.604 24.202,28.955 40.469,43.944c18.647,17.373 38.088,33.043 49.991,39.856c1.984,1.022 3.174,2.385 8.332,2.385c14.68,0.681 32.93,0.681 40.865,0.341c1.19,-0.341 3.571,-1.703 5.555,-2.725c-0.397,-35.768 -3.174,-64.042 -1.587,-98.107c0.266,-3.631 0.528,13.589 0.794,9.09c-3.174,-18.251 -6.745,-56.339 -7.142,-74.986c6.348,-50.784 10.712,-86.095 10.316,-139.657c-3.571,-38.882 -9.522,-62.878 -13.093,-95.58c-3.571,4.088 -5.158,5.791 -11.903,10.56c-9.919,7.154 -27.773,19.758 -42.452,31.34c-14.68,11.923 -14.283,-3.055 -14.68,9.641c-0.397,20.631 0,41.659 2.381,62.29c-26.186,59.116 -49.594,125.374 -69.828,190.838Z" style="fill:#424e6e;fill-rule:nonzero;"/><path d="M533.236,135.106c3.174,4.428 6.745,1.703 9.919,-0.681c21.159,-15.213 42.322,-30.43 63.48,-45.647c1.059,-6.132 1.984,-12.148 2.777,-18.054c1.984,-17.714 2.777,-34.746 1.984,-52.801c-1.19,-0.681 -2.777,-1.363 -4.364,-2.044c-46.023,5.45 -93.633,1.363 -140.45,-1.363c-1.984,0.341 -2.777,1.022 -3.571,2.385c-2.381,4.088 7.538,17.373 11.903,24.527c19.044,29.296 36.104,58.932 55.149,88.569c1.19,2.044 2.381,3.747 3.174,5.11Z" style="fill:#424e6e;fill-rule:nonzero;"/><path d="M606.238,393.446c1.19,6.745 4.364,5.555 9.125,5.555c-4.761,1.19 -8.332,1.19 -8.729,7.538c-1.984,37.295 1.19,47.414 -0.397,75.347c-0.397,-34.406 -3.174,-42.417 -0.794,-82.489c-3.968,-24.995 -8.729,-51.578 -9.125,-76.573c2.777,-21.425 7.935,-42.452 9.919,-63.877c1.984,-24.995 3.174,-49.197 2.777,-74.193c-3.968,-40.865 -11.506,-49.649 -15.077,-84.735c-10.316,7.154 -27.376,19.758 -41.659,30.658c-14.68,11.923 -14.283,-3.055 -14.68,9.641c-0.397,20.631 0,41.659 2.381,62.29c-26.186,59.116 -70.828,181.838 -70.828,181.838c0,0 -3.761,10.575 2.984,19.772c9.125,12.604 24.202,28.955 40.469,43.944c18.647,17.373 38.088,33.043 49.991,39.856c1.984,1.022 3.174,2.385 8.332,2.385c14.68,0.681 32.93,0.681 40.865,0.341c1.19,-0.341 3.571,-1.703 5.555,-2.725c-0.397,-35.768 -3.174,-64.042 -1.587,-98.107c1.059,30.887 2.115,61.886 3.174,92.997c0.397,1.363 0.397,2.385 0.794,3.406c1.587,2.044 7.142,4.088 11.903,6.132c-4.364,-0.681 -8.729,-2.385 -13.093,-2.725c-1.587,0 -5.158,2.385 -5.555,3.066c-0.397,3.747 -0.397,7.154 -0.794,10.901c-0.397,-2.725 -0.794,-5.45 -1.19,-8.176c-0.794,-3.066 -2.777,-2.725 -5.951,-2.725c-11.637,-0.453 -23.143,-0.794 -34.517,-1.022c-7.935,-0.341 -7.538,2.044 -8.332,8.176c-0.266,1.591 -0.528,3.294 -0.794,5.11c-0.397,-7.835 0.794,-12.604 -7.142,-11.582c-7.142,1.134 -14.414,2.272 -21.821,3.406c-7.538,1.363 -5.951,5.11 -6.348,11.582c-1.19,-7.154 0,-10.219 -9.125,-10.219c-46.023,0 -91.65,-2.385 -136.879,-7.494c-3.174,-0.341 -4.761,0 -5.555,0.681c-1.587,1.363 -1.984,9.198 -2.381,11.582c-0.397,-2.044 -0.794,-10.901 -1.587,-11.923c-0.794,-0.681 -2.777,-0.341 -7.142,0.341c-15.87,2.497 -31.871,4.997 -48.007,7.494c-2.777,0.681 -3.968,1.022 -4.761,2.044c-0.794,1.703 0.397,4.088 2.381,8.176c-2.777,-4.088 -5.158,-6.813 -7.538,-7.835c-1.587,-0.681 -3.571,-1.022 -7.538,-1.022c-42.849,-0.681 -84.905,-4.428 -127.754,-8.176c-3.571,-0.341 -5.555,0 -6.745,1.022c-1.984,1.363 -1.984,8.516 -2.381,10.901c-0.397,-2.385 -0.397,-9.198 -1.984,-10.219c-0.794,-1.022 -2.777,-1.022 -6.745,-0.341c-26.186,3.066 -47.213,3.066 -73.399,3.747c-4.364,0 -9.125,-0.341 -10.316,0.341c-1.984,1.363 -4.364,8.857 -5.158,11.241c0.397,-3.066 1.587,-7.154 0.794,-10.56c-0.397,-2.385 -5.951,-5.791 -9.522,-5.791c-3.968,0.228 -8.332,1.022 -13.093,2.385c5.158,-2.385 11.506,-4.088 11.109,-10.56c-3.174,-39.856 -13.093,-56.307 -23.408,-101.934c-1.587,-6.348 -4.364,-9.919 -4.761,-9.919c-2.777,0.397 -5.951,1.19 -10.316,3.571c11.506,-10.316 12.299,-11.903 11.903,-29.36c0,-24.599 -2.381,-48.8 -5.951,-73.002c-1.984,-14.283 -5.555,-13.49 -17.06,-18.251c7.142,0.794 14.68,3.571 16.664,-5.951c3.571,-17.457 5.555,-34.517 7.142,-51.578c0,-2.381 0.397,-3.968 -0.397,-5.158c-1.19,-3.968 -5.951,-5.951 -11.506,-9.522c8.332,3.968 13.886,8.729 13.49,-2.777c-1.587,-42.849 -1.587,-57.548 2.777,-93.997c0.397,-3.406 0.794,-5.791 0,-6.813c-1.19,-1.363 -3.174,-1.022 -7.935,-1.363c7.538,-1.363 7.935,-1.022 10.712,-7.494c5.951,-14.989 12.299,-27.252 20.631,-41.559c2.381,-4.088 3.571,-4.769 -1.19,-7.494c-2.381,-1.591 -4.892,-3.294 -7.538,-5.11c3.174,1.022 5.951,2.044 8.729,3.066c4.761,1.703 10.316,-4.088 10.712,-4.769c0.794,-4.088 -0.397,-7.835 -1.587,-12.263c1.984,4.088 4.364,9.879 6.348,10.901c1.19,1.363 3.571,1.022 6.745,1.022c7.538,0.681 23.012,1.022 38.485,2.044c17.06,1.363 32.93,2.725 36.898,-2.044c1.984,-2.044 3.571,-4.428 5.158,-7.494c-1.984,5.11 -4.364,9.538 -3.174,11.241c0.794,1.022 3.174,1.363 7.538,0.681c30.153,-3.406 59.91,-6.132 90.063,-8.176c7.538,-0.341 7.142,-2.725 7.538,-8.516c2.381,10.219 2.777,7.835 16.664,9.198c4.233,0.681 8.463,1.25 12.696,1.703c9.125,1.022 9.125,-1.703 15.87,-7.835c-0.794,1.363 -1.718,2.725 -2.777,4.088c-1.587,2.044 -2.381,3.747 -2.381,4.088c0,0.681 3.968,1.022 7.935,1.022c44.833,1.363 88.872,0.341 132.912,-1.363c11.506,-0.681 7.142,-3.406 0.794,-10.219c7.538,5.791 10.316,7.835 19.838,8.516c23.408,2.725 91.65,5.45 134.499,3.406c3.571,0 5.555,-0.681 7.538,-1.363c3.174,-1.703 5.158,-4.769 7.935,-9.879c-0.397,2.385 -0.794,5.11 -1.19,7.835c-0.397,2.725 2.777,4.769 4.761,4.769c5.158,-0.341 10.316,-1.703 15.473,-2.725c-14.68,4.769 -15.473,2.385 -16.267,14.989c-1.19,15.329 -1.984,28.274 -4.364,42.24c1.984,-17.714 2.777,-34.746 1.984,-52.801c-1.19,-0.681 -2.777,-1.363 -4.364,-2.044c-46.023,5.45 -93.633,1.363 -140.45,-1.363c-1.984,0.341 -2.777,1.022 -3.571,2.385c-2.381,4.088 7.538,17.373 11.903,24.527c19.044,29.296 36.104,58.932 55.149,88.569c1.19,2.044 2.381,3.747 3.174,5.11c3.174,4.428 6.745,1.703 9.919,-0.681c21.159,-15.217 42.322,-30.43 63.48,-45.647c-3.571,4.088 -5.158,5.791 -11.903,10.56l-0.794,0.681c4.364,28.274 10.316,43.076 16.664,80.371c1.19,6.348 3.968,4.761 9.125,3.968c-5.158,2.381 -7.935,3.571 -7.935,11.109c0,42.056 -4.761,81.334 -12.299,119.422c-1.587,6.348 1.984,6.745 8.729,8.729c-6.745,-0.397 -9.919,-0.794 -9.919,4.364c0.397,21.425 3.968,43.246 7.935,65.464Zm-566.165,-126.961c1.984,1.19 4.761,3.174 5.555,-0.397c1.19,-6.745 -2.777,-38.882 -7.538,-57.926c-3.571,21.028 -5.158,32.137 -5.555,52.371c0.266,0.794 0.397,1.587 0.397,2.381c2.381,1.19 4.761,2.381 7.142,3.571Zm7.142,-18.251c0.794,7.142 0.794,13.886 1.984,21.028c1.19,5.555 2.777,9.522 6.348,13.886c8.332,11.506 17.854,21.425 27.773,30.153c4.364,3.571 6.348,3.174 11.506,3.174c19.044,0 40.469,-2.381 59.116,-3.968c5.158,-0.397 7.538,-0.794 12.696,-2.381c10.316,1.984 20.234,2.381 30.947,3.174c9.125,0.794 18.251,0.794 24.995,0c4.761,-0.397 8.332,-1.19 9.125,-1.984c2.381,-1.984 4.364,-3.174 5.951,-8.332c9.919,-36.104 15.077,-97.998 16.267,-148.782c0,-7.142 -1.19,-9.919 -3.968,-16.664c-9.919,-24.599 -35.311,-42.972 -46.42,-56.939c-30.947,-23.505 -47.213,-47.01 -54.752,-56.207c-1.19,-1.703 -3.968,-2.725 -7.935,-3.747c-9.919,-0.681 -19.441,-1.703 -28.566,-2.385c-6.745,-0.341 -7.538,-0.341 -10.712,4.769c-3.571,6.132 -7.935,12.263 -12.299,18.054c-13.093,10.219 -26.582,20.098 -40.469,29.296c-2.381,19.758 -7.142,26.69 -7.538,50.098c-0.794,22.615 -3.968,57.529 -3.571,81.731c5.158,14.68 7.538,30.55 9.522,46.023Zm40.865,-207.829c2.381,-2.725 12.696,-18.395 11.506,-21.12c-0.397,-1.022 -1.19,-1.703 -4.364,-2.044c-8.332,-0.341 -16.664,-0.681 -26.186,-0.681c-3.174,2.044 -6.348,4.428 -9.125,7.154c-8.729,14.307 -16.267,29.636 -22.615,46.328c-2.381,5.791 -1.19,5.791 4.364,2.385c1.853,-1.134 3.571,-2.156 5.158,-3.066c5.158,-14.648 12.696,-27.933 21.821,-40.197c-9.125,15.329 -13.49,22.823 -19.044,38.493c13.093,-8.516 26.186,-17.373 38.485,-27.252Zm-46.817,34.746c-5.951,3.747 -7.142,4.428 -7.538,11.582c-3.174,33.724 -4.761,60.329 -3.174,99.211c0.794,1.587 1.587,3.174 2.381,4.761c1.321,2.381 2.381,4.761 3.174,7.142c-0.397,-19.441 1.19,-38.485 1.984,-57.132c0.397,-9.522 -0,0.523 0.794,-7.653c1.984,-20.098 5.158,-40.197 7.538,-61.317c-1.853,1.134 -3.571,2.272 -5.158,3.406Zm-5.555,125.87c-1.984,-5.555 -5.158,-8.332 -6.348,-0.794c-2.381,16.267 -5.158,31.343 -6.745,48.404c-0.397,3.571 0,5.555 1.587,7.935c0.794,1.587 4.364,4.761 6.348,3.571c0.397,0 0.397,-1.587 0.397,-2.777c0.397,-17.457 2.381,-34.517 5.555,-50.388l0,-3.968c-0.266,-0.794 -0.528,-1.456 -0.794,-1.984Zm30.947,294.831c28.963,-0.681 63.084,-3.406 89.269,-5.791c1.059,-0.228 1.984,-0.681 2.777,-1.363c0.528,-0.681 0.663,-1.475 0.397,-2.385c-0.266,-1.134 -0.663,-2.272 -1.19,-3.406c-7.538,-21.12 -16.267,-41.9 -26.979,-62.339c-3.174,-21.573 -9.391,-22.362 -18.647,-46.167c-12.43,-17.985 -22.087,-36.501 -28.963,-55.545c-14.283,-13.49 -27.376,-28.566 -39.675,-45.23c-3.174,-2.381 -6.745,-4.761 -9.919,-6.348c3.968,32.137 5.555,63.48 7.142,96.014c12.299,42.452 22.615,79.759 28.169,119.275c-0.266,-0.228 -0.528,-0.453 -0.794,-0.681l0,-0.681c-7.935,-43.603 -15.87,-65.541 -28.963,-114.341c-1.984,-1.19 -3.968,-1.587 -7.142,-0.794c2.777,-1.587 4.761,-3.174 5.951,-4.761c-0.397,-28.169 -1.19,-58.719 -5.951,-92.046c0,-1.984 -0.397,-3.174 -2.777,-3.174c-1.853,0 -3.305,0.663 -4.364,1.984c-1.321,1.321 -1.853,2.908 -1.587,4.761c3.571,30.55 5.158,55.942 6.745,92.046c14.68,48.8 19.441,79.535 25.789,124.501c3.174,2.497 6.745,4.657 10.712,6.472Zm88.872,-470.776c-1.19,4.769 29.756,41.218 49.991,54.163c15.87,21.12 31.343,23.387 43.643,52.35c3.968,9.919 5.951,7.935 9.125,0.794c15.077,-32.137 27.773,-38.496 38.088,-68.132c1.19,-9.198 2.381,-42.581 -0.397,-47.35c-0.794,-0.681 -1.19,-1.363 -1.587,-2.044c-14.283,-1.703 -19.441,-2.044 -34.121,-2.385c-28.963,2.385 -64.671,4.769 -95.22,7.494c-4.364,0.341 -8.332,0.681 -9.522,5.11Zm144.021,-9.538c-0.794,0.341 -0.794,3.066 -0.794,3.747c-0.397,3.747 0.397,10.901 0.794,16.692c0,6.813 -0.397,13.967 -0.397,20.098c-0.397,3.066 -0.794,4.769 3.571,5.11c3.968,0.341 34.517,-6.813 40.072,-8.176c24.202,-12.604 49.594,-23.505 77.367,-30.999c3.174,-0.681 20.631,-4.428 21.821,-6.813c0,-0.341 -1.587,-0.341 -2.381,-0.341c-41.262,3.066 -95.617,2.385 -135.689,0.681l-4.364,0Zm253.921,468.051c-5.158,-4.088 -24.202,-18.054 -41.659,-34.065c-18.251,-16.692 -35.708,-35.087 -43.643,-42.922c-7.142,-7.154 -9.125,-4.769 -15.87,2.044c-15.342,14.989 -31.078,27.364 -47.213,37.131c-3.174,4.428 -25.789,30.999 -28.963,40.537c-0.397,0.681 -0.397,1.703 0,2.044c0.397,0.681 1.587,0.681 2.381,0.681c48.404,2.725 97.998,7.494 146.798,7.494c9.919,-0.681 21.821,-3.066 29.756,-4.769c7.935,-1.703 1.587,-5.45 -1.587,-8.176Zm-180.919,3.406c0.794,-1.022 1.587,-2.385 3.174,-4.428c7.669,-10.901 15.342,-21.689 23.012,-32.362c1.984,-3.066 2.381,-5.45 0.397,-7.154c-22.615,-17.032 -103.52,-32.097 -109.074,-31.416c-1.059,0.228 -2.115,0.91 -3.174,2.044c5.555,30.999 9.886,43.339 19.408,74.678c0.794,3.066 1.19,5.45 1.984,7.154c1.19,2.725 3.571,2.385 6.348,2.044c17.854,-3.066 38.088,-6.132 51.578,-8.176c2.777,-0.341 4.364,-0.341 6.348,-2.385Zm-66.654,11.241c1.587,-1.703 -0.794,-5.45 -1.984,-9.538c-11.506,-33.043 -20.631,-65.745 -25.789,-98.788c-15.077,-22.823 -27.376,-32.569 -38.088,-61.532c-3.174,-8.729 -4.761,-9.522 -13.886,-10.712c-6.745,-0.794 -17.457,-1.19 -28.566,-1.984c-9.125,-0.794 -18.251,-1.587 -25.392,-1.984c-4.364,-0.397 -8.332,1.19 -11.109,4.761c-6.745,7.935 -13.49,15.077 -19.838,21.028c-6.348,7.538 -17.06,22.218 -21.821,34.121c-1.587,3.968 -1.587,7.538 -0.397,11.506c6.082,20.103 10.843,16.491 14.283,34.433c11.109,19.758 19.441,41.218 26.979,63.02c0.397,1.703 1.19,3.066 1.984,4.428c1.19,1.703 3.174,2.725 5.555,3.066c42.849,3.406 86.492,5.791 129.341,8.176c1.19,0 7.935,0.681 8.729,0Zm-213.849,-172.239c5.158,15.87 12.299,29.756 20.631,43.246c1.587,0.794 2.777,1.19 3.571,0.794c1.587,-0.397 20.631,-28.963 23.012,-32.534c7.538,-4.761 13.49,-11.109 19.441,-19.838c2.777,-3.968 1.19,-3.571 -2.777,-3.174c-3.968,0 -21.425,1.984 -36.898,2.777c-8.729,0.397 -17.06,0.794 -22.218,0.794c-4.364,0 -7.142,0.794 -4.761,7.935Zm204.327,-254.253c-10.316,29.977 -23.805,38.42 -39.675,70.953c-0.794,56.736 -5.951,115.455 -15.87,171c10.712,34.914 42.295,75.666 42.295,75.666l6,15.603l58.828,9.81c0,0 36.898,16.692 52.768,25.889c3.571,2.044 11.506,-2.385 14.283,-4.428c15.87,-11.241 30.153,-24.186 43.246,-38.834c22.484,-64.723 47.876,-124.969 76.176,-195.59c0.266,-22.218 0.528,-44.436 0.794,-66.654c0.397,-11.903 -1.984,4.715 -7.142,-4.483c-15.87,-27.593 -48.8,-76.987 -58.323,-92.316c-5.158,-8.176 -13.093,-17.032 -15.077,-18.395c-5.951,-4.769 -11.109,-2.044 -18.647,-0.341c-30.947,7.835 -69.035,21.802 -90.856,36.79c-8.332,1.703 -29.36,4.088 -39.675,6.813c-6.348,2.044 -7.142,3.406 -9.125,8.516Z" style="fill:#262a3f;"/><path d="M379.296,478.82c-22.218,2.044 -51.578,6.132 -73.399,10.56c-48.404,-0.681 -99.188,-4.088 -147.592,-9.198c-29.36,3.066 -56.339,3.406 -86.095,4.428c-1.059,-0.681 -2.115,-1.363 -3.174,-2.044c-5.555,-39.515 -15.87,-76.822 -28.169,-119.275c-1.587,-34.517 -3.571,-68.241 -8.332,-102.759c0.397,-20.234 1.984,-31.74 5.555,-53.165c-1.19,-24.202 2.381,-62.29 3.174,-86.889c0.397,-23.408 5.555,-30.34 7.538,-50.439c5.951,-17.373 10.316,-24.867 19.838,-40.878c1.321,-1.134 2.777,-2.269 4.364,-3.406c25.789,0.341 56.339,2.725 82.128,4.769c36.898,-3.747 68.638,-5.791 105.536,-8.857c11.506,0.341 25.392,0.341 36.898,2.044c26.186,1.022 49.991,2.385 76.573,2.385c26.186,0 59.91,-1.363 86.095,-4.088c48.8,2.725 92.046,8.516 140.847,3.747c0,21.12 -3.968,52.46 -7.538,73.58c3.968,35.427 11.506,44.154 15.473,85.417c0.397,24.995 -0.794,49.197 -2.777,74.193c-1.984,21.425 -7.142,42.452 -9.919,63.877c0.397,24.995 5.158,51.578 9.125,76.573c-2.381,40.072 0.397,48.083 0.794,82.489c-15.077,0.341 -38.088,1.022 -52.371,0.681c-8.332,2.044 -10.316,2.044 -19.044,3.406c-3.44,0.681 -6.876,1.138 -10.316,1.363c-50.784,0 -94.427,-5.791 -145.211,-8.516Zm222.578,-1.022c-0.794,-32.702 -3.174,-39.916 -0.794,-78.004c-3.968,-25.392 -9.125,-51.181 -9.125,-76.97l0,-0.794c2.381,-21.028 7.538,-42.056 9.522,-63.48c2.115,-24.599 3.043,-49.062 2.777,-73.399c-1.587,-18.647 -4.364,-36.898 -7.538,-55.149c-3.174,-18.647 -5.951,-14.314 -7.538,-30.324l0,-1.022c1.853,-12.035 3.44,-24.186 4.761,-36.449c1.19,-10.56 2.381,-21.461 2.381,-32.021c-21.028,1.703 -42.056,1.703 -63.084,0.681c-24.202,-1.363 -48.404,-3.406 -72.606,-4.769c-14.283,1.363 -28.566,2.385 -43.246,3.066c-14.283,0.681 -28.697,1.022 -43.246,1.022c-25.789,0 -51.181,-1.363 -76.97,-2.725l-0.397,0c-11.506,-1.363 -24.202,-1.363 -36.104,-1.703c-34.914,2.725 -69.828,5.11 -105.139,8.516l-0.794,0c-26.582,-2.044 -53.562,-4.088 -80.144,-4.428c-0.794,0.456 -1.456,1.022 -1.984,1.703c-3.968,6.132 -7.538,12.604 -11.109,19.076c-3.174,6.472 -5.951,13.285 -8.332,20.098c-1.19,11.582 -2.777,22.823 -4.364,34.406c-1.19,11.241 -2.777,2.259 -3.174,15.352c-0.794,31.343 -5.555,68.241 -3.968,98.395c-1.587,9.522 -1.587,8.729 -2.777,17.854c-1.19,7.935 -1.587,15.87 -1.587,23.408c4.761,34.121 6.348,68.241 7.935,102.362c3.571,12.299 6.745,24.599 9.125,37.295c3.174,14.283 5.951,4.199 8.332,16.688c3.968,21.12 7.538,42.356 10.712,63.701c0,0.228 0.131,0.341 0.397,0.341c28.169,-0.681 55.942,-1.363 84.111,-4.428l0.794,0c48.8,5.45 97.998,8.516 146.798,9.538c11.506,-2.385 23.805,-4.428 35.708,-6.132c12.43,-1.816 24.864,-3.291 37.295,-4.428l0.794,0c24.599,1.363 49.197,3.406 73.399,5.11c23.805,1.703 47.61,3.066 71.812,3.066c3.174,-0.225 6.348,-0.565 9.522,-1.022c3.174,-0.453 6.348,-1.022 9.522,-1.703c3.174,-0.453 6.217,-1.134 9.125,-2.044l1.587,0c8.729,0.341 17.854,0.341 26.979,0c6.876,-0.225 13.755,-0.453 20.631,-0.681Z" style="fill:#698195;"/><path d="M9.92,257.36c4.364,-6.348 13.886,-55.149 10.712,-71.019c-1.984,-45.626 -1.587,-68.609 2.777,-108.124c7.935,-7.835 19.441,-39.856 27.773,-58.932c0,-5.791 9.125,-11.923 15.077,-9.538c19.838,-4.428 50.388,-5.791 75.383,-6.132c-26.582,-1.703 -52.768,-3.066 -78.557,-2.725c-6.348,3.747 -13.886,9.198 -19.441,14.648c-7.407,21.12 -15.342,42.128 -23.805,63.02c-3.968,37.812 -5.951,58.983 -5.951,103.816c-3.571,24.599 -7.935,48.8 -13.093,72.209c3.44,41.528 6.082,83.187 7.935,124.977c11.903,51.181 22.615,70.987 31.74,115.952c6.745,6.132 14.68,10.56 22.615,14.307c29.36,0.341 58.323,-0.341 87.682,-2.385c-28.963,0 -57.529,-0.681 -86.095,-3.406c-7.142,-1.703 -12.696,-5.45 -17.457,-11.241c-8.729,-44.966 -19.441,-65.22 -34.517,-115.608c1.587,-39.278 1.587,-78.954 -2.777,-119.819Z" style="fill:#ebfaff;fill-opacity:0.5;fill-rule:nonzero;"/><path d="M93.238,92.184c4.364,4.769 9.522,8.516 14.68,12.945c3.968,3.747 7.142,9.538 12.696,11.241c7.142,2.044 14.68,-3.747 15.473,-13.285c0.794,-7.835 -0.397,-17.714 -1.984,-21.461c-3.174,-8.516 -8.332,-17.714 -17.457,-22.142c-7.142,-3.406 -20.631,-1.363 -24.202,5.11c-3.968,6.813 -4.761,21.12 0.794,27.593Z" style="fill:#262a3f;fill-rule:nonzero;"/><path d="M162.272,113.645c2.777,7.154 9.919,14.648 19.441,14.989c10.316,0 11.109,-13.967 11.109,-20.439c0,-3.066 -1.19,-6.132 -3.571,-8.176c-5.555,-4.428 -26.582,-9.538 -28.566,-1.363c-1.19,4.769 -0.397,10.219 1.587,14.989Z" style="fill:#262a3f;fill-rule:nonzero;"/><path d="M526.888,424.317c1.984,6.132 4.761,12.263 9.919,16.692c5.951,5.11 24.995,11.923 32.93,8.176c4.761,-2.385 8.729,-6.813 9.125,-11.241c0.397,-6.813 -1.984,-14.648 -6.745,-20.098c-4.761,-5.11 -11.506,-7.835 -17.854,-12.263c-3.968,-2.385 -7.538,-5.791 -11.903,-7.835c-7.538,-3.747 -15.077,2.385 -16.267,6.813c-1.587,7.835 -1.19,12.604 0.794,19.758Z" style="fill:#262a3f;fill-rule:nonzero;"/><path d="M525.301,424.317c1.587,6.132 4.364,12.263 9.522,16.692c5.951,5.11 24.995,11.923 32.93,8.176c4.761,-2.385 8.729,-6.813 9.125,-11.241c0.397,-6.813 -1.984,-14.648 -6.745,-20.098c-4.761,-5.11 -11.506,-7.835 -17.854,-12.263c-3.968,-2.385 -7.538,-5.791 -11.903,-7.835c-7.538,-3.747 -15.077,2.385 -16.267,6.813c-1.19,7.835 -1.19,12.604 1.19,19.758Z" style="fill:#37425b;fill-rule:nonzero;"/><path d="M91.254,92.184c4.364,4.769 9.522,8.516 14.68,12.945c3.968,3.747 7.142,9.538 12.696,11.241c7.142,2.044 14.68,-3.747 15.473,-13.285c0.794,-7.835 -0.397,-17.714 -1.984,-21.461c-3.174,-8.516 -8.332,-17.714 -17.457,-22.142c-7.142,-3.406 -20.631,-1.363 -24.202,5.11c-3.968,6.813 -4.761,21.12 0.794,27.593Z" style="fill:#37425b;fill-rule:nonzero;"/><path d="M160.289,113.645c2.777,7.154 9.919,14.648 19.441,14.989c10.712,0 11.109,-13.967 11.109,-20.439c0,-3.066 -1.19,-6.132 -3.571,-8.176c-5.555,-4.428 -26.582,-9.538 -28.566,-1.363c-1.19,4.769 -0.397,10.219 1.587,14.989Z" style="fill:#37425b;fill-rule:nonzero;"/></g></svg>