<?xml version="1.0" encoding="UTF-8" standalone="no"?><!DOCTYPE svg PUBLIC "-//W3C//DTD SVG 1.1//EN" "http://www.w3.org/Graphics/SVG/1.1/DTD/svg11.dtd"><svg width="100%" height="100%" viewBox="0 0 421 136" version="1.1" xmlns="http://www.w3.org/2000/svg" xmlns:xlink="http://www.w3.org/1999/xlink" xml:space="preserve" xmlns:serif="http://www.serif.com/" style="fill-rule:evenodd;clip-rule:evenodd;stroke-linejoin:round;stroke-miterlimit:2;"><g><path d="M13.825,5.224c27.6,-0.8 52.601,-3.4 80.601,-4.6c19,0.4 44.2,1.6 68,0.8c43.6,1 88.8,1 100.6,0.8c46.6,1.6 95,3.2 144.6,4.8c2,0.4 6.6,3.8 7.4,5.8c1.6,6.8 3,12.4 4.2,18.2c0.2,4 1.2,16.4 1.2,24.4c-1.2,25 -3.2,48.8 -4.2,67c-1.2,2 -10,6.6 -15,8c-50,1.8 -101.6,3 -156.6,5c-49.4,-2.4 -111.4,-5 -161.4,-4.4c-26.201,-1.6 -50.201,-2.2 -71.401,-2.2c-2.4,-1 -6.4,-4.6 -7.4,-6.2c-2.2,-24.8 -3.2,-47.6 -4.2,-72.4c0.8,-14.8 3.4,-25 4.2,-37.2c1,-1.8 7,-6.8 9.4,-7.8Z" style="fill:#37425b;fill-rule:nonzero;"/><path d="M9.425,47.424c1.6,-8.6 4.6,-16.2 6.6,-26.6l-11.6,-7.8c-0.8,12.2 -3.4,22.4 -4.2,37.2l9.2,-2.8Z" style="fill:#5c647b;fill-rule:nonzero;"/><path d="M4.426,13.024l11.6,7.8c0.4,-0.4 3.4,-3.2 3.8,-3.4l-6,-12.2c-2.4,1 -8.4,6 -9.4,7.8Z" style="fill:#a3afbd;fill-rule:nonzero;"/><path d="M13.827,5.224l6,12.2c25.6,-1 57.999,-4.6 81.599,-6.8l-7,-10c-28,1.2 -52.999,3.8 -80.599,4.6Z" style="fill:#a3afbd;fill-rule:nonzero;"/><path d="M94.426,0.624l7,10c20,-0.2 44.2,0 64,3.2l-2.6,-12.4l-0.4,0c-23.8,0.8 -49,-0.4 -68,-0.8Z" style="fill:#a3afbd;fill-rule:nonzero;"/><path d="M162.826,1.424l2.6,12.4c21.4,-2 39.4,-2 59.6,0.8c12.8,-0.8 23.4,-1 35.4,-2.8l2.6,-9.6c-11.8,0.2 -56.8,0.2 -100.2,-0.8Z" style="fill:#5c647b;fill-rule:nonzero;"/><path d="M263.026,2.224l-2.6,9.6c44.2,3 96.8,4.6 141.4,7.2l5.8,-12c-49.6,-1.6 -98,-3.2 -144.6,-4.8Z" style="fill:#5c647b;fill-rule:nonzero;"/><path d="M407.626,7.024l-5.8,12c0.8,0.666 1.534,1.4 2.2,2.2l11,-8.4c-0.8,-2 -5.4,-5.4 -7.4,-5.8Z" style="fill:#a3afbd;fill-rule:nonzero;"/><path d="M415.026,12.824l-11,8.4c0.6,4 0.8,8 1.6,11.8c1.8,7.8 4.8,18.6 5.4,22.6l9.4,-0.2c0,-8 -1,-20.4 -1.2,-24.4c-1.2,-5.8 -2.6,-11.4 -4.2,-18.2Z" style="fill:#262a3f;fill-rule:nonzero;"/><path d="M420.426,55.424l-9.4,0.2c-1.6,19.4 -1.8,41.6 -3,61.8l8.2,5c1,-18.2 3,-42 4.2,-67Z" style="fill:#262a3f;fill-rule:nonzero;"/><path d="M408.026,117.424c-1.8,1 -3.8,1.8 -5.2,2.4l-1.6,10.6c5,-1.4 13.8,-6 15,-8l-8.2,-5Z" style="fill:#262a3f;fill-rule:nonzero;"/><path d="M402.826,119.824c-51.4,1.8 -107,4.2 -158.4,6l0.2,9.6c55.2,-2 106.6,-3.2 156.6,-5l1.6,-10.6Z" style="fill:#262a3f;fill-rule:nonzero;"/><path d="M244.426,125.824c-22,-2.2 -64.6,-6 -81.2,-6.2c-19,-0.4 -45.6,0.4 -72,0.8l-7.4,10.6c49.8,-0.6 111.6,2 160.8,4.4l-0.2,-9.6Z" style="fill:#262a3f;fill-rule:nonzero;"/><path d="M83.826,131.024l7.4,-10.6c-20.8,-1.2 -52.999,-4.6 -73.799,-4.8l-5.6,13.2c21.2,0 45.2,0.6 71.399,2.2l0.6,0Z" style="fill:#262a3f;fill-rule:nonzero;"/><path d="M11.826,128.824l5.6,-13.2c-1,-0.2 -2.8,-1 -3.2,-1.6l-9.8,8.6c1,1.6 5,5.2 7.4,6.2Z" style="fill:#262a3f;fill-rule:nonzero;"/><path d="M4.425,122.624l9.8,-8.6c-2,-22.2 -4,-44.4 -4.8,-66.6l-9.2,2.8c1,24.8 2,47.6 4.2,72.4Z" style="fill:#5c647b;fill-rule:nonzero;"/><path d="M74.826,37.024c5.2,-3.4 10.4,-7 15.4,-11.4c2.268,-3.6 4.6,-7.266 7,-11c1,-1.8 1.4,-2.8 0.4,-3.6c-23.2,2.2 -53.599,5.6 -77.799,6.4c-0.4,0.2 -3.4,3 -3.8,3.4c-1.8,9.8 -4.6,17 -6.2,24.8c0.267,0.4 0.533,0.666 0.8,0.8c2.2,1.2 45.6,-7 55.999,-8.8c2.2,-0.4 6.4,-0.4 8.2,-0.6Z" style="fill:#424e6e;fill-rule:nonzero;"/><path d="M91.826,26.424c-3.866,2.4 -7.666,5 -11.4,7.8c-2,1.6 -3.2,2.6 -3,3c0,0.2 1,1 3.6,1.6c45.4,11.8 88.2,26.6 128.2,46.2c2,0.2 2.2,-0.4 4,-2.8c10.8,-14.8 25,-27.2 41.6,-38.4c2.8,-1.8 2.6,-2.4 2.4,-4.2c-0.2,-7.4 0.6,-18.2 1.4,-21.8c-0.6,7.4 -0.6,15 -0.4,21.2c0,1.8 -0.2,2.4 1.8,1.4c3.2,-1.4 12.8,-7.2 23.2,-12.4c10.6,-5 22.2,-8.8 26,-11.6c2.6,-1.6 1,-1.8 -0.8,-2c-16.6,-0.8 -32.8,-1.6 -48,-2.6c-12,1.8 -22.6,2 -35.4,2.8c-20.2,-2.8 -38.2,-2.8 -59.6,-0.8c-19.6,-3.2 -43.8,-3.4 -63.6,-3.2c-3.8,3 -8,10.8 -10,15.8Z" style="fill:#424e6e;fill-rule:nonzero;"/><path d="M206.026,85.224c-25,-11.8 -91.6,-37.8 -123.4,-45c-10.6,-2.2 -12.6,-1.2 -23.2,0.4c-18.8,2.8 -46.8,6.8 -49.2,7.6c-0.267,0.134 -0.533,0.334 -0.8,0.6c1,21.6 3,43.4 4.8,65.2c0.4,0.6 2.2,1.4 3.2,1.6c4.8,0 10.2,0.2 15.8,0.6c19.2,1 42,3.2 58,4.2c26.4,-0.4 53,-1.2 72,-0.8c7,0.2 18.4,0.8 31.2,1.8c14,0.8 28,2.6 42.2,2.8c2.8,0.2 5.2,-0.2 5.6,-0.4c0.6,-0.4 -1.8,-5.4 -4.2,-10c-8,-7.2 -15.8,-14.4 -23.6,-22c-3.4,-3.6 -3.8,-4.4 -8.4,-6.6Z" style="fill:#37425b;fill-rule:nonzero;"/><path d="M283.626,28.624c-24.6,11.6 -53,32 -69,53.8c-2,2.8 -2,3.6 -1.2,6.2c7.4,8.2 16,16.6 26.2,25c1.4,2.6 3.6,7.4 5.6,9.4c0.6,0.8 1.6,1.2 3.6,1.4c12,1.6 24.2,0 36.4,-0.2c20,-4 39.8,-8.6 58.6,-15.4c9.2,-3.4 17.8,-7.8 25.8,-13.2c11.2,-8 22.2,-16.6 32.8,-25.8c2.6,-3 4.8,-7 6.8,-11c1.4,-2.6 1.6,-3.6 1.4,-5c0,-0.4 -0.066,-0.8 -0.2,-1.2c-1.2,-5 -3.4,-13.4 -4.8,-19.6c-0.8,-3.8 -1,-7.8 -1.6,-11.8c-0.666,-0.8 -1.4,-1.534 -2.2,-2.2c-25.4,-1.4 -53.4,-2.6 -81,-4c-1.334,0 -2.6,-0.066 -3.8,-0.2c-1.4,0 -2.6,0.2 -4,0.8c-1.2,0.6 -2,1.4 -4.4,3.2c-7.8,2.6 -16.8,6 -25,9.8Z" style="fill:#37425b;fill-rule:nonzero;"/><path d="M367.026,99.624c-7.8,3.4 -15.2,7.2 -22.4,11.4c-18.8,5.6 -38.8,9.8 -59.4,13.2c24.4,-0.8 49.2,-1.8 73.8,-2.8c14.8,-0.6 29.4,-1 43.8,-1.6c1.4,-0.6 3.4,-1.4 5.2,-2.4c1.2,-18.4 1.4,-38.4 2.6,-56.6c-0.268,-0.666 -0.534,-1.066 -0.8,-1.2c-0.6,-0.2 -5.6,9.4 -6.4,11.8c-10.4,7.4 -18.2,13.4 -27.8,21.8c-4,3.6 -1.8,3.6 2.2,6.4c3.4,2.4 6.4,4.6 10,7.4c-6.8,-4 -13.8,-10.4 -20.8,-7.4Z" style="fill:#37425b;fill-rule:nonzero;"/><path d="M15.625,8.824c26.8,-1 54.6,-0.6 81.2,-4.8l66.8,1.2c33.4,-1.4 66.2,0 98.4,0.8c30.4,0.8 118.6,-1.4 143.4,4.8c1.4,0 5.8,2.2 6,4.8c5.6,7 6.6,15 8.4,23.6c-0.4,-3.6 -0.6,-6.6 -0.6,-8.2c-1.2,-5.8 -2.6,-11.4 -4.2,-18.2c-0.8,-2 -5.4,-5.4 -7.4,-5.8c-49.6,-1.6 -98,-3.2 -144.6,-4.8c-11.8,0.2 -57,0.2 -100.6,-0.8c-23.8,0.8 -49,-0.4 -68,-0.8c-28,1.2 -53,3.8 -80.6,4.6c-2.4,1 -8.4,6 -9.4,7.8c-0.8,10.6 -2.8,19.6 -3.8,31.4c3.2,-9.8 7,-19.6 6,-29.8c3.6,-1.4 6,-3 9,-5.8Z" style="fill:#ebfaff;fill-opacity:0.5;fill-rule:nonzero;"/><path d="M402.826,119.824c1.4,-0.6 3.4,-1.4 5.2,-2.4c1.2,-18.4 1.4,-38.4 2.6,-56.6c-0.266,-0.666 -0.534,-1.066 -0.8,-1.2c-0.6,-0.2 -5.6,9.4 -6.4,11.8c-10.4,7.4 -18.2,13.4 -27.8,21.8c-4,3.6 -1.8,3.6 2.2,6.4c3.4,2.4 6.4,4.6 10,7.4c-6.8,-4 -13.8,-10.4 -20.8,-7.4c-7.8,3.4 -15.2,7.2 -22.4,11.4c-18.8,5.6 -38.8,9.8 -59.4,13.2c-11.866,1.2 -23.666,1.934 -35.4,2.2c-1.8,0 -3.6,0 -4,0.2c-0.8,0.2 -0.8,2.8 -1.2,7.2c-0.2,-3.2 -0.8,-6.4 -1.2,-6.8c-0.6,-0.4 -1.8,-0.6 -3.6,-0.8c-15.8,-2 -30.8,-2.8 -45.4,-4.8c14,0.8 28,2.6 42.2,2.8c2.8,0.2 5.2,-0.2 5.6,-0.4c0.6,-0.4 -1.8,-5.4 -4.2,-10c-8,-7.2 -15.8,-14.4 -23.6,-22c-3.4,-3.6 -3.8,-4.4 -8.4,-6.6c-25,-11.8 -91.6,-37.8 -123.4,-45c-10.6,-2.2 -12.6,-1.2 -23.2,0.4c-18.8,2.8 -46.8,6.8 -49.2,7.6c-0.267,0.134 -0.533,0.334 -0.8,0.6c1,21.6 3,43.4 4.8,65.2c0.4,0.6 2.2,1.4 3.2,1.6c4.8,0 10.2,0.2 15.8,0.6l-6.4,0c-2.667,-0.134 -5.267,-0.2 -7.8,-0.2c-0.667,0.134 -1.133,0.4 -1.4,0.8c-0.933,1.6 -1.867,3.2 -2.8,4.8c0.533,-1.734 1.067,-3.466 1.6,-5.2c-0.2,-0.6 -2.4,-1.2 -2.4,-1c-2.533,1.866 -5.067,3.734 -7.6,5.6c1.4,-1.6 5.6,-5.6 6.4,-7.4c0.2,-0.6 0.4,-1.4 0.4,-2c-0.667,-8 -1.4,-16 -2.2,-24c-0.667,-9.866 -1.4,-19.666 -2.2,-29.4c0,-2.666 -0.067,-5.334 -0.2,-8c0,-2 -1,-1.6 -2.8,-1.2c-1.6,0.266 -3.2,0.6 -4.8,1c1.6,-0.6 2.6,-1.4 4.2,-2c2.6,-1 2.6,-1 3.2,-3.8c1.6,-6.4 3.2,-12.866 4.8,-19.4c1,-4.2 1.4,-3.2 -2,-5.8c-2.2,-1.8 -3.8,-3.6 -6,-5.4c3.4,2 6.2,3.2 9.6,5c0.8,0.4 3.4,-0.8 3.2,-1.6c-1,-3.8 -2.2,-7 -3.6,-10.6c1.6,2.666 3.267,5.4 5,8.2c1.2,2.2 2,1.4 4.6,1.2c18.8,-1.2 36.2,-2.8 55,-5.2c5.2,0 9.6,-0.4 14.8,-0.8c1.8,-0.2 4,0 4.4,-1.2c0.2,-1.2 -2.2,-5.2 -2.8,-6.4c0.8,0.6 5.4,6.6 5.6,6.6c3.6,1.2 10.8,0.4 15.4,0.4c9,0.2 18,0.2 27,0.6c5.466,0.534 10.934,1.066 16.4,1.6c2.2,0.2 3.4,0.4 4,-0.6c0.4,-1 -0.6,-6.8 -0.8,-8.4c1.8,5.8 1.8,10.2 6.6,10.2c11.6,-0.8 21.2,-1.8 32.8,-2c6.8,0.4 13.2,1 19.8,2c1.2,0.2 2.2,0.6 2.4,-0.6c0.2,-2 0.4,-3.8 0.6,-5.8c0.134,1.734 0.2,3.534 0.2,5.4c0.2,1.6 0.4,1.6 2.2,1.8c6.6,0.8 18.6,-0.8 25.6,-1.2c8.4,-1.6 7,-2 9.6,-9.2c-0.6,4.2 -1.6,7 -0.8,7.8c2.4,1.8 57.8,2.8 67.2,3c22.6,2 45,3.6 67.4,4.2c3.6,0 4.4,0.6 6,-2.4c1.466,-2.534 2.934,-5.066 4.4,-7.6c-1.066,2.666 -2.134,5.334 -3.2,8c-1.2,3 -0.2,5.2 2.4,3.2c2.534,-1.734 5,-3.466 7.4,-5.2c-2.534,2.134 -5,4.334 -7.4,6.6c-1.6,1.4 -1.2,2.2 -1,4.4c0,1.4 0.8,3 1,4.4c0.2,2.2 -0.2,3.2 2,3.4c2.6,0 4.4,-0.4 7,-0.8c-1.8,0.4 -3.6,1 -5.4,1.4c-1,0.4 -2,0.8 -2.2,1c-0.4,0.6 0,2.2 0.4,4c0.534,2.534 1.066,5.134 1.6,7.8c0.6,2.4 1.6,7.4 2.4,8.6c0.2,0.2 6.8,0.6 7.4,0.6c-0.8,0.2 -7,0.6 -7.2,0.8c-0.8,0.8 -0.8,2.6 -0.8,4c-1.2,14.2 -1.8,27.2 -1.8,41.6c-0.2,4 -0.4,8.2 -0.6,12.2c-0.2,2.6 -0.4,2.6 1.6,4.2c1.466,1.2 3,2.4 4.6,3.6c-2.2,-1 -4.4,-2.4 -6.6,-3.2c-1.2,-0.6 -5.2,1.2 -5.6,2.2c-0.8,2.4 -1,4.8 -1.6,7.4c0.4,-2.2 0.6,-4.4 0.6,-6.6c0,-0.4 -0.4,-0.8 -0.8,-0.8c-4.2,-0.2 -8.4,0 -12.8,0c-9.866,0.266 -19.666,0.466 -29.4,0.6c14.8,-0.6 29.4,-1 43.8,-1.6Zm-59,-11c9.2,-3.4 17.8,-7.8 25.8,-13.2c11.2,-8 22.2,-16.6 32.8,-25.8c2.6,-3 4.8,-7 6.8,-11c1.8,-3.2 1.8,-4 1.2,-6.2c-1.2,-5 -3.4,-13.4 -4.8,-19.6c-0.8,-3.8 -1,-7.8 -1.6,-11.8c-0.666,-0.8 -1.4,-1.534 -2.2,-2.2c-25.4,-1.4 -53.4,-2.6 -81,-4c-2.6,0 -5.2,-0.4 -7.8,0.6c-1.2,0.6 -2,1.4 -4.4,3.2c-7.8,2.6 -16.8,6 -25,9.8c-24.6,11.6 -53,32 -69,53.8c-2,2.8 -2,3.6 -1.2,6.2c7.4,8.2 16,16.6 26.2,25c1.4,2.6 3.6,7.4 5.6,9.4c0.6,0.8 1.6,1.2 3.6,1.4c12,1.6 24.2,0 36.4,-0.2c20,-4 39.8,-8.6 58.6,-15.4Zm-130.6,-26.6c10.8,-14.8 25,-27.2 41.6,-38.4c2.8,-1.8 2.6,-2.4 2.4,-4.2c-0.2,-7.4 0.6,-18.2 1.4,-21.8c-0.6,7.4 -0.6,15 -0.4,21.2c0,1.8 -0.2,2.4 1.8,1.4c3.2,-1.4 12.8,-7.2 23.2,-12.4c10.6,-5 22.2,-8.8 26,-11.6c2.8,-1.8 0.6,-1.8 -1.4,-2c-16.2,-0.8 -32.4,-1.6 -47.4,-2.6c-12,1.8 -22.6,2 -35.4,2.8c-20.2,-2.8 -38.2,-2.8 -59.6,-0.8c-19.6,-3.2 -43.8,-3.4 -63.6,-3.2c-3.8,3 -8,10.8 -10,15.8c-3.866,2.4 -7.666,5 -11.4,7.8c-2,1.6 -3.2,2.6 -3,3c0,0.2 1,1 3.6,1.6c45.4,11.8 88.2,26.6 128.2,46.2c2,0.2 2.2,-0.4 4,-2.8Zm-202.6,-35.8c2.2,1.2 45.6,-7 56,-8.8c2.2,-0.4 6.4,-0.4 8.2,-0.6c5.2,-3.4 10.4,-7 15.4,-11.4c2.266,-3.6 4.6,-7.266 7,-11c1,-1.8 1.4,-2.8 0.4,-3.6c-23.2,2.2 -53.6,5.6 -77.8,6.4c-0.4,0.2 -3.4,3 -3.8,3.4c-1.8,9.8 -4.6,17 -6.2,24.8c0.267,0.4 0.533,0.666 0.8,0.8Z" style="fill:#698195;"/><path d="M71.826,79.224c-1.2,0 -2.6,0.4 -3.4,1.4c-1.6,1.8 -2.8,4.2 -3.4,6.8c-0.4,2.6 4,5 6.2,5.2c1.6,0 3.6,-0.6 4.6,-2c1.6,-2.2 -0.8,-11 -4,-11.4Z" style="fill:#262a3f;fill-rule:nonzero;"/><path d="M47.627,55.224c-3.6,0.8 -7.2,2.4 -9.8,4.8c-3,3.2 -7,12.6 -4.8,16.8c1.4,2.4 4,4.4 6.6,4.4c4,0.4 8.6,-0.8 11.8,-3.4c3,-2.4 4.8,-5.8 7.2,-8.8c1.399,-2 3.399,-4 4.599,-6.2c2.2,-3.8 -1.4,-7.6 -3.999,-8c-4.6,-0.8 -7.4,-0.6 -11.6,0.4Z" style="fill:#262a3f;fill-rule:nonzero;"/><path d="M379.626,53.024c-4.6,0.8 -9.4,8.6 -10.6,13.2c-1,4.8 1,7.2 3.4,6.4c5,-2 19.2,-7.8 20.2,-13.8c0.4,-3.2 -1.2,-6 -4.4,-6.6c-2.8,-0.4 -5.8,0.2 -8.6,0.8Z" style="fill:#262a3f;fill-rule:nonzero;"/><path d="M378.826,52.224c-4.6,0.8 -9.4,8.6 -10.4,13.2c-1.2,4.8 1,7.2 3.2,6.4c5,-2 19.2,-7.8 20.2,-13.8c0.4,-3.2 -1,-6 -4.4,-6.6c-2.8,-0.4 -5.8,0.2 -8.6,0.8Z" style="fill:#37425b;fill-rule:nonzero;"/><path d="M71.026,78.424c-1.2,-0.2 -2.6,0.4 -3.4,1.2c-1.6,2 -2.8,4.4 -3.2,7c-0.6,2.6 3.8,5 6,5c1.6,0.2 3.6,-0.6 4.8,-1.8c1.6,-2.2 -0.8,-11 -4.2,-11.4Z" style="fill:#37425b;fill-rule:nonzero;"/><path d="M46.826,54.424c-3.6,0.8 -7.2,2.4 -9.6,4.8c-3.2,3 -7.2,12.6 -4.8,16.8c1.2,2.2 3.8,4.4 6.4,4.4c4.2,0.4 8.6,-0.8 11.8,-3.4c3.2,-2.4 4.8,-5.8 7.2,-8.8c1.6,-2 3.4,-4 4.6,-6.2c2.2,-3.8 -1.4,-7.6 -4,-8c-4.4,-0.8 -7.2,-0.8 -11.6,0.4Z" style="fill:#37425b;fill-rule:nonzero;"/></g></svg>