<?xml version="1.0" encoding="UTF-8" standalone="no"?><!DOCTYPE svg PUBLIC "-//W3C//DTD SVG 1.1//EN" "http://www.w3.org/Graphics/SVG/1.1/DTD/svg11.dtd"><svg width="100%" height="100%" viewBox="0 0 263 234" version="1.1" xmlns="http://www.w3.org/2000/svg" xmlns:xlink="http://www.w3.org/1999/xlink" xml:space="preserve" xmlns:serif="http://www.serif.com/" style="fill-rule:evenodd;clip-rule:evenodd;stroke-linejoin:round;stroke-miterlimit:2;"><path d="M4.708,68.583c2.254,-0.187 4.496,-0.529 6.709,-1.016c1.729,-0 3.354,-1.221 5.083,-1.625c13.4,-2.888 26.988,-4.821 40.658,-5.792c1.313,0.158 2.642,0.158 3.963,0c15.137,-19.679 34.125,-36.071 55.8,-48.179c1.221,-0.713 2.541,-1.321 3.558,-0c0.871,1.254 1.371,2.737 1.425,4.271c0.608,3.254 1.117,6.608 1.525,10.162c0.033,2.996 0.271,5.984 0.713,8.946c0.625,2.6 1,5.254 1.116,7.929c0.509,6.809 0.813,13.721 1.117,20.329c0.608,13.555 0.917,27.105 0.917,40.659c-0,13.721 -0,27.441 -1.117,40.658c-1.117,13.212 -1.829,27.442 -2.946,40.658c0,6.1 -0.917,12.3 -1.525,18.5c0,3.05 -0.508,6.1 -0.812,9.146c-0.517,2.613 -0.755,5.267 -0.713,7.929c-9.596,-5.333 -18.508,-11.816 -26.529,-19.312c-10.671,-10.163 -23.275,-25.613 -33.746,-36.084c-17.425,-3.3 -35.05,-5.47 -52.754,-6.504l-1.117,0c-0.304,0 -1.116,-3.658 -1.116,-3.962c-1.092,-3.654 -1.871,-7.396 -2.338,-11.179c-1.262,-25.192 -0.55,-50.442 2.133,-75.521l-0.004,-0.013Zm194.73,-51.325c-1.221,-3.558 20.429,-10.062 22.462,-10.775c3.762,-1.525 8.637,-4.879 12.908,-3.05c4.38,2.225 7.938,5.784 10.163,10.163c4.304,7.946 7.191,16.575 8.537,25.512c7.954,40.663 8.504,82.429 1.625,123.292c-2.912,24.587 -12.046,48.025 -26.529,68.1c-2.625,-0.863 -5.092,-2.129 -7.317,-3.763c-0.712,-0.666 -1.5,-1.245 -2.337,-1.729c-7.183,-4.991 -14.883,-9.183 -22.971,-12.5c-4.979,-1.525 -0.304,-9.045 0.713,-11.687c2.945,-7.825 5.791,-15.754 8.233,-23.783c4.996,-16.2 8.404,-32.846 10.162,-49.705c0.696,-6.754 1.034,-13.537 1.017,-20.329c0.321,-18.229 -1.412,-36.437 -5.183,-54.275c-1.425,-6.2 -2.846,-12.3 -4.675,-18.396c-0.917,-2.945 -1.929,-6.1 -3.05,-8.841c-1.117,-2.746 -2.746,-5.388 -3.763,-8.234l0.005,0Zm-57.725,24.384c2.22,-1.634 4.741,-2.805 7.42,-3.455c3.15,-1.22 5.896,-3.354 9.046,-4.575c1.771,-0.795 3.609,-1.441 5.488,-1.929c0.704,-0.154 1.433,-0.154 2.133,0l3.558,0c7.692,6.925 12.45,16.521 13.317,26.834c6.092,30.97 6.504,62.795 1.221,93.916c-1.467,9.517 -3.813,18.875 -7.013,27.95c-1.558,4.246 -3.395,8.392 -5.487,12.4c-1.879,3.634 -4.167,7.042 -6.809,10.163c-2.945,3.15 -4.779,-1.525 -6.1,-3.559c-1.491,-1.65 -3.287,-2.995 -5.283,-3.962c-3.675,-2.275 -7.596,-4.121 -11.687,-5.488c-1.321,-0.408 -2.134,0.1 -3.355,-1.625c-1.22,-1.729 -0.1,-3.15 0.609,-5.183c0.712,-2.033 1.525,-3.962 2.237,-5.896c2.846,-8.029 5.488,-16.058 7.625,-24.191c3.796,-14.055 5.742,-28.542 5.792,-43.096c0.229,-13.9 -1.133,-27.779 -4.067,-41.367c-1.016,-4.675 -2.133,-9.35 -3.558,-13.925c-0.625,-2.287 -1.404,-4.529 -2.338,-6.708c-0.812,-2.134 -2.033,-4.167 -2.745,-6.3l-0.005,-0.004Z" style="fill:#1d3965;"/></svg>