<?xml version="1.0" encoding="UTF-8" standalone="no"?><!DOCTYPE svg PUBLIC "-//W3C//DTD SVG 1.1//EN" "http://www.w3.org/Graphics/SVG/1.1/DTD/svg11.dtd"><svg width="100%" height="100%" viewBox="0 0 287 270" version="1.1" xmlns="http://www.w3.org/2000/svg" xmlns:xlink="http://www.w3.org/1999/xlink" xml:space="preserve" xmlns:serif="http://www.serif.com/" style="fill-rule:evenodd;clip-rule:evenodd;stroke-linejoin:round;stroke-miterlimit:2;"><g id="Africa"><path d="M140.581,0.012c64.669,0 131.216,48.55 143.19,118.034c11.98,69.49 -17.224,136.069 -113.045,149.752c-95.821,13.677 -167.955,-52.902 -169.701,-138.131c-1.752,-85.223 72.465,-129.655 139.556,-129.655Z" style="fill-opacity:0.11;fill-rule:nonzero;"/><path d="M142.712,6.748c-68.623,0 -124.257,55.631 -124.257,124.262c-0,68.622 55.634,124.244 124.257,124.244c68.623,0 124.253,-55.622 124.253,-124.244c0,-68.631 -55.63,-124.262 -124.253,-124.262" style="fill:#23c3e5;fill-rule:nonzero;"/><path d="M117.248,11.436c-0.367,0.393 -0.475,1.108 -0.019,1.797c0.415,0.627 0.829,0.627 1.5,0c0.671,-0.627 0.671,-1.125 -0,-1.752c-0.138,-0.128 -0.275,-0.217 -0.41,-0.272c-0.358,0.074 -0.715,0.15 -1.071,0.227Zm-30.096,10.84c-0.093,0.496 -0.766,1.068 -2.035,1.515c-3.616,1.276 -3.354,2.232 0.348,1.276c1.647,-0.424 3.479,-0.722 4.07,-0.65c3.988,0.486 6.147,-0.448 7.017,-3.053c0.441,-1.32 0.251,-1.801 -0.697,-1.801c-0.7,0 -1.229,-0.195 -1.645,-0.658c-2.394,1.05 -4.748,2.175 -7.058,3.371Zm25.987,-9.873c0.066,0.581 0.154,1.231 0.262,1.956c0.332,2.233 0.156,2.402 -2.437,2.477c-1.535,0.044 -3.505,0.673 -4.366,1.401c-0.86,0.727 -1.8,1.095 -2.115,0.801c-0.315,-0.295 -0.589,0.159 -0.589,1.026c-0,1.954 -1.566,3.502 -3.562,3.502c-0.832,0 -1.935,0.725 -2.437,1.602c-1.031,1.801 -5.658,4.297 -6.775,3.652c-0.404,-0.233 -0.955,0.308 -1.205,1.202c-0.363,1.294 -0.888,1.514 -2.652,1.1c-2.868,-0.673 -2.98,1.016 -0.133,2.027c2.219,0.788 4.514,4.748 4.632,8.007c0.097,2.649 -2.192,4.898 -4.472,4.403c-2.805,-0.609 -10.225,-1.036 -11.301,-0.65c-0.61,0.219 -0.812,1.769 -0.562,4.203c0.218,2.116 -0.027,4.566 -0.536,5.454c-1.307,2.283 0.546,5.822 3.054,5.83c1.036,0.003 2.252,0.621 2.704,1.376c0.682,1.138 1.154,1.205 2.812,0.451c1.103,-0.502 2.972,-1.091 4.151,-1.326c3.189,-0.637 5.373,-2.418 5.624,-4.579c0.123,-1.056 0.255,-2.181 0.294,-2.502c0.04,-0.322 1.623,-1.328 3.508,-2.227c2.535,-1.208 3.428,-2.132 3.428,-3.528c0,-2.542 2.056,-3.962 4.928,-3.427c1.382,0.257 3.039,-0.032 4.016,-0.701c2.469,-1.69 4.513,-1.411 6.241,0.9c2.324,3.114 6.973,7.055 8.622,7.281c2.231,0.306 4.589,3.44 3.964,5.279c-0.381,1.122 -0.222,1.423 0.508,1.002c0.614,-0.355 0.843,-1.493 0.563,-2.803c-0.56,-2.618 0.118,-3.539 1.714,-2.301c0.771,0.598 1.151,0.615 1.151,0.049c0,-0.463 -1.771,-1.666 -3.936,-2.677c-2.507,-1.169 -4.524,-2.856 -5.571,-4.653c-0.903,-1.553 -2.128,-3.442 -2.704,-4.204c-0.853,-1.128 -0.782,-1.646 0.402,-2.752c1.354,-1.266 1.495,-1.273 2.008,-0.025c0.302,0.736 0.862,1.164 1.232,0.95c0.37,-0.213 1.292,0.493 2.035,1.552c0.743,1.059 3.056,3.086 5.169,4.504c2.597,1.742 4.053,3.363 4.445,5.029c0.675,2.873 4.558,7.731 6.186,7.731c0.617,0 0.885,-0.378 0.59,-0.825c-0.297,-0.448 -0.962,-0.572 -1.473,-0.276c-0.569,0.329 -0.685,0.163 -0.295,-0.426c0.485,-0.733 0.934,-0.733 1.848,-0.024c1.376,1.067 0.827,2.352 -0.991,2.352c-0.679,-0 -1.232,0.54 -1.232,1.2c-0,1.519 0.416,1.499 3.026,-0.099c2.595,-1.588 2.653,-2.449 0.268,-4.254c-1.69,-1.278 -1.594,-3.859 0.107,-2.878c0.389,0.226 0.938,-0.124 1.205,-0.775c0.345,-0.84 1.423,-1.087 3.776,-0.875c2.585,0.232 3.544,-0.048 4.365,-1.276c0.694,-1.039 0.792,-1.907 0.241,-2.528c-1.224,-1.377 2.712,-8.631 5.865,-10.808c2.102,-1.453 2.905,-1.618 4.338,-0.902c1.3,0.651 1.548,1.155 0.884,1.902c-0.669,0.753 -0.396,1.292 1.125,2.052c2.628,1.314 4.691,0.318 2.49,-1.201c-1.015,-0.7 -1.257,-1.313 -0.696,-1.801c1.226,-1.067 6.502,-2.619 7.311,-2.152c0.915,0.529 0.566,2.351 -0.724,3.803c-0.875,0.985 -0.339,1.697 3.214,4.229c4.94,3.519 5.731,4.878 3.937,6.73c-1.636,1.687 -6.62,1.586 -10.926,-0.225c-3.844,-1.617 -5.563,-1.656 -8.382,-0.15c-1.178,0.629 -2.953,1.16 -3.963,1.176c-1.011,0.015 -2.077,0.594 -2.357,1.276c-0.28,0.681 -0.985,1.173 -1.58,1.1c-2.532,-0.31 -3.022,0.15 -2.758,2.653c0.151,1.431 0.339,2.691 0.428,2.802c0.089,0.11 0.209,0.522 0.268,0.925c0.125,0.86 1.296,2.053 2.116,2.153c0.314,0.037 1.258,0.349 2.115,0.7c0.882,0.361 1.945,0.285 2.437,-0.175c0.588,-0.549 1.801,-0.542 3.776,0.025c2.109,0.604 3.542,0.57 5.115,-0.101c3.099,-1.319 3.323,-0.074 1.312,7.082c-2.014,7.172 -4.05,9.263 -7.418,7.631c-1.602,-0.777 -2.783,-0.831 -4.499,-0.226c-1.883,0.664 -3.563,0.406 -8.73,-1.351c-9.455,-3.215 -9.385,-3.228 -11.97,1.952c-1.071,2.146 -3.247,1.761 -8.703,-1.552c-2.947,-1.788 -6.034,-3.252 -6.883,-3.252c-0.848,-0 -2.34,-0.735 -3.294,-1.626c-1.368,-1.279 -1.538,-1.941 -0.83,-3.178c1.087,-1.897 0.294,-5.335 -1.365,-5.93c-0.662,-0.237 -3.358,-0.056 -5.999,0.4c-2.641,0.456 -5.336,0.639 -5.999,0.401c-0.662,-0.238 -4.442,0.644 -8.408,1.951c-7.607,2.509 -10.351,2.892 -11.221,1.576c-0.908,-1.371 -1.726,-0.887 -2.732,1.602c-0.533,1.319 -2.163,3.031 -3.615,3.803c-2.41,1.282 -3.285,3.263 -2.705,6.13c0.351,1.734 -2.096,5.447 -4.284,6.505c-1.309,0.632 -3.567,3.107 -5.035,5.505c-1.468,2.397 -3.109,4.488 -3.642,4.654c-1.492,0.464 -1.871,2.811 -1.66,10.358c0.129,4.65 -0.23,7.875 -1.072,9.757c-1.16,2.595 -1.115,2.897 0.402,4.179c0.903,0.763 1.634,1.765 1.634,2.202c-0,0.436 1.38,2.346 3.053,4.253c1.672,1.907 2.925,4.018 2.785,4.679c-0.411,1.924 2.688,5.581 6.748,7.981c3.519,2.08 4.011,2.172 7.713,1.301c2.171,-0.511 4.955,-0.724 6.186,-0.475c1.28,0.258 4.248,-0.228 6.936,-1.151c2.585,-0.887 5.574,-1.627 6.641,-1.627c1.892,0 4.817,2.094 5.463,3.904c0.223,0.625 1.168,0.68 3.053,0.175c4.019,-1.077 5.363,0.688 4.821,6.33c-0.76,7.899 -0.5,9.689 1.767,11.91c1.99,1.95 3.9,5.437 3.642,6.63c-0.062,0.284 0.527,1.185 1.312,2.002c0.786,0.817 1.445,2.377 1.446,3.478c0.002,1.101 0.262,2.994 0.589,4.203c0.382,1.406 0.104,3.172 -0.776,4.904c-0.757,1.49 -1.812,4.501 -2.357,6.705c-0.875,3.544 -0.791,4.416 0.75,7.506c2.018,4.049 2.691,6.268 3.294,10.709c0.759,5.595 2.132,9.439 5.57,15.637c3.669,6.613 3.979,7.814 2.115,8.482c-2.047,0.735 2.87,4.527 5.062,3.903c0.96,-0.273 4.344,-0.788 7.525,-1.151c6.246,-0.712 8.82,-1.897 11.73,-5.404c4.431,-5.34 6.286,-8.773 6.507,-12.06c0.195,-2.891 0.694,-3.738 3.107,-5.28c2.603,-1.662 2.844,-2.157 2.625,-5.279c-0.134,-1.895 -0.618,-4.111 -1.072,-4.904c-0.649,-1.133 -0.241,-1.976 1.848,-3.928c1.462,-1.366 3.765,-3.001 5.115,-3.653c2.138,-1.033 4.28,-3.488 4.713,-5.379c0.076,-0.331 0.223,-0.871 0.321,-1.201c0.609,-2.029 -0.295,-9.576 -1.312,-10.934c-0.668,-0.892 -1.232,-2.651 -1.232,-3.904c0,-1.252 -0.332,-2.886 -0.75,-3.627c-1.5,-2.664 5.398,-13.528 11.034,-17.364c1.649,-1.123 4.105,-3.388 5.436,-5.029c3.216,-3.964 8.298,-13.766 8.623,-16.614c0.148,-1.299 0.947,-2.548 1.875,-2.927c1.979,-0.808 0.061,-0.534 -8.221,1.2c-5.266,1.104 -5.691,1.085 -7.928,-0.399c-1.301,-0.865 -2.177,-1.876 -1.928,-2.252c0.249,-0.376 0.043,-0.914 -0.455,-1.201c-0.498,-0.288 -1.851,-1.964 -3.026,-3.703c-1.175,-1.739 -2.903,-3.863 -3.83,-4.729c-0.926,-0.866 -1.687,-2.107 -1.687,-2.752c0,-0.645 -0.771,-1.556 -1.714,-2.027c-1.344,-0.672 -1.714,-1.676 -1.714,-4.654c0,-2.088 -0.514,-4.51 -1.151,-5.379c-0.637,-0.869 -1.396,-2.477 -1.687,-3.578c-0.292,-1.101 -1.898,-3.93 -3.562,-6.28c-1.665,-2.35 -3.026,-4.758 -3.026,-5.354c-0,-1.925 1.71,-2.136 2.437,-0.3c0.664,1.677 0.749,1.685 1.339,0.25c0.588,-1.433 0.72,-1.401 2.303,0.475c2.118,2.51 4.204,6.938 4.204,8.907c0,0.827 0.568,1.501 1.259,1.501c1.625,0 3.026,2.496 3.026,5.38c0,2.404 1.423,4.797 5.008,8.432c1.434,1.453 2.241,3.233 2.33,5.204c0.295,6.628 1.742,8.451 5.329,6.68c0.818,-0.404 4.365,-2.052 7.9,-3.653c3.535,-1.6 7.655,-3.564 9.159,-4.353c3.134,-1.646 9.229,-6.466 8.221,-6.506c-0.37,-0.014 0.192,-0.69 1.232,-1.501c1.04,-0.812 1.657,-1.704 1.366,-1.977c-0.291,-0.272 0.138,-1.199 0.964,-2.051c1.45,-1.497 1.389,-1.615 -1.982,-3.603c-2.035,-1.2 -3.724,-2.913 -4.044,-4.104l-0.562,-2.026l-1.285,1.726c-1.449,1.933 -6.692,4.257 -7.954,3.528c-0.451,-0.26 -0.83,-0.946 -0.83,-1.526c-0,-0.58 -0.578,-1.503 -1.285,-2.052c-0.707,-0.548 -1.278,-1.585 -1.286,-2.301c-0.009,-0.717 -1.195,-2.908 -2.624,-4.88c-2.318,-3.196 -2.453,-3.694 -1.232,-4.528c1.952,-1.334 4.585,-0.445 5.945,2.002c2.017,3.627 6.173,5.932 9.614,5.329c2.519,-0.441 3.082,-0.281 3.455,1.051c0.57,2.037 3.372,2.751 11.756,2.927c6.176,0.13 6.94,0.31 8.57,2.202c0.984,1.142 2.85,2.327 4.151,2.627c2.885,0.666 3.792,1.818 1.955,2.477c-1.053,0.378 -1.136,0.745 -0.376,1.601c1.435,1.615 3.076,1.354 3.616,-0.575c0.849,-3.034 2.329,-0.72 2.249,3.528c-0.042,2.282 0.095,4.694 0.295,5.354c0.2,0.661 0.844,2.93 1.446,5.029c0.602,2.099 1.435,3.989 1.848,4.228c0.413,0.239 0.75,1.085 0.75,1.877c-0,0.792 1.337,3.85 2.972,6.78l2.973,5.33l1.339,-1.927c1.967,-2.805 2.999,-6.75 2.999,-11.484c0,-3.517 0.306,-4.321 1.928,-5.129c0.256,-0.127 0.583,-0.334 0.966,-0.604c-8.391,-58.28 -59.024,-103.086 -120.231,-103.086c-1.338,-0 -2.671,0.021 -3.999,0.064c0.019,0.129 0.044,0.26 0.075,0.393c0.4,1.703 -0.026,2.473 -2.169,3.953c-2.126,1.469 -2.883,1.627 -3.883,0.851c-0.999,-0.774 -2.111,-0.538 -5.597,1.151c-4.149,2.011 -4.384,2.038 -4.794,0.576c-0.371,-1.326 -0.759,-1.438 -2.946,-0.726c-2.063,0.672 -2.84,0.576 -4.23,-0.6c-0.817,-0.69 -1.293,-1.562 -1.272,-2.259c-0.477,0.115 -0.952,0.232 -1.427,0.353Zm107.434,25.575c1.098,0 0.876,3.561 -0.295,4.654c-1.392,1.301 -2.115,1.189 -2.757,-0.375c-0.53,-1.29 1.601,-4.279 3.052,-4.279Zm-17.25,-2.026c1.393,0.002 1.686,0.419 1.686,1.851c0,1.367 -0.377,1.807 -1.231,1.501c-0.672,-0.241 -1.659,0.091 -2.223,0.726c-0.563,0.634 -0.753,1.151 -0.402,1.151c0.351,-0 0.209,0.48 -0.321,1.076c-0.739,0.832 -0.479,1.562 1.098,3.152c1.129,1.138 1.851,2.274 1.607,2.502c-0.244,0.229 -0.194,1.062 0.134,1.852c0.553,1.334 0.677,1.322 1.66,0.075c0.979,-1.242 1.135,-1.227 2.089,0.2c0.885,1.324 0.792,1.551 -0.643,1.551c-2.316,0 -2.979,1.333 -1.151,2.327c0.835,0.454 1.281,0.837 0.99,0.851c-0.289,0.013 -0.23,1.45 0.107,3.177c0.542,2.766 0.381,3.181 -1.204,3.578c-3.323,0.833 -5.374,0.492 -6.99,-1.176c-1.519,-1.569 -1.527,-1.842 -0.214,-5.254c1.151,-2.989 1.183,-3.68 0.214,-4.028c-1.592,-0.571 -4.843,-8.904 -4.205,-10.784c0.618,-1.819 5.061,-4.112 8.329,-4.304c0.246,-0.014 0.47,-0.025 0.67,-0.024Zm2.829,127.253c-0.123,0.018 -0.263,0.061 -0.375,0.125c-0.446,0.258 -0.571,0.81 -0.294,1.227c0.275,0.417 0.865,0.532 1.312,0.275c0.446,-0.258 0.57,-0.809 0.294,-1.226c-0.207,-0.313 -0.57,-0.453 -0.937,-0.401Zm-28.28,0.801c-0.123,0.018 -0.263,0.061 -0.374,0.125c-0.447,0.258 -0.571,0.809 -0.295,1.226c0.275,0.417 0.865,0.533 1.312,0.275c0.446,-0.257 0.57,-0.808 0.294,-1.225c-0.207,-0.313 -0.569,-0.453 -0.937,-0.401Zm0.856,4.003c-0.122,0.018 -0.264,0.061 -0.375,0.126c-0.447,0.258 -0.571,0.809 -0.295,1.226c0.277,0.417 0.866,0.533 1.313,0.275c0.446,-0.257 0.571,-0.809 0.294,-1.226c-0.207,-0.313 -0.57,-0.453 -0.937,-0.401Zm5.14,8.808c-0.122,0.018 -0.263,0.061 -0.374,0.125c-0.447,0.258 -0.571,0.808 -0.295,1.226c0.276,0.417 0.866,0.533 1.312,0.275c0.446,-0.258 0.57,-0.809 0.295,-1.226c-0.207,-0.313 -0.57,-0.453 -0.938,-0.4Zm2.571,1.601c-0.122,0.017 -0.263,0.06 -0.374,0.125c-0.447,0.258 -0.571,0.809 -0.295,1.226c0.275,0.418 0.866,0.533 1.312,0.276c0.446,-0.258 0.57,-0.81 0.294,-1.227c-0.207,-0.313 -0.569,-0.453 -0.937,-0.4Zm10.444,0.751c-0.266,0.04 -0.455,0.374 -0.455,0.9c-0,2.168 -2.623,5.178 -5.731,6.555c-3.433,1.523 -4.816,4.193 -4.071,7.907c0.361,1.796 0.09,3.252 -0.91,4.679c-1.487,2.12 -1.366,4.147 0.562,8.707c0.783,1.85 1.284,2.111 3.187,1.677c1.241,-0.284 2.537,-0.919 2.893,-1.401c0.783,-1.065 1.734,-4.426 3.641,-12.886c0.795,-3.523 1.778,-6.996 2.169,-7.707c0.832,-1.51 0.092,-7.757 -0.99,-8.382c-0.102,-0.058 -0.206,-0.063 -0.295,-0.049Zm-7.873,1.651c-0.123,0.018 -0.264,0.061 -0.376,0.125c-0.446,0.258 -0.57,0.809 -0.294,1.226c0.276,0.417 0.866,0.533 1.313,0.275c0.446,-0.258 0.57,-0.808 0.294,-1.226c-0.207,-0.312 -0.57,-0.452 -0.937,-0.4Zm18.852,6.405c-0.123,0.018 -0.264,0.061 -0.375,0.125c-0.447,0.258 -0.571,0.81 -0.295,1.226c0.276,0.418 0.866,0.533 1.312,0.276c0.446,-0.258 0.571,-0.809 0.295,-1.226c-0.207,-0.313 -0.57,-0.454 -0.937,-0.401Zm6,10.409c-0.123,0.017 -0.263,0.06 -0.375,0.125c-0.446,0.257 -0.57,0.809 -0.294,1.226c0.275,0.417 0.865,0.533 1.312,0.275c0.446,-0.258 0.57,-0.809 0.294,-1.226c-0.207,-0.313 -0.569,-0.452 -0.937,-0.4Zm-3.429,0.801c-0.123,0.017 -0.264,0.06 -0.375,0.125c-0.447,0.257 -0.571,0.809 -0.295,1.225c0.276,0.418 0.866,0.533 1.313,0.276c0.445,-0.258 0.57,-0.809 0.294,-1.226c-0.207,-0.313 -0.57,-0.453 -0.937,-0.4Zm-100.263,-56.847c-0.123,0.018 -0.264,0.061 -0.375,0.125c-0.447,0.258 -0.571,0.809 -0.295,1.226c0.276,0.417 0.866,0.533 1.313,0.275c0.446,-0.258 0.57,-0.808 0.294,-1.226c-0.207,-0.313 -0.57,-0.452 -0.937,-0.4Zm-1.714,3.203c-0.123,0.017 -0.264,0.06 -0.375,0.125c-0.447,0.258 -0.571,0.808 -0.295,1.226c0.276,0.417 0.866,0.533 1.313,0.275c0.446,-0.258 0.57,-0.809 0.294,-1.226c-0.207,-0.313 -0.57,-0.453 -0.937,-0.4Zm-2.571,3.202c-0.122,0.018 -0.264,0.061 -0.375,0.125c-0.447,0.258 -0.571,0.809 -0.295,1.226c0.276,0.417 0.866,0.533 1.313,0.275c0.446,-0.257 0.57,-0.809 0.294,-1.225c-0.207,-0.313 -0.57,-0.454 -0.937,-0.401Zm-1.713,5.605c-0.123,0.017 -0.263,0.061 -0.375,0.125c-0.446,0.258 -0.57,0.808 -0.294,1.226c0.275,0.417 0.865,0.533 1.312,0.275c0.446,-0.258 0.57,-0.808 0.295,-1.226c-0.208,-0.313 -0.57,-0.453 -0.938,-0.4Zm106.264,5.604c-0.123,0.018 -0.263,0.061 -0.375,0.125c-0.446,0.258 -0.57,0.81 -0.294,1.226c0.275,0.418 0.865,0.533 1.311,0.276c0.447,-0.258 0.571,-0.809 0.295,-1.226c-0.207,-0.313 -0.569,-0.454 -0.937,-0.401Zm-31.709,1.602c-0.123,0.017 -0.263,0.06 -0.375,0.125c-0.446,0.258 -0.57,0.808 -0.294,1.226c0.275,0.417 0.865,0.533 1.312,0.275c0.446,-0.258 0.57,-0.809 0.294,-1.226c-0.207,-0.313 -0.569,-0.453 -0.937,-0.4Zm67.695,-20.818c-0.123,0.018 -0.264,0.061 -0.375,0.126c-0.447,0.258 -0.571,0.809 -0.295,1.226c0.276,0.417 0.866,0.533 1.313,0.275c0.446,-0.258 0.57,-0.809 0.294,-1.226c-0.207,-0.313 -0.57,-0.453 -0.937,-0.401Zm-0.004,-6.404c-0.123,0.017 -0.263,0.06 -0.375,0.125c-0.446,0.257 -0.57,0.808 -0.294,1.226c0.275,0.417 0.865,0.533 1.312,0.275c0.446,-0.258 0.57,-0.809 0.294,-1.227c-0.207,-0.312 -0.569,-0.452 -0.937,-0.399Zm-40.265,-12.811c-0.122,0.018 -0.263,0.061 -0.374,0.125c-0.447,0.258 -0.571,0.809 -0.295,1.226c0.276,0.417 0.866,0.533 1.312,0.275c0.446,-0.257 0.57,-0.808 0.295,-1.226c-0.207,-0.312 -0.57,-0.453 -0.938,-0.4Zm56.04,8.782c-0.61,-0.036 -1.121,0.638 -1.339,2.027c-0.528,3.365 0.76,4.779 3.08,3.403c0.839,-0.497 0.855,-1.224 0.107,-3.228c-0.535,-1.433 -1.237,-2.166 -1.848,-2.202Zm-15.773,0.826c-0.122,0.017 -0.263,0.06 -0.374,0.125c-0.447,0.257 -0.571,0.809 -0.295,1.226c0.276,0.417 0.866,0.533 1.312,0.275c0.446,-0.258 0.57,-0.809 0.295,-1.226c-0.207,-0.313 -0.57,-0.453 -0.938,-0.4Zm0.861,6.405c-0.123,0.018 -0.263,0.061 -0.375,0.125c-0.446,0.258 -0.571,0.809 -0.294,1.226c0.275,0.417 0.865,0.533 1.312,0.275c0.446,-0.257 0.57,-0.808 0.294,-1.226c-0.206,-0.312 -0.57,-0.452 -0.937,-0.4Zm-191.071,-51.242c-0.123,0.018 -0.263,0.061 -0.376,0.125c-0.446,0.258 -0.57,0.809 -0.294,1.227c0.276,0.416 0.866,0.532 1.312,0.274c0.447,-0.257 0.571,-0.808 0.295,-1.226c-0.207,-0.312 -0.57,-0.452 -0.937,-0.4Zm3.421,-1.601c-0.122,0.017 -0.263,0.06 -0.374,0.125c-0.447,0.258 -0.571,0.809 -0.295,1.226c0.276,0.417 0.866,0.533 1.312,0.275c0.446,-0.257 0.57,-0.809 0.295,-1.226c-0.207,-0.313 -0.57,-0.453 -0.938,-0.4Zm148.258,4.804c-0.123,0.017 -0.264,0.061 -0.375,0.125c-0.447,0.258 -0.571,0.809 -0.295,1.226c0.276,0.417 0.866,0.533 1.313,0.275c0.446,-0.257 0.57,-0.809 0.294,-1.226c-0.207,-0.312 -0.57,-0.453 -0.937,-0.4Zm-161.978,26.421c-0.122,0.018 -0.264,0.061 -0.375,0.125c-0.447,0.258 -0.571,0.809 -0.295,1.226c0.277,0.418 0.866,0.533 1.313,0.276c0.446,-0.258 0.571,-0.81 0.294,-1.226c-0.207,-0.313 -0.57,-0.453 -0.937,-0.401Zm0.003,-3.203c-0.123,0.018 -0.264,0.061 -0.376,0.125c-0.446,0.258 -0.57,0.81 -0.294,1.227c0.276,0.417 0.866,0.532 1.312,0.275c0.447,-0.258 0.571,-0.809 0.295,-1.226c-0.207,-0.313 -0.57,-0.453 -0.937,-0.401Zm-3.431,3.203c-0.122,0.018 -0.263,0.061 -0.375,0.125c-0.446,0.258 -0.57,0.809 -0.295,1.226c0.277,0.418 0.867,0.533 1.313,0.276c0.446,-0.258 0.571,-0.81 0.294,-1.226c-0.207,-0.313 -0.569,-0.453 -0.937,-0.401Zm120.809,-50.641c-0.39,-0.002 -0.782,0.067 -1.098,0.25c-0.502,0.289 -0.701,0.866 -0.429,1.276c0.654,0.989 2.731,0.962 3.401,-0.051c0.488,-0.737 -0.707,-1.468 -1.874,-1.475Zm-17.97,-2.202c-0.122,0.018 -0.263,0.061 -0.375,0.125c-0.446,0.258 -0.57,0.809 -0.295,1.226c0.277,0.417 0.867,0.533 1.313,0.275c0.446,-0.258 0.571,-0.808 0.294,-1.226c-0.207,-0.312 -0.569,-0.453 -0.937,-0.4Zm-47.989,-6.405c-0.122,0.017 -0.263,0.06 -0.374,0.125c-0.447,0.257 -0.571,0.809 -0.295,1.225c0.276,0.418 0.865,0.534 1.312,0.276c0.446,-0.258 0.57,-0.809 0.295,-1.226c-0.207,-0.313 -0.57,-0.453 -0.938,-0.4Zm-33.42,27.222c-0.123,0.017 -0.263,0.061 -0.375,0.125c-0.446,0.258 -0.571,0.809 -0.294,1.226c0.275,0.418 0.865,0.533 1.312,0.276c0.446,-0.258 0.57,-0.81 0.294,-1.227c-0.207,-0.313 -0.57,-0.452 -0.937,-0.4Zm54.844,-21.618c-0.122,0.018 -0.264,0.061 -0.375,0.125c-0.447,0.258 -0.57,0.809 -0.295,1.226c0.277,0.417 0.867,0.533 1.313,0.275c0.446,-0.257 0.571,-0.808 0.294,-1.225c-0.207,-0.313 -0.57,-0.453 -0.937,-0.401Zm-60.846,11.209c-0.123,0.018 -0.263,0.061 -0.375,0.125c-0.446,0.258 -0.571,0.81 -0.294,1.226c0.275,0.418 0.865,0.533 1.312,0.276c0.446,-0.258 0.57,-0.809 0.294,-1.226c-0.207,-0.313 -0.57,-0.453 -0.937,-0.401Zm91.696,-11.209c-0.122,0.018 -0.264,0.061 -0.375,0.125c-0.447,0.258 -0.571,0.809 -0.295,1.226c0.277,0.417 0.866,0.533 1.313,0.275c0.446,-0.257 0.57,-0.808 0.294,-1.225c-0.207,-0.313 -0.57,-0.453 -0.937,-0.401Zm-93.407,20.818c-0.123,0.017 -0.263,0.06 -0.375,0.125c-0.446,0.257 -0.571,0.808 -0.295,1.226c0.276,0.417 0.866,0.533 1.313,0.275c0.446,-0.258 0.57,-0.809 0.294,-1.226c-0.206,-0.313 -0.57,-0.453 -0.937,-0.4Zm66.841,-17.615c-0.122,0.017 -0.263,0.06 -0.375,0.125c-0.446,0.258 -0.57,0.809 -0.294,1.226c0.276,0.417 0.865,0.533 1.312,0.275c0.447,-0.258 0.571,-0.809 0.295,-1.226c-0.207,-0.313 -0.57,-0.453 -0.938,-0.4Zm-3.427,0.8c-0.123,0.018 -0.264,0.061 -0.376,0.125c-0.446,0.258 -0.57,0.809 -0.294,1.227c0.276,0.416 0.866,0.532 1.313,0.274c0.446,-0.257 0.57,-0.808 0.294,-1.225c-0.207,-0.313 -0.57,-0.453 -0.937,-0.401Zm17.139,-6.405c-0.123,0.018 -0.263,0.061 -0.375,0.126c-0.446,0.257 -0.57,0.808 -0.294,1.225c0.275,0.418 0.865,0.534 1.311,0.276c0.447,-0.259 0.571,-0.809 0.295,-1.227c-0.207,-0.313 -0.569,-0.452 -0.937,-0.4Zm-23.998,-12.76c-0.793,0.024 -1.338,1.091 -0.669,2.102c0.414,0.627 0.829,0.627 1.5,-0c0.67,-0.627 0.67,-1.125 -0,-1.752c-0.285,-0.265 -0.566,-0.358 -0.831,-0.35Zm-0.104,5.43c-0.543,0.031 -1.044,0.6 -1.044,1.701c-0,1.516 0.354,1.929 1.339,1.576c0.73,-0.262 1.212,-1.023 1.071,-1.701c-0.226,-1.088 -0.823,-1.609 -1.366,-1.576Zm10.953,7.005c-3.045,0 -3.337,1.013 -0.643,2.227c2.778,1.252 3.214,1.165 3.214,-0.625c0,-1.246 -0.571,-1.602 -2.571,-1.602Zm22.361,7.306c-0.298,0.011 -0.554,0.092 -0.697,0.225c-0.284,0.266 0.221,0.435 1.125,0.4c0.998,-0.038 1.192,-0.219 0.509,-0.475c-0.309,-0.116 -0.64,-0.162 -0.937,-0.15Zm-42.446,-13.336c-0.108,-0.005 -0.21,0.003 -0.321,0.025c-0.148,0.031 -0.289,0.093 -0.428,0.175c-0.557,0.331 -1.307,0.619 -1.661,0.626c-0.354,0.006 -0.643,0.27 -0.643,0.6l0,1.051c0,0.246 0.483,0.15 1.072,-0.2c0.589,-0.35 1.36,-0.664 1.714,-0.726c0.353,-0.061 0.861,-0.17 1.124,-0.225c0.263,-0.055 0.243,-0.478 -0.053,-0.926c-0.167,-0.251 -0.477,-0.386 -0.804,-0.4Zm-62.747,58.398c-0.123,0.017 -0.264,0.06 -0.375,0.125c-0.447,0.258 -0.571,0.809 -0.295,1.226c0.276,0.417 0.866,0.533 1.313,0.275c0.446,-0.258 0.57,-0.809 0.294,-1.226c-0.207,-0.313 -0.57,-0.453 -0.937,-0.4Zm83.982,-99.281c-0.122,0.017 -0.263,0.06 -0.375,0.125c-0.446,0.258 -0.57,0.809 -0.294,1.226c0.275,0.417 0.866,0.533 1.312,0.275c0.446,-0.258 0.57,-0.809 0.294,-1.226c-0.207,-0.313 -0.569,-0.453 -0.937,-0.4Zm-6.435,-0.673c-0.143,-0.059 -0.284,-0.082 -0.42,-0.078c-0.253,0.008 -0.48,0.121 -0.651,0.305c0.356,-0.077 0.713,-0.153 1.071,-0.227Z" style="fill:#2d8a06;"/><path d="M140.53,18.013c-49.137,-0 -99.699,36.888 -108.797,89.683c-9.103,52.799 13.087,103.387 85.893,113.783c72.805,10.392 127.613,-40.196 128.94,-104.953c1.331,-64.754 -55.06,-98.513 -106.036,-98.513Z" style="fill:#fff;fill-opacity:0.11;fill-rule:nonzero;"/><path d="M146.35,23.262c-42.151,3.836 -76.208,22.57 -82.28,59.384c-6.072,36.81 24.438,81.429 79.75,72.256c55.317,-9.168 68.33,-44.941 67.751,-74.666c-0.579,-29.721 -22.991,-50.211 -65.221,-56.974Z" style="fill:#fff;fill-opacity:0.1;fill-rule:nonzero;"/></g></svg>