<?xml version="1.0" encoding="UTF-8" standalone="no"?><!DOCTYPE svg PUBLIC "-//W3C//DTD SVG 1.1//EN" "http://www.w3.org/Graphics/SVG/1.1/DTD/svg11.dtd"><svg width="100%" height="100%" viewBox="0 0 286 271" version="1.1" xmlns="http://www.w3.org/2000/svg" xmlns:xlink="http://www.w3.org/1999/xlink" xml:space="preserve" xmlns:serif="http://www.serif.com/" style="fill-rule:evenodd;clip-rule:evenodd;stroke-linejoin:round;stroke-miterlimit:2;"><g id="Asia"><path d="M146.085,0.671c-64.67,0 -131.217,48.55 -143.191,118.034c-11.979,69.49 17.224,136.069 113.045,149.752c95.822,13.677 167.955,-52.902 169.702,-138.131c1.751,-85.223 -72.466,-129.655 -139.556,-129.655Z" style="fill-opacity:0.11;fill-rule:nonzero;"/><path d="M146.983,9.302c-68.622,-0 -124.257,55.63 -124.257,124.261c0,68.623 55.635,124.245 124.257,124.245c68.623,0 124.254,-55.622 124.254,-124.245c-0,-68.631 -55.631,-124.261 -124.254,-124.261" style="fill:#23c3e5;fill-rule:nonzero;"/><path d="M253.552,126.1c-0.799,0.024 -1.349,1.112 -0.675,2.142c0.418,0.639 0.836,0.639 1.513,0c0.676,-0.638 0.676,-1.146 -0,-1.785c-0.287,-0.271 -0.571,-0.366 -0.838,-0.357Zm-26.167,-10.993c-0.556,-0 -0.798,0.32 -0.54,0.714c0.258,0.394 -0.166,1.891 -0.919,3.316c-1.157,2.191 -1.182,2.986 -0.242,5.127c0.651,1.485 1.033,5.12 0.917,8.799c-0.162,5.183 0.033,6.248 1.135,6.248c0.734,-0 1.324,-0.448 1.324,-1.02c0,-0.573 -0.389,-1.279 -0.864,-1.556c-0.963,-0.562 -1.186,-4.721 -0.298,-5.56c0.313,-0.296 1.091,-0.143 1.729,0.357c1.254,0.983 1.618,-0.106 0.46,-1.377c-1.406,-1.542 -2.843,-9.232 -2.27,-12.116c0.401,-2.017 0.262,-2.932 -0.432,-2.932Zm8.025,28.081c-0.124,0.018 -0.266,0.062 -0.378,0.128c-0.451,0.262 -0.576,0.824 -0.298,1.249c0.278,0.426 0.874,0.544 1.324,0.281c0.45,-0.263 0.575,-0.824 0.297,-1.25c-0.208,-0.319 -0.575,-0.461 -0.945,-0.408Zm11.225,-7.345c-0.124,0.018 -0.266,0.061 -0.378,0.128c-0.45,0.262 -0.576,0.824 -0.297,1.249c0.278,0.425 0.873,0.544 1.324,0.281c0.449,-0.263 0.575,-0.825 0.297,-1.25c-0.21,-0.319 -0.575,-0.462 -0.946,-0.408Zm-5.178,3.265c-0.123,0.018 -0.265,0.061 -0.378,0.127c-0.45,0.263 -0.575,0.824 -0.297,1.25c0.278,0.425 0.873,0.543 1.323,0.28c0.451,-0.262 0.576,-0.825 0.298,-1.249c-0.209,-0.319 -0.575,-0.462 -0.946,-0.408Zm-16.718,2.626l0,0.051c-0.574,0.201 -0.864,1.12 -0.864,2.755c-0,1.545 -0.441,2.398 -1.243,2.398c-1.868,-0 -2.328,1.246 -1.35,3.672c0.838,2.083 3.274,2.486 2.782,0.459c-0.15,-0.617 0.378,-0.817 1.405,-0.51c0.951,0.285 2.09,-0.014 2.728,-0.739c0.601,-0.684 1.604,-1.251 2.242,-1.251c1.461,0 3.245,-2.989 2.161,-3.621c-0.433,-0.253 -1.339,-0.265 -1.999,-0.026c-0.66,0.24 -2.098,-0.485 -3.214,-1.606c-1.171,-1.177 -2.019,-1.683 -2.594,-1.531l-0.054,-0.051Zm27.079,-11.605c-0.123,0.018 -0.265,0.062 -0.378,0.128c-0.45,0.263 -0.575,0.825 -0.298,1.25c0.279,0.425 0.874,0.544 1.324,0.28c0.451,-0.263 0.576,-0.824 0.298,-1.249c-0.209,-0.319 -0.575,-0.462 -0.946,-0.409Zm-29.297,23.694c-1.003,0.039 -1.762,0.776 -1.918,2.092c-0.572,4.822 -1.062,5.89 -2.296,4.922c-0.749,-0.586 -1.398,-0.633 -1.729,-0.127c-0.288,0.44 -0.101,1.056 0.405,1.352c0.639,0.372 0.601,0.876 -0.108,1.683c-0.767,0.873 -1.311,0.942 -2.188,0.255c-0.911,-0.714 -1.34,-0.474 -1.972,1.097c-0.633,1.572 -1.599,2.112 -4.457,2.474c-2.406,0.305 -4.398,1.193 -5.781,2.601c-1.537,1.565 -2.396,1.922 -3.187,1.301c-1.945,-1.524 -2.207,0.111 -0.406,2.499c0.967,1.282 1.499,2.715 1.189,3.189c-0.31,0.473 -0.347,1.414 -0.082,2.066c0.848,2.084 2.374,1.267 3.728,-1.99c0.959,-2.303 1.731,-3.072 2.81,-2.805c0.816,0.201 1.978,-0.193 2.593,-0.893c0.949,-1.079 0.815,-1.411 -0.918,-2.066c-2.022,-0.764 -2.029,-0.765 -0.135,-0.816c1.124,-0.03 2.322,0.685 2.917,1.735c0.998,1.76 1.058,1.762 2.431,0.203c0.95,-1.077 2.483,-1.596 4.836,-1.606l3.458,-0l1.296,-5.025c0.714,-2.765 1.589,-5.305 1.945,-5.636c1.043,-0.97 0.746,-4.959 -0.432,-5.79c-0.716,-0.504 -1.398,-0.737 -1.999,-0.715Zm26.704,-21.245c-0.124,0.018 -0.266,0.062 -0.379,0.128c-0.45,0.262 -0.575,0.824 -0.296,1.249c0.278,0.426 0.873,0.544 1.323,0.281c0.45,-0.263 0.576,-0.824 0.297,-1.25c-0.209,-0.319 -0.574,-0.462 -0.945,-0.408Zm-56.175,40.808c-0.124,0.018 -0.266,0.062 -0.378,0.128c-0.451,0.263 -0.576,0.824 -0.298,1.249c0.278,0.425 0.873,0.544 1.324,0.281c0.45,-0.263 0.575,-0.825 0.297,-1.25c-0.208,-0.319 -0.575,-0.462 -0.945,-0.408Zm45.493,-31.958c-0.913,0.035 -1.722,0.747 -1.242,1.479c0.273,0.419 0.85,0.766 1.269,0.766c1.211,-0 1.858,-1.477 0.891,-2.04c-0.287,-0.169 -0.614,-0.216 -0.918,-0.205Zm-4,5.025c-0.124,0.018 -0.266,0.061 -0.378,0.128c-0.451,0.262 -0.576,0.824 -0.297,1.249c0.278,0.425 0.873,0.544 1.324,0.281c0.449,-0.263 0.575,-0.825 0.297,-1.25c-0.21,-0.319 -0.575,-0.462 -0.946,-0.408Zm-35.439,39.992c-0.124,0.017 -0.266,0.061 -0.378,0.128c-0.451,0.262 -0.576,0.824 -0.297,1.249c0.277,0.426 0.873,0.544 1.323,0.281c0.45,-0.263 0.576,-0.825 0.297,-1.25c-0.209,-0.319 -0.574,-0.462 -0.945,-0.408Zm-3.288,3.443c-1.133,0.013 -2.45,1.703 -1.729,2.806c0.432,0.659 1.025,0.537 1.999,-0.383c0.959,-0.906 1.093,-1.544 0.46,-2.142c-0.216,-0.204 -0.468,-0.284 -0.73,-0.281Zm0.693,-14.054c-0.124,0.018 -0.266,0.062 -0.378,0.128c-0.451,0.263 -0.576,0.825 -0.297,1.249c0.278,0.426 0.873,0.544 1.323,0.281c0.45,-0.263 0.576,-0.824 0.298,-1.249c-0.21,-0.319 -0.575,-0.462 -0.946,-0.409Zm-6.046,18.772c-0.124,0.018 -0.266,0.062 -0.378,0.128c-0.451,0.263 -0.576,0.825 -0.298,1.25c0.279,0.425 0.873,0.543 1.324,0.28c0.451,-0.263 0.575,-0.824 0.297,-1.249c-0.208,-0.319 -0.575,-0.462 -0.945,-0.409Zm-8.832,0.995c-0.149,0.03 -0.364,0.156 -0.621,0.357c-1.249,0.978 -1.684,4.965 -0.649,5.943c0.794,0.749 0.867,0.587 1.405,-3.393c0.301,-2.217 0.313,-2.995 -0.135,-2.907Zm-24.59,11.758c-0.668,0.065 -1.476,0.495 -1.783,1.25c-0.363,0.895 -0.084,1.203 0.919,1.02c0.791,-0.145 1.585,-0.714 1.782,-1.276c0.265,-0.75 -0.25,-1.059 -0.918,-0.994Zm29.966,-11.936c-0.123,0.018 -0.266,0.062 -0.378,0.127c-0.451,0.263 -0.576,0.825 -0.297,1.25c0.278,0.425 0.873,0.543 1.323,0.28c0.451,-0.262 0.575,-0.824 0.298,-1.249c-0.209,-0.319 -0.576,-0.462 -0.946,-0.408Zm-5.572,15.455c-1.295,0.063 -1.58,0.801 -2.027,3.98c-0.63,4.492 0.106,5.893 3.432,6.682c2.203,0.522 5.115,4.702 4.052,5.815c-0.338,0.353 -0.116,0.378 0.485,0.051c0.603,-0.328 0.824,-1.026 0.487,-1.556l-0.027,-0c-0.349,-0.549 0.031,-0.485 0.864,0.153c3.024,2.316 1.299,-0.126 -2.863,-4.055c-4.719,-4.456 -4.949,-4.946 -3.026,-6.453c2.112,-1.655 1.652,-4.46 -0.756,-4.591c-0.23,-0.013 -0.436,-0.034 -0.621,-0.026Zm-54.096,36.779c-0.123,0.018 -0.265,0.062 -0.378,0.127c-0.45,0.263 -0.575,0.825 -0.297,1.25c0.278,0.425 0.873,0.544 1.323,0.281c0.451,-0.263 0.576,-0.824 0.298,-1.25c-0.209,-0.319 -0.575,-0.462 -0.946,-0.408Zm16.418,-17.139c-0.124,0.018 -0.266,0.062 -0.378,0.127c-0.451,0.263 -0.576,0.825 -0.297,1.25c0.278,0.425 0.873,0.543 1.323,0.28c0.45,-0.262 0.576,-0.824 0.297,-1.249c-0.209,-0.319 -0.574,-0.462 -0.945,-0.408Zm9.509,14.69c-0.123,0.018 -0.266,0.062 -0.378,0.128c-0.451,0.263 -0.576,0.825 -0.298,1.25c0.279,0.425 0.874,0.543 1.324,0.28c0.451,-0.263 0.576,-0.824 0.297,-1.25c-0.208,-0.318 -0.575,-0.461 -0.945,-0.408Zm26.796,-4.897c-0.123,0.018 -0.266,0.062 -0.378,0.128c-0.451,0.263 -0.576,0.825 -0.297,1.249c0.278,0.426 0.873,0.544 1.324,0.281c0.449,-0.263 0.575,-0.824 0.297,-1.249c-0.209,-0.319 -0.575,-0.462 -0.946,-0.409Zm-49.267,11.427c-0.124,0.018 -0.266,0.062 -0.378,0.127c-0.451,0.263 -0.576,0.825 -0.298,1.25c0.279,0.425 0.874,0.543 1.324,0.28c0.451,-0.262 0.576,-0.824 0.297,-1.249c-0.208,-0.319 -0.575,-0.462 -0.945,-0.408Zm-35.961,-17.981c-0.616,-0.037 -1.131,0.65 -1.351,2.066c-0.532,3.43 0.766,4.871 3.107,3.468c0.846,-0.506 0.862,-1.247 0.108,-3.29c-0.54,-1.461 -1.248,-2.207 -1.864,-2.244Zm96.115,-0.179c-0.523,-0.01 -1.35,0.354 -2.755,1.046c-1.725,0.85 -2.384,0.909 -2.404,0.204c-0.032,-1.117 -2.567,1.806 -2.567,2.958c0,0.419 0.578,0.313 1.27,-0.229c1.425,-1.116 3.053,-0.489 3.053,1.173c-0,1.662 1.875,1.929 3.43,0.484c0.818,-0.758 1.228,-2.183 1.027,-3.519c-0.219,-1.454 -0.381,-2.103 -1.054,-2.117Zm0.351,-3.877c-0.123,0.018 -0.265,0.062 -0.378,0.128c-0.45,0.263 -0.575,0.825 -0.297,1.249c0.279,0.426 0.873,0.544 1.324,0.281c0.45,-0.263 0.575,-0.824 0.297,-1.249c-0.209,-0.319 -0.575,-0.462 -0.946,-0.409Zm-68.293,8.978c-0.123,0.018 -0.266,0.062 -0.378,0.128c-0.451,0.263 -0.576,0.824 -0.297,1.25c0.278,0.425 0.873,0.543 1.323,0.28c0.451,-0.262 0.576,-0.825 0.298,-1.25c-0.209,-0.319 -0.575,-0.461 -0.946,-0.408Zm53.463,-9.309c-0.645,-0 -2.755,3.48 -2.755,4.539c-0,1.034 0.964,0.093 2.161,-2.091c0.737,-1.346 1.005,-2.448 0.594,-2.448Zm12.253,-9.462c-0.124,0.017 -0.266,0.062 -0.378,0.127c-0.451,0.263 -0.576,0.824 -0.297,1.25c0.277,0.425 0.873,0.543 1.323,0.28c0.45,-0.262 0.575,-0.824 0.298,-1.249c-0.209,-0.319 -0.576,-0.462 -0.946,-0.408Zm-10.385,5.713c-0.124,0.018 -0.266,0.062 -0.379,0.127c-0.449,0.263 -0.575,0.824 -0.296,1.25c0.278,0.425 0.873,0.543 1.323,0.281c0.45,-0.263 0.576,-0.825 0.297,-1.25c-0.209,-0.319 -0.574,-0.462 -0.945,-0.408Zm-57.917,1.632c-0.124,0.018 -0.266,0.062 -0.378,0.128c-0.451,0.262 -0.576,0.824 -0.298,1.249c0.278,0.426 0.874,0.544 1.324,0.281c0.45,-0.263 0.575,-0.825 0.297,-1.25c-0.209,-0.319 -0.575,-0.462 -0.945,-0.408Zm60.517,-4.03c-0.8,0.025 -1.35,1.112 -0.675,2.142c0.418,0.639 0.835,0.639 1.512,0c0.677,-0.638 0.677,-1.146 0,-1.785c-0.286,-0.27 -0.57,-0.365 -0.837,-0.357Zm-60.513,0.765c-0.123,0.018 -0.266,0.062 -0.378,0.128c-0.451,0.262 -0.576,0.825 -0.297,1.249c0.278,0.426 0.873,0.544 1.324,0.281c0.449,-0.263 0.575,-0.824 0.297,-1.25c-0.209,-0.318 -0.575,-0.461 -0.946,-0.408Zm63.1,3.265c-0.124,0.018 -0.266,0.062 -0.379,0.128c-0.45,0.262 -0.575,0.824 -0.297,1.249c0.279,0.426 0.874,0.544 1.324,0.281c0.45,-0.263 0.576,-0.825 0.297,-1.25c-0.209,-0.319 -0.574,-0.462 -0.945,-0.408Zm-105.158,7.607c-0.301,0.291 -0.357,0.753 -0.119,1.116c0.278,0.425 0.873,0.543 1.323,0.28c0.153,-0.089 0.268,-0.212 0.343,-0.353c-0.518,-0.344 -1.034,-0.691 -1.547,-1.043Zm95.835,18.48c0.482,-0.677 0.966,-1.118 1.295,-1.118c0.762,0 0.758,-0.305 -0.027,-1.198c-0.575,-0.654 -0.814,-1.521 -0.54,-1.939c0.273,-0.417 -0.346,-0.969 -1.378,-1.224c-1.854,-0.457 -1.852,-0.496 0.513,-2.729l2.404,-2.244l-2.215,-1.785l-2.188,-1.786l-4.727,4.412c-2.595,2.43 -5.272,4.413 -5.97,4.413c-0.699,-0 -1.464,0.696 -1.702,1.555c-0.239,0.862 -1.358,1.686 -2.486,1.837c-1.701,0.227 -2.012,0.674 -1.783,2.678c0.053,0.462 0.234,1.075 0.502,1.755c6.24,-0.42 12.352,-1.307 18.302,-2.627Zm36.381,-14.528c-0.015,-0.045 -0.031,-0.09 -0.049,-0.133c-0.261,-0.644 -0.509,-0.945 -0.837,-0.918c-0.196,0.017 -0.416,0.164 -0.676,0.408c-0.428,0.405 -0.621,1.166 -0.502,1.856c0.692,-0.398 1.38,-0.802 2.064,-1.213Zm54.762,-138.865c-0.605,0.544 -1.23,1.134 -1.84,1.743c-2.439,2.436 -4.889,4.439 -5.43,4.439c-0.542,-0 -1.643,1.068 -2.459,2.372c-1.719,2.747 -1.843,8.701 -0.296,13.542l1.026,3.265l2.08,-2.652c1.143,-1.459 2.617,-2.653 3.268,-2.653c0.652,0 0.929,-0.373 0.622,-0.841c-0.885,-1.353 2.117,-5.069 3.647,-4.515c0.951,0.344 1.186,0.109 0.81,-0.816c-0.448,-1.104 0.199,-2.929 1.016,-3.716c-0.673,-3.443 -1.49,-6.834 -2.444,-10.168Zm-52.413,-55.462c-0.8,0.024 -1.35,1.112 -0.675,2.142c0.418,0.639 0.836,0.639 1.513,-0c0.677,-0.639 0.677,-1.146 -0,-1.785c-0.287,-0.271 -0.571,-0.366 -0.838,-0.357Zm16.397,0.433c-1.871,0 -2.042,0.19 -1.134,1.224c1.234,1.405 1.144,1.392 2.945,0.74c1.953,-0.708 0.799,-1.964 -1.811,-1.964Zm-130.508,1.964c-0.123,0.018 -0.265,0.062 -0.378,0.127c-0.45,0.263 -0.575,0.825 -0.297,1.25c0.279,0.425 0.873,0.544 1.324,0.281c0.45,-0.263 0.575,-0.825 0.297,-1.25c-0.209,-0.319 -0.575,-0.462 -0.946,-0.408Zm119.649,-2.525c-0.108,0.011 -0.185,0.046 -0.27,0.076c-1.259,0.457 -1.704,3.059 -0.676,4.03c0.862,0.813 3.574,0.642 4.161,-0.255c0.329,-0.502 1.301,-0.502 2.701,0c2.961,1.063 3.334,0.987 2.107,-0.408c-0.574,-0.654 -0.793,-1.572 -0.486,-2.04c0.306,-0.469 0.178,-0.842 -0.297,-0.842c-0.476,0 -1.122,0.394 -1.432,0.867c-0.372,0.569 -1.279,0.395 -2.701,-0.484c-1.035,-0.641 -2.347,-1.021 -3.107,-0.944Zm-132.617,8.238c-0.124,0.018 -0.265,0.062 -0.378,0.128c-0.45,0.262 -0.576,0.824 -0.298,1.249c0.279,0.425 0.874,0.544 1.324,0.281c0.451,-0.263 0.576,-0.825 0.297,-1.25c-0.208,-0.319 -0.574,-0.462 -0.945,-0.408Zm138.23,-1.913c-0.382,0.024 -0.678,0.706 -0.756,1.989c-0.11,1.805 0.196,2.041 2.836,2.041c1.77,-0 2.776,-0.332 2.459,-0.816c-0.295,-0.449 -1.11,-0.816 -1.811,-0.816c-0.699,-0 -1.482,-0.551 -1.755,-1.225c-0.331,-0.813 -0.676,-1.192 -0.973,-1.173Zm-12.021,-0.535c-0.124,0.017 -0.266,0.061 -0.378,0.127c-0.451,0.263 -0.576,0.825 -0.297,1.25c0.278,0.425 0.873,0.543 1.323,0.28c0.45,-0.262 0.576,-0.824 0.298,-1.249c-0.209,-0.319 -0.575,-0.462 -0.946,-0.408Zm-161.489,14.155c-0.355,-0.01 -0.662,0.06 -0.864,0.255c-0.626,0.6 -0.384,1.227 0.784,2.04c1.955,1.363 2.795,1.46 3.484,0.408c0.64,-0.977 -1.868,-2.661 -3.404,-2.703Zm24.04,-12.523c-0.124,0.018 -0.266,0.062 -0.378,0.127c-0.451,0.263 -0.576,0.825 -0.298,1.25c0.278,0.425 0.874,0.544 1.324,0.281c0.45,-0.263 0.575,-0.825 0.297,-1.25c-0.209,-0.319 -0.575,-0.462 -0.945,-0.408Zm38.908,-12.242c-0.124,0.017 -0.266,0.061 -0.378,0.127c-0.451,0.263 -0.575,0.825 -0.298,1.25c0.279,0.425 0.874,0.543 1.324,0.28c0.451,-0.262 0.576,-0.824 0.297,-1.249c-0.208,-0.319 -0.574,-0.462 -0.945,-0.408Zm6.918,-3.265c-0.123,0.018 -0.265,0.062 -0.378,0.127c-0.45,0.263 -0.575,0.825 -0.297,1.25c0.279,0.425 0.873,0.543 1.324,0.281c0.451,-0.263 0.576,-0.825 0.297,-1.25c-0.209,-0.319 -0.575,-0.462 -0.946,-0.408Zm-4.324,1.632c-0.123,0.018 -0.266,0.062 -0.378,0.128c-0.451,0.262 -0.576,0.824 -0.297,1.249c0.278,0.426 0.873,0.544 1.323,0.281c0.451,-0.263 0.576,-0.825 0.298,-1.25c-0.209,-0.319 -0.576,-0.461 -0.946,-0.408Zm14.698,4.081c-0.124,0.018 -0.266,0.062 -0.378,0.128c-0.451,0.262 -0.576,0.824 -0.298,1.249c0.278,0.426 0.874,0.544 1.324,0.281c0.45,-0.263 0.575,-0.825 0.297,-1.25c-0.208,-0.319 -0.575,-0.462 -0.945,-0.408Zm-1.729,-3.265c-0.124,0.018 -0.265,0.062 -0.378,0.128c-0.45,0.263 -0.575,0.824 -0.297,1.25c0.278,0.425 0.873,0.543 1.324,0.28c0.45,-0.263 0.575,-0.824 0.297,-1.25c-0.209,-0.318 -0.575,-0.461 -0.946,-0.408Zm23.337,0.817c-0.124,0.017 -0.266,0.061 -0.378,0.127c-0.451,0.263 -0.576,0.825 -0.298,1.25c0.278,0.425 0.873,0.543 1.324,0.28c0.45,-0.262 0.575,-0.824 0.297,-1.249c-0.208,-0.319 -0.575,-0.462 -0.945,-0.408Zm-34.912,-18.083c-0.913,0.034 -1.722,0.746 -1.242,1.479c0.273,0.418 0.85,0.765 1.269,0.765c1.211,-0 1.858,-1.476 0.892,-2.04c-0.288,-0.168 -0.614,-0.216 -0.919,-0.204Zm9.215,1.224c-0.689,0.042 -1.479,0.449 -2.917,1.25c-2.738,1.525 -2.875,1.781 -1.54,2.703c1.662,1.147 7.438,0.603 8.401,-0.791c0.33,-0.477 -0.377,-1.49 -1.594,-2.244c-1.05,-0.65 -1.66,-0.96 -2.35,-0.918Zm15.756,8.799c-1.323,-0.014 -2.468,0.753 -3.755,2.346c-1.192,1.475 -2.16,2.871 -2.16,3.112c-0,0.241 1.458,-0.037 3.241,-0.638c1.783,-0.6 4.061,-1.128 5.052,-1.147c2.671,-0.054 3.162,-0.957 1.215,-2.245c-1.418,-0.937 -2.564,-1.417 -3.593,-1.428Zm-21.157,-4.03c-0.452,0 -0.974,0.053 -1.486,0.179c-1.234,0.302 -1.33,0.534 -0.432,1.071c1.519,0.909 3.094,0.902 3.701,-0.026c0.47,-0.718 -0.429,-1.224 -1.783,-1.224Zm1.71,7.193c-0.123,0.017 -0.266,0.061 -0.378,0.127c-0.451,0.263 -0.576,0.825 -0.297,1.25c0.278,0.425 0.873,0.543 1.323,0.28c0.451,-0.262 0.576,-0.824 0.298,-1.249c-0.209,-0.319 -0.575,-0.462 -0.946,-0.408Zm4.773,-6.836c-1.234,0.066 -2.78,0.551 -4.565,1.454l-2.918,1.479l4.889,1.046c2.684,0.564 5.842,1.516 7.024,2.117c2.693,1.367 3.04,1.132 3.296,-2.04c0.303,-3.749 -0.664,-4.63 -2.539,-2.347l-1.595,1.939l-0.539,-1.837c-0.378,-1.286 -1.467,-1.895 -3.053,-1.811Zm22.888,6.836c-0.123,0.017 -0.265,0.061 -0.377,0.127c-0.451,0.263 -0.576,0.825 -0.298,1.25c0.279,0.425 0.873,0.543 1.324,0.28c0.451,-0.262 0.575,-0.824 0.297,-1.249c-0.208,-0.319 -0.575,-0.462 -0.946,-0.408Zm-109.1,160.647c2.179,3.742 4.55,7.358 7.1,10.834c0.708,-0.676 1.073,-1.319 0.835,-1.545c-0.294,-0.277 0.139,-1.222 0.972,-2.091c1.464,-1.526 1.402,-1.646 -1.999,-3.673c-2.053,-1.223 -3.756,-2.969 -4.079,-4.183l-0.567,-2.065l-1.296,1.759c-0.235,0.316 -0.567,0.642 -0.966,0.964Zm-0.437,-122.34c-10.259,17.915 -16.123,38.67 -16.123,60.795c0,19.906 4.748,38.703 13.173,55.32c1.547,0.721 3.194,1.015 4.704,0.748c2.541,-0.45 3.109,-0.287 3.484,1.071c0.576,2.076 3.402,2.804 11.859,2.984c6.23,0.132 7.001,0.316 8.645,2.244c0.993,1.164 2.876,2.372 4.187,2.678c2.911,0.68 3.826,1.854 1.973,2.525c-1.063,0.385 -1.146,0.76 -0.379,1.633c1.448,1.646 3.102,1.38 3.647,-0.587c0.857,-3.093 2.349,-0.734 2.269,3.596c-0.042,2.327 0.096,4.785 0.297,5.458c0.202,0.674 0.852,2.987 1.459,5.126c0.607,2.14 1.447,4.067 1.864,4.31c0.417,0.244 0.757,1.106 0.757,1.914c-0,0.807 1.348,3.924 2.998,6.911l2.998,5.433l1.351,-1.964c1.984,-2.859 3.026,-6.881 3.026,-11.706c-0,-3.586 0.309,-4.405 1.945,-5.229c2.556,-1.287 12.268,-10.515 12.993,-12.345c0.377,-0.951 1.505,-1.428 3.349,-1.428c1.523,0 3.45,-0.578 4.295,-1.3c1.433,-1.224 1.648,-1.128 3.27,1.428c0.956,1.508 2.582,3.627 3.592,4.718c1.407,1.52 1.767,2.812 1.54,5.509c-0.244,2.897 -0.032,3.52 1.188,3.52c0.817,-0 2.215,-0.752 3.134,-1.683c1.983,-2.01 2.315,-1.638 3.134,3.723c0.342,2.245 0.987,4.489 1.431,4.999c0.445,0.511 0.631,3.335 0.406,6.274c-0.34,4.439 -0.127,5.695 1.269,7.372c0.925,1.11 1.675,2.561 1.675,3.239c0,3.743 5.748,11.748 7.348,10.227c0.156,-0.148 -0.18,-2.25 -0.756,-4.667c-0.703,-2.941 -1.801,-4.965 -3.296,-6.121c-1.228,-0.95 -2.528,-2.654 -2.89,-3.775c-0.363,-1.121 -1.206,-2.409 -1.891,-2.882c-1.086,-0.75 -1.102,-1.405 -0,-4.922c1.168,-3.731 1.46,-4.016 3.754,-3.801c3.773,0.354 4.647,0.801 4.647,2.398c-0,0.804 0.778,1.938 1.729,2.499c1.001,0.59 1.729,1.895 1.729,3.112c-0,2.066 0.075,2.049 4.349,-1.428l4.349,-3.546l-0.297,-4.616c-0.221,-3.533 -0.895,-5.433 -2.837,-8.009c-1.399,-1.856 -3.053,-4.08 -3.701,-4.948c-1.057,-1.417 -0.879,-1.898 1.945,-4.565c2.977,-2.81 3.245,-2.897 4.754,-1.607c1.419,1.211 1.653,1.22 2.108,0.102c0.282,-0.693 1.236,-1.25 2.107,-1.25c0.87,0 1.955,-0.366 2.431,-0.816c0.476,-0.45 2.526,-1.035 4.538,-1.301c2.889,-0.381 4.45,-1.283 7.483,-4.285c2.113,-2.089 3.852,-4.28 3.863,-4.871c0.011,-0.591 1,-2.278 2.188,-3.749c2.555,-3.163 2.691,-4.201 0.649,-4.948c-1.411,-0.516 -1.402,-0.622 0.162,-1.709c1.403,-0.975 1.45,-1.173 0.27,-1.173c-2.15,-0 -2.777,-1.682 -0.81,-2.168c1.653,-0.408 1.608,-0.596 -0.865,-4.055c-2.5,-3.498 -2.526,-3.708 -1.135,-5.713c0.794,-1.144 2.678,-2.606 4.187,-3.265l2.729,-1.199l-3.809,0.383c-3.997,0.406 -7.861,-1.167 -7.861,-3.188c-0,-1.749 8.041,-6.902 9.266,-5.943c0.817,0.64 0.748,1.259 -0.325,2.806c-0.759,1.094 -1.182,2.199 -0.918,2.448c0.263,0.249 0.928,-0.313 1.459,-1.25c1.049,-1.851 3.507,-2.207 6.159,-0.867c1.314,0.664 1.481,1.19 0.81,2.372c-0.682,1.204 -0.448,1.784 1.162,2.78c1.634,1.011 1.994,1.864 1.837,4.489c-0.192,3.212 -0.151,3.238 2.08,2.346c3.719,-1.485 3.788,-1.823 1.513,-7.141l-2.188,-5.126l2.025,-2.117c1.123,-1.168 3.41,-3.565 5.079,-5.33c2.476,-2.621 3.275,-3.019 4.295,-2.22c1.798,1.409 3.54,0.486 7.267,-3.8c7.058,-8.113 9.781,-14.283 9.941,-22.444c0.056,-2.838 -2.187,-5.269 -3.809,-4.106c-1.373,0.985 -4.592,0.971 -4.592,-0.026c-0,-0.397 -0.899,-1.043 -1.999,-1.428c-1.824,-0.637 -1.893,-0.84 -0.757,-2.371c0.685,-0.924 4.462,-4.251 8.374,-7.372c6.798,-5.42 10.5,-6.92 12.454,-5.075c0.846,0.799 6.75,0.275 8.023,-0.715c0.678,-0.526 1.702,-0.451 3.025,0.23c2.571,1.323 8.728,1.569 7.618,0.306c-1.223,-1.391 6.747,-7.385 10.103,-7.6c0.581,-0.037 1.115,-0.018 1.582,0.045c-3.73,-10.663 -8.893,-20.653 -15.257,-29.74c-1.374,-0.073 -1.867,-0.363 -2.1,-0.937c-0.278,-0.683 -1.022,-1.068 -1.648,-0.841c-1.13,0.409 -2.568,-1.009 -2.593,-2.551c-0.025,-1.522 -3.063,-1.349 -5.943,0.332c-3.199,1.866 -4.779,1.404 -2.675,-0.791c1.27,-1.324 1.037,-1.422 -3.674,-1.428c-2.764,-0.004 -5.564,-0.127 -6.24,-0.281c-0.844,-0.192 -1.25,0.485 -1.296,2.168c-0.054,1.945 -0.462,2.449 -1.945,2.449c-1.027,-0 -2.117,0.242 -2.432,0.535c-0.313,0.294 -1.564,0.036 -2.782,-0.561c-1.714,-0.839 -2.587,-0.863 -3.836,-0.127c-1.232,0.726 -2.016,0.712 -3.269,-0.026c-1.38,-0.814 -1.711,-0.694 -2.079,0.638c-0.83,2.994 -2.998,2.693 -7.402,-0.995c-4.336,-3.63 -4.76,-4.769 -1.783,-4.769c1.413,-0 1.526,-0.234 0.702,-1.48c-0.752,-1.137 -2.013,-1.472 -5.403,-1.428c-2.553,0.033 -4.808,0.506 -5.321,1.122c-1.192,1.431 -10.442,1.011 -10.131,-0.459c0.277,-1.308 -7.679,-1.421 -9.049,-0.127c-0.7,0.661 -1.254,0.386 -2.08,-1.021c-0.622,-1.058 -1.145,-2.149 -1.162,-2.448c-0.066,-1.173 -1.017,-1.358 -3.917,-0.714c-2.47,0.548 -2.632,0.701 -0.864,0.791c2.117,0.107 6.462,2.499 4.538,2.499c-0.538,0 -1.218,-0.367 -1.513,-0.816c-0.294,-0.449 -1.558,-0.816 -2.809,-0.816c-2.178,-0 -2.201,0.057 -0.594,1.173c1.656,1.151 1.653,1.164 -0.054,1.683c-0.951,0.29 -2.313,0.812 -3.026,1.148c-1.856,0.875 -6.483,0.636 -6.483,-0.332c-0,-0.448 1.285,-1.423 2.863,-2.168c1.578,-0.744 3.567,-1.937 4.404,-2.652c0.836,-0.715 2.274,-1.31 3.187,-1.326c2.534,-0.044 5.985,-2.062 4.754,-2.78c-0.777,-0.454 -0.744,-0.912 0.108,-1.888c0.94,-1.075 0.897,-1.205 -0.188,-0.841c-0.714,0.239 -1.934,-0.084 -2.702,-0.714c-1.11,-0.911 -2.217,-0.981 -5.403,-0.306c-2.52,0.533 -4.562,0.58 -5.51,0.102c-0.83,-0.419 -2.291,-1.012 -3.242,-1.301c-1.638,-0.498 -1.643,-0.571 -0.189,-1.581c1.411,-0.982 1.342,-1.123 -0.865,-1.556c-0.465,-0.091 -0.865,-0.136 -1.243,-0.128l-0.003,0.002c-1.133,0.024 -1.983,0.547 -3.133,1.76c-1.419,1.497 -1.72,2.359 -1.08,3.086c1.237,1.407 0.16,2.157 -2.27,1.581c-1.165,-0.276 -3.401,0.132 -5.213,0.944c-2.311,1.035 -3.554,1.173 -4.593,0.561c-1.004,-0.592 -2.793,-0.499 -6.078,0.306c-2.564,0.628 -5.895,1.147 -7.401,1.147c-2.75,0 -7.58,1.55 -8.212,2.627c-0.187,0.318 0.392,1.085 1.296,1.709c1.596,1.102 1.215,3.521 -0.405,2.576c-0.438,-0.255 -3.334,-0.58 -6.43,-0.714c-5.404,-0.234 -5.618,-0.16 -5.618,1.684c-0,1.093 0.531,1.912 1.215,1.912c2.124,0 4.767,2.777 5.025,5.28c0.203,1.966 -0.087,2.451 -1.485,2.448c-1.327,-0.002 -1.683,-0.503 -1.567,-2.142c0.128,-1.825 -0.411,-2.359 -3.702,-3.545c-2.786,-1.005 -4.162,-1.143 -4.97,-0.51c-0.799,0.626 -1.406,0.611 -2.134,-0.077c-0.683,-0.644 -1.027,-0.671 -1.027,-0.076c0,0.487 1.03,1.503 2.27,2.27c3.22,1.992 1.412,3.44 -2.134,1.708c-1.707,-0.833 -2.969,-2.239 -3.485,-3.927c-0.445,-1.453 -0.849,-2.057 -0.892,-1.326c-0.042,0.73 -0.669,1.796 -1.404,2.371c-0.778,0.61 -1.096,1.592 -0.757,2.347c0.503,1.118 0.851,2.765 1.135,5.177c0.039,0.337 1.128,0.612 2.404,0.612c2.656,0 6.321,2.868 6.321,4.948c0,0.772 0.64,1.652 1.432,1.939c1.015,0.367 1.186,0.768 0.541,1.377c-1.272,1.201 -4.566,-0.548 -4.566,-2.423c-0,-1.696 -1.615,-3.392 -3.215,-3.392c-0.622,-0 -1.726,1.41 -2.458,3.137c-0.732,1.727 -2.507,3.97 -3.944,4.973c-2.511,1.753 -2.721,1.771 -5.592,0.485c-1.642,-0.736 -2.762,-1.694 -2.485,-2.117c0.667,-1.018 3.619,-0.982 4.295,0.051c2.702,4.127 5.715,-10.143 3.08,-14.589c-0.412,-0.695 -0.321,-2.05 0.216,-3.163c1.078,-2.233 -0.17,-3.421 -3.566,-3.443c-1.429,-0.009 -2.228,0.652 -2.864,2.372c-0.486,1.317 -1.82,2.986 -2.971,3.698c-1.844,1.142 -1.976,1.491 -1.027,3.087c0.593,0.995 1.762,2.29 2.594,2.882c0.832,0.592 1.513,1.633 1.513,2.295c-0,1.996 -2.561,2.274 -4.592,0.51c-1.113,-0.965 -3.763,-1.887 -6.403,-2.219c-4.206,-0.528 -4.653,-0.389 -6.564,1.709c-1.424,1.563 -2.503,2.068 -3.566,1.683c-1.315,-0.476 -1.363,-0.746 -0.351,-1.913c0.935,-1.077 0.651,-1.043 -1.378,0.204c-1.405,0.864 -3.89,1.999 -5.511,2.525c-1.049,0.341 -1.737,0.536 -2.21,0.561Zm-5.708,65.395c1.405,0.003 1.701,0.428 1.701,1.888c0,1.393 -0.381,1.842 -1.242,1.53c-0.678,-0.246 -1.674,0.093 -2.242,0.739c-0.568,0.647 -0.76,1.174 -0.406,1.174c0.354,-0 0.21,0.489 -0.324,1.097c-0.745,0.848 -0.483,1.593 1.108,3.213c1.139,1.16 1.867,2.318 1.62,2.551c-0.246,0.232 -0.195,1.082 0.136,1.887c0.558,1.36 0.683,1.348 1.675,0.076c0.987,-1.265 1.144,-1.25 2.107,0.204c0.892,1.35 0.799,1.582 -0.649,1.582c-2.336,-0 -3.004,1.359 -1.161,2.372c0.842,0.463 1.292,0.853 0.999,0.867c-0.292,0.013 -0.232,1.478 0.108,3.239c0.546,2.819 0.385,3.242 -1.215,3.647c-3.351,0.85 -5.421,0.502 -7.051,-1.198c-1.533,-1.6 -1.541,-1.878 -0.216,-5.356c1.161,-3.047 1.194,-3.752 0.216,-4.107c-1.606,-0.582 -4.886,-9.076 -4.241,-10.993c0.623,-1.853 5.105,-4.191 8.401,-4.386c0.249,-0.015 0.475,-0.026 0.676,-0.026Zm17.401,2.066c1.108,0 0.883,3.63 -0.297,4.744c-1.405,1.326 -2.135,1.212 -2.782,-0.382c-0.535,-1.315 1.616,-4.362 3.079,-4.362Zm89.568,115.733c-0.201,-0.329 -0.277,-0.597 -0.173,-0.756c0.219,-0.335 -1.696,-2.563 -4.242,-4.948c-2.545,-2.385 -4.799,-4.795 -4.997,-5.356c-0.197,-0.56 -1.624,-1.362 -3.187,-1.785l-2.837,-0.765l3.485,4.131c1.92,2.277 3.485,4.774 3.485,5.535c-0,0.761 0.972,2.236 2.161,3.29c0.094,0.084 0.187,0.17 0.279,0.259c1.995,0.18 4.004,0.312 6.026,0.395Zm-80.414,-210.106c3.143,-0.894 6.557,-2.016 7.704,-2.622c1.528,-0.807 1.369,-1.212 0.351,-1.224c-1.018,-0.012 -2.886,0.37 -4.808,1.173c-0.244,0.102 -0.49,0.199 -0.737,0.291c-0.848,0.783 -1.685,1.576 -2.51,2.382Zm-22.145,146.17c-0.064,0.021 -0.127,0.048 -0.182,0.081c-0.451,0.262 -0.576,0.824 -0.298,1.249c0.278,0.426 0.874,0.544 1.324,0.281c0.012,-0.007 0.024,-0.014 0.036,-0.022c-0.297,-0.527 -0.591,-1.057 -0.88,-1.589Zm0.88,1.589c0.421,-0.271 0.532,-0.814 0.261,-1.228c-0.208,-0.318 -0.575,-0.462 -0.945,-0.408c-0.063,0.009 -0.13,0.025 -0.196,0.047c0.289,0.532 0.583,1.062 0.88,1.589Zm223.285,-98.158c-0.231,0.366 -0.385,0.84 -0.385,1.285c0,0.791 0.191,0.973 0.935,0.444c-0.179,-0.578 -0.363,-1.154 -0.55,-1.729Z" style="fill:#2d8a06;"/><path d="M148.746,13.81c-49.137,0 -99.7,36.889 -108.798,89.684c-9.102,52.799 13.087,103.386 85.893,113.782c72.806,10.392 127.614,-40.195 128.941,-104.953c1.331,-64.753 -55.06,-98.513 -106.036,-98.513Z" style="fill:#fff;fill-opacity:0.11;fill-rule:nonzero;"/><path d="M154.566,19.06c-42.151,3.836 -76.208,22.57 -82.28,59.384c-6.073,36.81 24.438,81.428 79.75,72.256c55.316,-9.169 68.329,-44.941 67.75,-74.666c-0.578,-29.721 -22.991,-50.211 -65.22,-56.974Z" style="fill:#fff;fill-opacity:0.1;fill-rule:nonzero;"/></g></svg>