<?xml version="1.0" encoding="UTF-8" standalone="no"?><!DOCTYPE svg PUBLIC "-//W3C//DTD SVG 1.1//EN" "http://www.w3.org/Graphics/SVG/1.1/DTD/svg11.dtd"><svg width="100%" height="100%" viewBox="0 0 287 271" version="1.1" xmlns="http://www.w3.org/2000/svg" xmlns:xlink="http://www.w3.org/1999/xlink" xml:space="preserve" xmlns:serif="http://www.serif.com/" style="fill-rule:evenodd;clip-rule:evenodd;stroke-linejoin:round;stroke-miterlimit:2;"><g id="Europe"><path d="M146.46,0.671c-64.67,0 -131.216,48.55 -143.19,118.034c-11.98,69.49 17.224,136.069 113.045,149.752c95.821,13.677 167.955,-52.902 169.701,-138.131c1.752,-85.223 -72.466,-129.655 -139.556,-129.655Z" style="fill-opacity:0.11;fill-rule:nonzero;"/><path d="M143.39,11.205c-68.622,-0 -124.257,55.63 -124.257,124.261c-0,68.623 55.635,124.245 124.257,124.245c68.623,0 124.253,-55.622 124.253,-124.245c0,-68.631 -55.63,-124.261 -124.253,-124.261" style="fill:#23c3e5;fill-rule:nonzero;"/><path d="M192.266,28.422c-0.125,0.018 -0.267,0.062 -0.379,0.128c-0.452,0.263 -0.578,0.827 -0.299,1.254c0.279,0.426 0.876,0.545 1.328,0.281c0.452,-0.264 0.577,-0.827 0.298,-1.254c-0.21,-0.32 -0.576,-0.463 -0.948,-0.409Zm9.999,0.793c-0.655,0.04 -1.458,0.291 -2.222,0.742c-0.564,0.332 -1.268,0.235 -1.572,-0.23c-0.305,-0.465 -0.931,-0.622 -1.382,-0.358c-0.452,0.263 -0.578,0.827 -0.299,1.253c0.28,0.427 0.836,0.573 1.247,0.333c0.411,-0.24 0.973,-0.085 1.247,0.333c0.273,0.417 0.978,0.673 1.572,0.588c1.788,-0.256 3.326,-1.389 2.845,-2.124c-0.254,-0.388 -0.782,-0.577 -1.436,-0.537Zm-17.259,1.766c-1.566,-0.011 -3.989,0.849 -4.689,1.919c-0.475,0.726 2.412,2.863 3.984,2.942c0.318,0.016 0.874,0.289 1.219,0.614c0.86,0.812 2.256,-0.113 1.627,-1.075c-0.28,-0.426 -0.826,-0.588 -1.22,-0.358c-0.394,0.23 -0.934,-0.106 -1.192,-0.742c-0.259,-0.635 0.156,-1.36 0.921,-1.637c0.932,-0.338 1.125,-0.78 0.542,-1.331c-0.241,-0.227 -0.671,-0.329 -1.192,-0.332Zm5.528,-0c-0.447,-0.021 -0.921,0.229 -1.626,0.716c-1.458,1.006 -1.506,1.277 -0.379,2.559c0.697,0.793 1.175,1.676 1.056,1.944c-0.119,0.269 0.132,0.486 0.569,0.486c0.438,0 1.092,0.263 1.436,0.589c0.861,0.811 2.256,-0.113 1.627,-1.075c-0.28,-0.426 -0.836,-0.572 -1.247,-0.332c-0.411,0.239 -0.954,0.099 -1.219,-0.308c-0.267,-0.406 0.368,-0.938 1.436,-1.202c2.636,-0.651 2.818,-0.657 2.818,0.205c0,1.442 1.286,1.939 2.52,0.972c0.851,-0.667 1.404,-0.691 1.789,-0.102c0.391,0.598 1.097,0.572 2.33,-0.052c1.256,-0.634 1.521,-1.148 0.868,-1.765c-0.653,-0.617 -1.294,-0.583 -2.168,0.102c-0.978,0.767 -1.35,0.672 -1.789,-0.409c-0.305,-0.752 -0.808,-1.13 -1.11,-0.844c-0.304,0.285 -1.029,0.135 -1.627,-0.333c-0.757,-0.593 -1.264,-0.559 -1.68,0.077c-0.416,0.635 -1.047,0.504 -2.087,-0.384c-0.641,-0.548 -1.071,-0.824 -1.517,-0.844Zm-58.264,3.275c-0.899,-0.016 -1.003,0.245 -1.003,0.767c0,0.581 -0.656,1.557 -1.463,2.175c-0.836,0.64 -1.19,0.704 -0.84,0.154c0.766,-1.206 -0.636,-2.063 -3.984,-2.431c-2.241,-0.246 -2.429,-0.101 -1.463,0.998c0.918,1.044 0.829,1.512 -0.407,2.661c-1.36,1.265 -1.582,1.259 -2.52,0.076c-1.635,-2.061 -3.472,-2.226 -4.986,-0.46c-0.974,1.135 -1.913,1.444 -3.062,1.023c-1.62,-0.592 -1.624,-0.619 0.026,-1.765c1.85,-1.286 1.22,-1.438 -2.872,-0.665c-1.491,0.281 -2.71,0.858 -2.71,1.279c-0,0.421 0.39,0.534 0.867,0.256c1.792,-1.046 2.738,0.542 1.246,2.098c-0.81,0.845 -1.906,1.299 -2.438,0.998c-0.532,-0.301 -0.433,0.087 0.216,0.844c1.287,1.498 3.112,1.061 2.142,-0.512c-0.329,-0.531 0.265,-0.269 1.3,0.589c1.716,1.421 2.005,1.449 3.387,0.281c1.985,-1.675 4.701,-2.105 5.176,-0.819c0.208,0.561 -0.61,1.375 -1.842,1.817c-2.546,0.914 -3.011,1.845 -0.732,1.484c2.379,-0.377 1.792,2.071 -0.65,2.712c-1.193,0.313 -1.535,0.621 -0.759,0.665c0.777,0.045 1.899,0.63 2.493,1.305c1.568,1.783 2.27,1.541 3.496,-1.253c0.601,-1.37 1.821,-3.403 2.737,-4.503c1.542,-1.851 1.838,-1.895 3.658,-0.768c1.084,0.67 2.272,0.928 2.656,0.588c0.384,-0.339 0.239,0.232 -0.325,1.254c-0.967,1.754 -0.875,1.847 1.681,1.663c1.488,-0.107 2.861,-0.426 3.035,-0.69c0.315,-0.483 -3.858,-2.679 -6.802,-3.583c-0.866,-0.265 -1.348,-0.8 -1.084,-1.202c0.263,-0.402 -0.404,-0.941 -1.464,-1.203c-1.498,-0.37 -1.675,-0.695 -0.867,-1.458c0.808,-0.764 2.095,-0.757 5.8,0.025c4.517,0.955 4.931,0.898 7.885,-0.997l3.117,-1.996l-2.873,-0.537c-3.171,-0.577 -4.873,-0.855 -5.772,-0.87Zm20.081,0.511c-0.394,-0.002 -0.79,0.069 -1.111,0.256c-0.508,0.296 -0.708,0.886 -0.433,1.305c0.661,1.011 2.763,0.984 3.441,-0.051c0.494,-0.754 -0.715,-1.502 -1.897,-1.51Zm9.567,0.205c-0.124,0.018 -0.267,0.062 -0.379,0.128c-0.452,0.264 -0.578,0.827 -0.299,1.254c0.279,0.426 0.876,0.545 1.328,0.281c0.452,-0.263 0.577,-0.827 0.298,-1.254c-0.21,-0.319 -0.576,-0.463 -0.948,-0.409Zm47.695,0c-0.124,0.018 -0.267,0.062 -0.379,0.128c-0.452,0.264 -0.578,0.827 -0.299,1.254c0.28,0.426 0.876,0.545 1.328,0.281c0.452,-0.263 0.577,-0.827 0.299,-1.254c-0.21,-0.319 -0.577,-0.463 -0.949,-0.409Zm-65.355,4.785c-0.916,0.034 -1.728,0.749 -1.247,1.484c0.274,0.419 0.853,0.767 1.274,0.767c1.214,0 1.864,-1.481 0.894,-2.047c-0.288,-0.168 -0.616,-0.216 -0.921,-0.204Zm-4.879,0.946c-0.123,0.018 -0.266,0.062 -0.379,0.128c-0.452,0.264 -0.577,0.827 -0.298,1.254c0.28,0.426 0.876,0.545 1.328,0.281c0.452,-0.263 0.578,-0.827 0.298,-1.253c-0.209,-0.32 -0.577,-0.463 -0.949,-0.41Zm-58.972,63.914c-0.803,0.025 -1.354,1.116 -0.678,2.15c0.42,0.64 0.839,0.64 1.518,-0c0.679,-0.641 0.679,-1.151 0,-1.792c-0.288,-0.271 -0.573,-0.366 -0.84,-0.358Zm45.093,0.768c-0.124,0.018 -0.267,0.062 -0.38,0.127c-0.451,0.265 -0.577,0.828 -0.298,1.255c0.279,0.426 0.876,0.545 1.328,0.281c0.452,-0.264 0.577,-0.827 0.298,-1.254c-0.209,-0.32 -0.576,-0.463 -0.948,-0.409Zm-48.511,4.094c-0.393,0.071 -1.323,0.688 -2.683,1.893c-2.739,2.427 -4.101,5.652 -2.737,6.448c0.489,0.285 0.51,0.871 0.054,1.433c-0.882,1.089 1.296,3.402 3.198,3.402c0.68,0 1.317,1.007 1.464,2.303c0.195,1.729 -0.226,2.476 -1.654,3.019c-1.043,0.397 -1.554,0.74 -1.138,0.768c0.416,0.029 0.269,0.604 -0.325,1.279c-0.9,1.024 -0.788,1.229 0.705,1.229c2.966,-0 3.119,1.661 0.243,2.686c-3.659,1.304 -3.394,2.282 0.353,1.305c1.666,-0.434 3.52,-0.739 4.119,-0.665c4.035,0.496 6.22,-0.459 7.1,-3.122c0.446,-1.35 0.254,-1.842 -0.705,-1.842c-1.504,-0 -2.226,-0.9 -2.737,-3.403c-0.357,-1.752 -3.315,-5.392 -5.392,-6.652c-0.833,-0.505 -0.722,-1.151 0.433,-2.815c1.47,-2.118 1.468,-2.158 -0.433,-1.688c-2.747,0.678 -3.241,-0.65 -1.138,-3.173c1.395,-1.675 1.778,-2.497 1.273,-2.405Zm-8.725,1.637c-0.124,0.018 -0.266,0.062 -0.379,0.128c-0.452,0.263 -0.577,0.827 -0.298,1.254c0.279,0.426 0.876,0.545 1.328,0.281c0.451,-0.264 0.577,-0.827 0.297,-1.254c-0.209,-0.319 -0.576,-0.462 -0.948,-0.409Zm62.439,-0c-0.125,0.018 -0.267,0.062 -0.38,0.128c-0.452,0.263 -0.577,0.827 -0.298,1.254c0.279,0.426 0.876,0.545 1.327,0.281c0.453,-0.264 0.578,-0.827 0.299,-1.254c-0.21,-0.319 -0.577,-0.462 -0.948,-0.409Zm-62.439,3.275c-0.125,0.018 -0.267,0.062 -0.38,0.128c-0.452,0.264 -0.577,0.827 -0.298,1.254c0.279,0.427 0.876,0.545 1.328,0.281c0.452,-0.263 0.577,-0.827 0.298,-1.253c-0.21,-0.321 -0.576,-0.464 -0.948,-0.41Zm53.765,0.051c-0.802,0.025 -1.354,1.116 -0.677,2.15c0.42,0.64 0.838,0.64 1.517,-0c0.68,-0.642 0.679,-1.151 0,-1.791c-0.287,-0.272 -0.572,-0.367 -0.84,-0.359Zm-14.738,6.55c-0.803,0.025 -1.355,1.116 -0.679,2.15c0.42,0.64 0.84,0.64 1.518,-0c0.679,-0.641 0.679,-1.15 0,-1.792c-0.288,-0.271 -0.572,-0.366 -0.839,-0.358Zm6.937,0.768c-0.124,0.018 -0.267,0.062 -0.38,0.128c-0.451,0.264 -0.577,0.827 -0.298,1.254c0.279,0.426 0.876,0.545 1.328,0.281c0.452,-0.264 0.577,-0.827 0.298,-1.254c-0.21,-0.32 -0.576,-0.463 -0.948,-0.409Zm-47.642,0.179c-0.452,0.036 -0.801,0.256 -1.138,0.64c-0.509,0.579 -0.658,1.297 -0.325,1.611c0.333,0.315 -0.266,0.788 -1.328,1.05c-1.459,0.36 -1.703,0.738 -1.003,1.535c0.645,0.733 0.66,1.217 0.028,1.586c-0.796,0.465 -1.367,3.71 -0.651,3.71c0.149,0 1.851,-0.725 3.794,-1.612c2.959,-1.35 3.608,-2.075 3.902,-4.452c0.286,-2.313 -0.005,-2.985 -1.571,-3.659c-0.7,-0.301 -1.255,-0.444 -1.708,-0.409Zm0.808,-51.761c-0.124,0.018 -0.266,0.062 -0.38,0.128c-0.451,0.264 -0.577,0.828 -0.297,1.254c0.279,0.427 0.876,0.545 1.328,0.281c0.451,-0.263 0.577,-0.827 0.297,-1.253c-0.209,-0.32 -0.576,-0.463 -0.948,-0.41Zm-2.602,1.638c-0.124,0.018 -0.266,0.062 -0.379,0.128c-0.452,0.263 -0.577,0.827 -0.298,1.254c0.279,0.426 0.876,0.545 1.328,0.281c0.451,-0.264 0.577,-0.827 0.298,-1.254c-0.209,-0.32 -0.577,-0.463 -0.949,-0.409Zm144.116,0.281c-0.356,-0.009 -0.664,0.061 -0.867,0.256c-0.628,0.603 -0.385,1.231 0.786,2.047c1.962,1.367 2.805,1.464 3.496,0.409c0.642,-0.98 -1.874,-2.67 -3.415,-2.712Zm-86.018,0.538c-0.124,0.018 -0.266,0.062 -0.38,0.128c-0.451,0.263 -0.577,0.827 -0.297,1.253c0.279,0.427 0.876,0.545 1.327,0.282c0.452,-0.264 0.578,-0.827 0.298,-1.254c-0.209,-0.32 -0.576,-0.463 -0.948,-0.409Zm65.878,2.354c-1.304,-0.011 -3.163,1.944 -2.494,2.968c0.415,0.632 1.094,0.649 2.277,0.051c1.88,-0.95 2.16,-2.058 0.732,-2.891c-0.155,-0.091 -0.329,-0.127 -0.515,-0.128Zm-73.684,2.558c-0.124,0.018 -0.266,0.062 -0.379,0.128c-0.452,0.264 -0.578,0.827 -0.298,1.254c0.279,0.426 0.876,0.545 1.328,0.281c0.451,-0.263 0.577,-0.827 0.297,-1.254c-0.208,-0.319 -0.576,-0.463 -0.948,-0.409Zm-3.47,1.638c-0.124,0.018 -0.267,0.062 -0.379,0.128c-0.452,0.263 -0.578,0.827 -0.299,1.253c0.279,0.427 0.876,0.545 1.328,0.282c0.452,-0.264 0.577,-0.827 0.298,-1.254c-0.21,-0.32 -0.576,-0.463 -0.948,-0.409Zm-61.459,7.266c-0.626,-0.001 -1.525,0.097 -2.792,0.282c-2.265,0.33 -4.819,0.536 -5.663,0.486c-0.845,-0.051 -1.329,0.214 -1.084,0.588c0.671,1.025 -3.489,3.319 -6.234,3.429l-2.411,0.102l2.601,0.512c1.431,0.288 2.406,0.853 2.168,1.254c-0.5,0.84 2.196,1.988 4.878,2.072c1.009,0.031 3.937,-0.748 6.504,-1.74c5.212,-2.013 6.506,-3.181 4.634,-4.17c-0.694,-0.367 -1.273,-1.239 -1.273,-1.919c-0,-0.635 -0.286,-0.893 -1.328,-0.896Zm-14.038,0.614c-0.847,0 -1.989,0.271 -2.845,0.793c-1.018,0.621 -0.796,0.809 1.03,0.819c1.283,0.007 2.578,-0.368 2.872,-0.819c0.342,-0.522 -0.21,-0.793 -1.057,-0.793Zm67.695,6.039c-0.123,0.017 -0.266,0.061 -0.379,0.128c-0.452,0.263 -0.577,0.826 -0.298,1.253c0.279,0.427 0.876,0.545 1.328,0.282c0.452,-0.264 0.577,-0.828 0.298,-1.254c-0.209,-0.32 -0.577,-0.463 -0.949,-0.409Zm-35.493,6.549c-0.657,0.091 -1.233,0.867 -0.868,1.766c0.25,0.616 0.057,1.342 -0.406,1.612c-0.465,0.27 -0.605,0.853 -0.326,1.279c0.28,0.427 0.88,0.534 1.355,0.256c0.476,-0.278 0.673,-0.696 0.407,-0.946c-0.266,-0.251 -0.08,-0.951 0.433,-1.535c0.514,-0.585 0.692,-1.442 0.379,-1.92c-0.198,-0.302 -0.45,-0.466 -0.704,-0.512c-0.095,-0.016 -0.177,-0.012 -0.27,0Zm-23.455,97.433c-0.124,0.018 -0.267,0.062 -0.38,0.128c-0.451,0.264 -0.577,0.828 -0.298,1.254c0.279,0.426 0.876,0.545 1.328,0.281c0.452,-0.263 0.577,-0.827 0.298,-1.253c-0.209,-0.32 -0.576,-0.463 -0.948,-0.41Zm92.778,-148.195c-0.123,0.018 -0.266,0.062 -0.379,0.128c-0.452,0.263 -0.578,0.827 -0.298,1.254c0.279,0.426 0.876,0.545 1.328,0.281c0.452,-0.264 0.577,-0.827 0.298,-1.254c-0.21,-0.32 -0.577,-0.463 -0.949,-0.409Zm90.814,1.023c-1.022,-0.012 -2.896,0.372 -4.824,1.177c-2.484,1.038 -5.157,1.584 -6.802,1.356c-1.562,-0.216 -4.306,0.248 -6.476,1.126c-2.072,0.839 -4.991,1.535 -6.478,1.535c-2.105,0 -2.464,0.206 -1.653,0.973c0.812,0.766 0.447,1.513 -1.626,3.3c-1.773,1.53 -2.279,2.409 -1.517,2.636c3.005,0.894 3.527,1.261 1.409,0.997c-2.764,-0.343 -3.288,-0.047 -5.393,3.071c-1.32,1.955 -1.35,2.294 -0.244,1.893c1.447,-0.524 3.638,1.354 2.9,2.482c-0.246,0.376 1.372,0.722 3.604,0.767c2.232,0.046 3.48,-0.104 2.764,-0.332c-1.734,-0.553 -3.469,-2.687 -3.469,-4.273c0,-1.722 6.762,-8.768 9.864,-10.285c1.367,-0.669 3.174,-1.229 4.012,-1.229c1.72,0 11.467,-2.851 13.577,-3.965c1.533,-0.811 1.373,-1.217 0.352,-1.229Zm-103.831,6.346c-0.124,0.018 -0.266,0.062 -0.379,0.128c-0.452,0.263 -0.577,0.827 -0.298,1.253c0.279,0.427 0.876,0.545 1.327,0.282c0.452,-0.264 0.578,-0.827 0.298,-1.254c-0.209,-0.32 -0.576,-0.463 -0.948,-0.409Zm108.399,3.275c-0.124,0.018 -0.266,0.062 -0.379,0.128c-0.452,0.263 -0.578,0.827 -0.298,1.253c0.279,0.427 0.876,0.545 1.328,0.282c0.451,-0.264 0.577,-0.827 0.297,-1.254c-0.209,-0.32 -0.576,-0.463 -0.948,-0.409Zm-130.939,97.483c-0.802,0.025 -1.354,1.116 -0.677,2.149c0.419,0.641 0.839,0.641 1.517,0c0.679,-0.64 0.679,-1.15 0,-1.791c-0.288,-0.271 -0.572,-0.367 -0.84,-0.358Zm-0.105,5.552c-0.549,0.033 -1.057,0.614 -1.057,1.74c-0,1.55 0.358,1.973 1.355,1.612c0.739,-0.268 1.227,-1.046 1.084,-1.74c-0.229,-1.112 -0.832,-1.645 -1.382,-1.612Zm-9.241,0.998c-0.11,-0.005 -0.213,0.002 -0.325,0.026c-0.15,0.031 -0.293,0.094 -0.434,0.179c-0.563,0.338 -1.322,0.632 -1.68,0.639c-0.358,0.007 -0.651,0.276 -0.651,0.614l0,1.075c0,0.252 0.489,0.153 1.084,-0.205c0.597,-0.357 1.377,-0.678 1.735,-0.742c0.357,-0.063 0.871,-0.174 1.138,-0.23c0.266,-0.056 0.245,-0.489 -0.054,-0.947c-0.169,-0.257 -0.483,-0.395 -0.813,-0.409Zm-6.26,3.224c-0.124,0.018 -0.267,0.062 -0.379,0.128c-0.452,0.263 -0.578,0.827 -0.299,1.253c0.28,0.427 0.876,0.545 1.328,0.282c0.452,-0.264 0.577,-0.827 0.299,-1.254c-0.21,-0.32 -0.577,-0.463 -0.949,-0.409Zm26.585,2.942c-3.081,0 -3.377,1.036 -0.651,2.277c2.811,1.28 3.252,1.192 3.252,-0.639c0,-1.274 -0.578,-1.638 -2.601,-1.638Zm13.306,0.332c-0.124,0.019 -0.266,0.063 -0.38,0.129c-0.451,0.264 -0.577,0.827 -0.297,1.254c0.278,0.426 0.876,0.545 1.327,0.281c0.452,-0.264 0.578,-0.827 0.298,-1.254c-0.209,-0.32 -0.576,-0.463 -0.948,-0.41Zm-18.212,2.457c-0.123,0.018 -0.266,0.062 -0.379,0.128c-0.452,0.263 -0.577,0.827 -0.298,1.253c0.28,0.427 0.877,0.546 1.328,0.282c0.452,-0.263 0.578,-0.827 0.298,-1.254c-0.209,-0.319 -0.577,-0.462 -0.949,-0.409Zm31.219,0c-0.123,0.018 -0.266,0.062 -0.379,0.128c-0.452,0.263 -0.578,0.827 -0.298,1.253c0.279,0.427 0.876,0.546 1.328,0.282c0.452,-0.263 0.577,-0.827 0.298,-1.254c-0.209,-0.319 -0.577,-0.462 -0.949,-0.409Zm-4.335,0.819c-0.124,0.018 -0.267,0.062 -0.38,0.128c-0.451,0.263 -0.577,0.827 -0.298,1.253c0.279,0.427 0.876,0.546 1.328,0.282c0.452,-0.264 0.577,-0.827 0.298,-1.254c-0.21,-0.32 -0.576,-0.463 -0.948,-0.409Zm18.184,2.251c-0.394,-0.002 -0.791,0.069 -1.112,0.256c-0.507,0.296 -0.708,0.886 -0.433,1.305c0.662,1.012 2.764,0.984 3.442,-0.051c0.494,-0.754 -0.716,-1.502 -1.897,-1.51Zm-40.732,0.205c-0.123,0.018 -0.266,0.062 -0.379,0.128c-0.452,0.264 -0.577,0.827 -0.298,1.254c0.279,0.426 0.876,0.545 1.328,0.281c0.452,-0.264 0.577,-0.827 0.298,-1.254c-0.21,-0.32 -0.577,-0.463 -0.949,-0.409Zm-3.468,0.819c-0.124,0.018 -0.267,0.062 -0.38,0.127c-0.451,0.264 -0.577,0.828 -0.298,1.255c0.279,0.426 0.876,0.544 1.328,0.281c0.452,-0.264 0.577,-0.827 0.298,-1.254c-0.21,-0.32 -0.576,-0.463 -0.948,-0.409Zm26.666,0.588c-0.301,0.012 -0.561,0.095 -0.705,0.231c-0.288,0.272 0.224,0.444 1.138,0.409c1.01,-0.039 1.207,-0.225 0.515,-0.486c-0.313,-0.118 -0.647,-0.165 -0.948,-0.154Zm-89.107,6.781c-0.124,0.018 -0.266,0.062 -0.38,0.128c-0.451,0.263 -0.576,0.827 -0.297,1.253c0.279,0.427 0.876,0.545 1.328,0.282c0.451,-0.264 0.577,-0.827 0.297,-1.254c-0.209,-0.32 -0.576,-0.463 -0.948,-0.409Zm-1.731,9.825c-0.124,0.018 -0.267,0.063 -0.379,0.128c-0.452,0.264 -0.578,0.827 -0.299,1.254c0.279,0.427 0.876,0.545 1.328,0.281c0.452,-0.263 0.577,-0.827 0.299,-1.253c-0.21,-0.32 -0.577,-0.464 -0.949,-0.41Zm7.805,0.819c-0.124,0.018 -0.267,0.062 -0.38,0.128c-0.451,0.264 -0.577,0.827 -0.297,1.254c0.278,0.426 0.876,0.545 1.328,0.281c0.451,-0.263 0.577,-0.827 0.297,-1.254c-0.209,-0.32 -0.576,-0.463 -0.948,-0.409Zm-4.333,0.818c-0.124,0.018 -0.266,0.063 -0.379,0.129c-0.452,0.264 -0.577,0.827 -0.298,1.254c0.279,0.426 0.876,0.545 1.328,0.281c0.451,-0.263 0.577,-0.827 0.298,-1.254c-0.209,-0.32 -0.577,-0.463 -0.949,-0.41Zm150.03,4.914c-0.124,0.017 -0.267,0.062 -0.379,0.127c-0.452,0.264 -0.578,0.827 -0.298,1.254c0.278,0.427 0.875,0.545 1.327,0.282c0.452,-0.264 0.577,-0.828 0.299,-1.254c-0.21,-0.32 -0.577,-0.464 -0.949,-0.409Zm-1.756,32.75c-0.124,0.018 -0.267,0.062 -0.379,0.128c-0.452,0.263 -0.578,0.827 -0.299,1.253c0.28,0.427 0.876,0.546 1.328,0.282c0.452,-0.264 0.577,-0.827 0.299,-1.254c-0.21,-0.319 -0.577,-0.463 -0.949,-0.409Zm-159.848,-158.724c-0.039,0.067 -0.077,0.134 -0.115,0.201l0.535,-0.113l-0.42,-0.088Zm211.416,-3.336c-0.62,-0.077 -1.4,-0.311 -2.289,-0.746c-1.712,-0.836 -2.978,-2.246 -3.496,-3.94c-0.446,-1.458 -0.851,-2.063 -0.894,-1.33c-0.043,0.733 -0.672,1.802 -1.409,2.379c-0.781,0.612 -1.1,1.596 -0.759,2.354c0.504,1.122 0.853,2.774 1.138,5.194c0.04,0.338 1.131,0.614 2.412,0.614c2.664,0 6.341,2.877 6.341,4.964c0,0.774 0.642,1.656 1.437,1.944c1.018,0.369 1.189,0.771 0.542,1.382c-1.276,1.205 -4.58,-0.55 -4.58,-2.431c-0,-1.701 -1.62,-3.402 -3.225,-3.402c-0.624,-0 -1.732,1.414 -2.466,3.147c-0.735,1.732 -2.515,3.983 -3.957,4.989c-2.519,1.758 -2.73,1.776 -5.61,0.486c-1.647,-0.738 -2.771,-1.699 -2.493,-2.124c0.669,-1.021 3.63,-0.985 4.309,0.052c2.71,4.14 5.733,-10.176 3.089,-14.636c-0.413,-0.697 -0.321,-2.057 0.217,-3.173c1.082,-2.241 -0.17,-3.432 -3.577,-3.454c-1.434,-0.009 -2.235,0.654 -2.873,2.38c-0.487,1.321 -1.826,2.995 -2.981,3.71c-1.85,1.144 -1.982,1.495 -1.029,3.096c0.594,0.998 1.767,2.297 2.601,2.891c0.835,0.594 1.518,1.638 1.518,2.303c0,2.002 -2.569,2.28 -4.607,0.511c-1.115,-0.968 -3.774,-1.893 -6.423,-2.226c-4.219,-0.53 -4.668,-0.39 -6.585,1.715c-1.428,1.568 -2.511,2.075 -3.577,1.688c-1.319,-0.478 -1.368,-0.749 -0.352,-1.919c0.938,-1.081 0.653,-1.046 -1.383,0.205c-1.409,0.866 -3.902,2.005 -5.528,2.533c-2.644,0.858 -3.003,0.797 -3.387,-0.589c-0.396,-1.428 -0.626,-1.442 -2.9,-0.332c-1.355,0.662 -3.302,1.202 -4.336,1.202c-1.034,0 -3.221,1.106 -4.851,2.457c-3.31,2.744 -4.79,3.023 -6.368,1.228c-0.884,-1.006 -0.735,-1.328 0.813,-1.868c1.757,-0.614 1.689,-0.75 -1.192,-2.047c-3.362,-1.513 -3.568,-1.279 -2.141,2.584c1.159,3.14 -0.214,5.466 -2.521,4.248c-1.524,-0.806 -6.617,1.99 -5.826,3.198c0.239,0.365 -0.11,1.082 -0.786,1.612c-0.954,0.747 -1.835,0.676 -3.902,-0.333c-2.882,-1.407 -3.6,-0.873 -1.138,0.845c1.134,0.791 1.277,1.315 0.541,2.021c-1.519,1.456 -6.243,-1.202 -6.964,-3.915c-0.324,-1.218 -1.39,-2.841 -2.385,-3.607c-1.61,-1.242 -1.66,-1.448 -0.379,-1.919c0.792,-0.292 2.642,0.059 4.092,0.767c4.621,2.257 12.249,1.045 12.249,-1.944c-0,-1.312 -10.01,-6.602 -12.493,-6.602c-0.648,0 -1.649,-0.571 -2.249,-1.253c-0.827,-0.941 -2.091,-1.107 -5.203,-0.717c-4.564,0.572 -6.724,-0.778 -3.306,-2.072c1.983,-0.751 1.981,-0.768 -0.325,-0.819c-1.284,-0.029 -2.578,-0.42 -2.873,-0.87c-0.295,-0.45 -0.932,-0.819 -1.409,-0.819c-0.478,0 -0.575,0.461 -0.217,1.024c0.516,0.812 0.393,0.822 -0.651,0.025c-0.928,-0.709 -1.598,-0.743 -2.249,-0.128c-0.651,0.615 -1.101,0.565 -1.572,-0.153c-0.456,-0.698 -0.318,-0.813 0.461,-0.358c0.752,0.438 0.926,0.346 0.515,-0.282c-0.424,-0.648 -1.123,-0.695 -2.195,-0.153c-0.862,0.435 -1.872,0.526 -2.249,0.204c-0.378,-0.322 -0.407,-0.151 -0.082,0.384c0.911,1.501 -2.057,2.677 -4.525,1.791c-1.948,-0.699 -2.034,-0.646 -0.948,0.691c0.651,0.802 0.85,1.178 0.433,0.844c-0.417,-0.334 -1.284,-0.194 -1.925,0.307c-0.639,0.502 -1.164,0.643 -1.164,0.307c-0,-0.335 -0.567,-0.174 -1.247,0.359c-0.68,0.532 -1.753,0.899 -2.385,0.818c-2.666,-0.341 -3.541,0.032 -2.601,1.101c1.195,1.359 -0.129,3.444 -2.196,3.454c-0.972,0.004 -1.544,0.612 -1.544,1.637c-0.001,0.901 -0.251,1.453 -0.569,1.228c-0.319,-0.225 -1.536,0.416 -2.683,1.433c-1.147,1.017 -2.393,1.57 -2.792,1.228c-0.397,-0.342 -0.496,0.039 -0.189,0.845c0.325,0.854 0.136,1.59 -0.488,1.765c-4.24,1.189 -4.504,1.367 -3.252,2.098c0.683,0.398 1.289,1.691 1.355,2.865c0.138,2.434 -2.073,3.973 -4.01,2.815c-1.692,-1.01 -2.594,-0.956 -2.331,0.128c0.119,0.493 -0.525,1.322 -1.437,1.842c-4.324,2.47 -5.106,3.968 -3.685,7.088c0.307,0.676 0.469,2.333 0.352,3.685c-0.181,2.1 0.124,2.499 2.06,2.711c1.455,0.16 3.209,-0.524 4.932,-1.893l2.683,-2.123l1.22,2.302c0.675,1.26 1.727,3.751 2.33,5.552c1.554,4.639 1.67,4.741 3.957,3.327c1.131,-0.701 2.903,-1.28 3.929,-1.28c1.471,0 1.759,-0.354 1.382,-1.714c-0.651,-2.35 0.786,-5.655 2.466,-5.655c0.755,0 1.142,-0.348 0.867,-0.768c-0.274,-0.418 -0.06,-1 0.461,-1.304c0.621,-0.363 0.324,-1.182 -0.867,-2.38c-1.515,-1.522 -1.69,-2.358 -1.111,-4.989c0.649,-2.948 2.135,-4.372 6.91,-6.601c0.596,-0.278 1.084,-1.271 1.084,-2.2c0,-3.809 5.395,-6.196 7.804,-3.455c1.212,1.379 0.94,1.837 -4.363,7.062c-2.677,2.638 -3.03,3.442 -2.736,6.345c0.45,4.461 1.544,5.141 5.799,3.659c4.132,-1.439 8.828,-1.521 10.541,-0.179c2.475,1.939 0.259,2.603 -10.325,3.096c-1.637,0.076 -2.125,2.901 -0.65,3.761c1.183,0.691 1.092,3.454 -0.135,4.171c-0.55,0.32 -1.513,-0.084 -2.141,-0.896c-1.667,-2.151 -4.051,-0.152 -3.361,2.815c0.405,1.741 -0.026,2.529 -2.195,4.042c-2.151,1.502 -2.917,1.664 -3.929,0.87c-1.011,-0.792 -2.136,-0.551 -5.664,1.177c-4.199,2.057 -4.437,2.084 -4.851,0.589c-0.376,-1.356 -0.769,-1.47 -2.981,-0.743c-2.089,0.688 -2.874,0.59 -4.282,-0.613c-1.013,-0.866 -1.509,-2.012 -1.193,-2.764c1.276,-3.028 1.185,-4.247 -0.297,-3.966c-1.499,0.284 -1.715,1.767 -0.976,6.781c0.337,2.283 0.159,2.457 -2.466,2.533c-1.553,0.045 -3.547,0.688 -4.417,1.433c-0.871,0.744 -1.822,1.12 -2.141,0.819c-0.319,-0.301 -0.596,0.163 -0.596,1.049c-0,1.999 -1.585,3.581 -3.604,3.581c-0.842,0 -1.959,0.742 -2.467,1.638c-1.043,1.842 -5.726,4.395 -6.856,3.736c-0.408,-0.239 -0.967,0.315 -1.219,1.228c-0.367,1.324 -0.899,1.549 -2.684,1.126c-2.902,-0.688 -3.015,1.038 -0.135,2.072c2.246,0.806 4.568,4.856 4.688,8.188c0.098,2.709 -2.218,5.009 -4.525,4.503c-2.839,-0.623 -10.347,-1.06 -11.436,-0.665c-0.618,0.224 -0.823,1.809 -0.569,4.298c0.22,2.164 -0.028,4.669 -0.542,5.578c-1.323,2.334 0.552,5.953 3.089,5.961c1.05,0.004 2.279,0.635 2.737,1.408c0.69,1.163 1.168,1.232 2.846,0.46c1.116,-0.512 3.008,-1.115 4.2,-1.356c3.228,-0.651 5.437,-2.471 5.691,-4.682c0.125,-1.08 0.259,-2.23 0.299,-2.558c0.039,-0.33 1.642,-1.359 3.549,-2.278c2.565,-1.235 3.469,-2.18 3.469,-3.607c0,-2.6 2.08,-4.052 4.987,-3.506c1.398,0.263 3.076,-0.032 4.064,-0.716c2.499,-1.729 4.567,-1.443 6.315,0.921c2.353,3.184 7.057,7.214 8.726,7.445c2.257,0.313 4.643,3.518 4.011,5.399c-0.385,1.147 -0.224,1.455 0.515,1.024c0.621,-0.363 0.852,-1.527 0.569,-2.866c-0.567,-2.677 0.119,-3.619 1.734,-2.354c0.781,0.612 1.165,0.629 1.165,0.051c0,-0.474 -1.792,-1.704 -3.983,-2.737c-2.537,-1.196 -4.578,-2.921 -5.637,-4.759c-0.914,-1.588 -2.154,-3.52 -2.737,-4.299c-0.864,-1.154 -0.791,-1.684 0.407,-2.815c1.37,-1.294 1.513,-1.301 2.032,-0.025c0.306,0.753 0.872,1.191 1.247,0.972c0.375,-0.219 1.307,0.503 2.059,1.587c0.752,1.083 3.092,3.155 5.23,4.605c2.629,1.782 4.103,3.44 4.499,5.143c0.683,2.938 4.612,7.906 6.26,7.906c0.624,0 0.895,-0.387 0.596,-0.844c-0.299,-0.458 -0.973,-0.584 -1.49,-0.281c-0.575,0.335 -0.692,0.166 -0.298,-0.436c0.491,-0.75 0.945,-0.749 1.869,-0.025c1.393,1.091 0.838,2.405 -1.002,2.405c-0.687,0 -1.247,0.553 -1.247,1.228c0,1.553 0.421,1.532 3.062,-0.102c2.626,-1.624 2.685,-2.504 0.271,-4.35c-1.71,-1.307 -1.612,-3.946 0.109,-2.943c0.394,0.231 0.949,-0.127 1.219,-0.792c0.35,-0.86 1.44,-1.113 3.822,-0.896c2.616,0.238 3.586,-0.048 4.417,-1.305c0.702,-1.062 0.801,-1.949 0.244,-2.584c-1.239,-1.409 2.744,-8.826 5.935,-11.053c2.127,-1.486 2.939,-1.654 4.389,-0.922c1.316,0.665 1.567,1.181 0.895,1.945c-0.677,0.77 -0.401,1.321 1.138,2.098c2.66,1.344 4.747,0.325 2.52,-1.228c-1.027,-0.716 -1.271,-1.343 -0.704,-1.842c1.241,-1.091 6.579,-2.678 7.398,-2.2c0.927,0.54 0.574,2.403 -0.732,3.888c-0.885,1.007 -0.343,1.736 3.252,4.325c4.999,3.599 5.8,4.988 3.984,6.882c-1.655,1.726 -6.699,1.622 -11.057,-0.23c-3.889,-1.653 -5.628,-1.693 -8.482,-0.153c-1.192,0.643 -2.988,1.186 -4.01,1.202c-1.023,0.016 -2.102,0.608 -2.385,1.305c-0.283,0.697 -0.997,1.2 -1.599,1.126c-2.563,-0.317 -3.058,0.153 -2.791,2.712c0.152,1.464 0.343,2.753 0.433,2.865c0.091,0.113 0.212,0.535 0.271,0.947c0.127,0.879 1.312,2.099 2.141,2.201c0.318,0.038 1.274,0.357 2.141,0.716c0.893,0.369 1.968,0.291 2.466,-0.179c0.595,-0.562 1.823,-0.554 3.822,0.025c2.133,0.619 3.583,0.583 5.175,-0.102c3.136,-1.349 3.363,-0.076 1.328,7.241c-2.039,7.335 -4.098,9.473 -7.506,7.804c-1.622,-0.794 -2.817,-0.849 -4.553,-0.23c-1.906,0.678 -3.606,0.414 -8.834,-1.383c-9.569,-3.287 -9.498,-3.3 -12.114,1.996c-1.084,2.195 -3.286,1.801 -8.807,-1.586c-2.983,-1.829 -6.106,-3.326 -6.965,-3.326c-0.859,-0 -2.368,-0.752 -3.333,-1.663c-1.385,-1.308 -1.557,-1.984 -0.84,-3.25c1.1,-1.94 0.297,-5.455 -1.382,-6.064c-0.67,-0.242 -3.398,-0.057 -6.07,0.41c-2.673,0.466 -5.401,0.652 -6.071,0.409c-0.67,-0.243 -4.495,0.659 -8.509,1.996c-7.698,2.565 -10.474,2.957 -11.355,1.612c-0.919,-1.403 -1.747,-0.908 -2.765,1.637c-0.539,1.349 -2.188,3.1 -3.658,3.89c-2.439,1.31 -3.324,3.336 -2.737,6.268c0.355,1.774 -2.121,5.571 -4.336,6.652c-1.324,0.647 -3.609,3.178 -5.095,5.63c-1.485,2.451 -3.146,4.589 -3.686,4.758c-1.223,0.386 -1.706,2.035 -1.732,6.754c22.533,27.839 56.983,45.637 95.589,45.637c14.599,0 28.604,-2.545 41.595,-7.216c2.677,-4.546 5.317,-10.162 5.55,-12.221c0.15,-1.329 0.958,-2.606 1.897,-2.993c2.003,-0.826 0.062,-0.547 -8.32,1.227c-5.328,1.129 -5.758,1.109 -8.022,-0.409c-1.317,-0.883 -2.203,-1.918 -1.951,-2.302c0.252,-0.385 0.044,-0.935 -0.461,-1.229c-0.504,-0.294 -1.873,-2.008 -3.062,-3.786c-1.189,-1.779 -2.937,-3.951 -3.875,-4.836c-0.938,-0.886 -1.708,-2.155 -1.708,-2.814c0,-0.66 -0.78,-1.591 -1.734,-2.073c-1.36,-0.687 -1.735,-1.714 -1.735,-4.759c0,-2.135 -0.52,-4.613 -1.164,-5.501c-0.645,-0.888 -1.413,-2.533 -1.708,-3.659c-0.295,-1.126 -1.92,-4.019 -3.604,-6.422c-1.685,-2.404 -3.063,-4.866 -3.063,-5.475c0,-1.969 1.731,-2.184 2.466,-0.307c0.673,1.715 0.759,1.723 1.356,0.255c0.595,-1.465 0.728,-1.432 2.33,0.486c2.144,2.567 4.255,7.095 4.255,9.109c-0,0.845 0.575,1.535 1.274,1.535c1.644,0 3.062,2.552 3.062,5.501c-0,2.459 1.44,4.906 5.068,8.623c1.45,1.486 2.268,3.306 2.357,5.322c0.299,6.777 1.764,8.642 5.393,6.831c0.828,-0.413 4.417,-2.099 7.994,-3.736c3.578,-1.636 7.747,-3.644 9.269,-4.451c3.171,-1.683 9.339,-6.612 8.32,-6.653c-0.375,-0.015 0.193,-0.706 1.246,-1.535c1.053,-0.83 1.677,-1.743 1.382,-2.022c-0.294,-0.278 0.14,-1.226 0.976,-2.097c1.468,-1.531 1.406,-1.652 -2.005,-3.685c-2.06,-1.227 -3.769,-2.979 -4.093,-4.196l-0.569,-2.073l-1.3,1.766c-1.466,1.976 -6.772,4.353 -8.049,3.607c-0.456,-0.265 -0.84,-0.967 -0.84,-1.56c-0,-0.594 -0.585,-1.537 -1.301,-2.099c-0.715,-0.56 -1.292,-1.62 -1.301,-2.353c-0.009,-0.733 -1.209,-2.973 -2.655,-4.99c-2.346,-3.268 -2.483,-3.778 -1.247,-4.63c1.975,-1.365 4.64,-0.455 6.016,2.047c2.041,3.709 6.247,6.066 9.729,5.449c2.549,-0.451 3.119,-0.287 3.496,1.075c0.577,2.083 3.413,2.813 11.897,2.994c6.249,0.133 7.023,0.317 8.672,2.251c0.996,1.168 2.885,2.38 4.201,2.687c2.919,0.681 3.838,1.859 1.978,2.533c-1.066,0.386 -1.149,0.761 -0.38,1.637c1.452,1.652 3.113,1.385 3.659,-0.588c0.859,-3.103 2.356,-0.737 2.276,3.608c-0.005,0.309 -0.008,0.621 -0.007,0.93c18.298,-21.457 29.343,-49.287 29.343,-79.698c0,-23.607 -6.654,-45.658 -18.188,-64.382Zm-99.416,31.519c0.157,-0.015 0.324,-0.012 0.488,-0c1.092,0.076 2.292,0.683 2.818,1.611c1.213,2.139 1.129,2.769 -0.298,2.252c-0.657,-0.238 -1.535,-0.111 -1.951,0.281c-0.43,0.406 -1.176,-0.136 -1.735,-1.253c-0.54,-1.081 -0.776,-2.158 -0.515,-2.405c0.3,-0.283 0.722,-0.445 1.193,-0.486Zm44.983,43.803c1.41,0.002 1.707,0.429 1.707,1.894c0,1.398 -0.382,1.847 -1.246,1.535c-0.68,-0.247 -1.679,0.093 -2.25,0.741c-0.569,0.65 -0.761,1.177 -0.406,1.177c0.355,0 0.211,0.491 -0.325,1.101c-0.748,0.851 -0.485,1.598 1.111,3.223c1.143,1.164 1.873,2.326 1.626,2.559c-0.247,0.234 -0.196,1.086 0.136,1.894c0.56,1.364 0.685,1.352 1.68,0.076c0.991,-1.269 1.148,-1.254 2.113,0.205c0.896,1.354 0.802,1.586 -0.65,1.586c-2.344,0 -3.014,1.364 -1.165,2.38c0.845,0.465 1.296,0.856 1.002,0.87c-0.293,0.013 -0.233,1.483 0.109,3.249c0.548,2.829 0.385,3.253 -1.219,3.659c-3.362,0.852 -5.438,0.503 -7.074,-1.202c-1.537,-1.605 -1.545,-1.884 -0.217,-5.373c1.165,-3.057 1.198,-3.764 0.217,-4.12c-1.611,-0.583 -4.901,-9.105 -4.255,-11.028c0.626,-1.859 5.122,-4.204 8.429,-4.401c0.249,-0.014 0.476,-0.026 0.677,-0.025Zm17.457,2.073c1.111,-0 0.886,3.64 -0.298,4.758c-1.41,1.331 -2.141,1.216 -2.791,-0.383c-0.536,-1.319 1.621,-4.375 3.089,-4.375Z" style="fill:#2d8a06;"/><path d="M142.698,15.097c-49.136,0 -99.699,36.889 -108.797,89.684c-9.103,52.799 13.087,103.386 85.893,113.782c72.805,10.392 127.613,-40.195 128.94,-104.953c1.331,-64.753 -55.06,-98.513 -106.036,-98.513Z" style="fill:#fff;fill-opacity:0.11;fill-rule:nonzero;"/><path d="M148.518,20.347c-42.15,3.836 -76.208,22.569 -82.28,59.384c-6.072,36.81 24.438,81.428 79.75,72.256c55.317,-9.169 68.33,-44.941 67.751,-74.666c-0.579,-29.721 -22.991,-50.212 -65.221,-56.974Z" style="fill:#fff;fill-opacity:0.1;fill-rule:nonzero;"/></g></svg>