<?xml version="1.0" encoding="UTF-8" standalone="no"?><!DOCTYPE svg PUBLIC "-//W3C//DTD SVG 1.1//EN" "http://www.w3.org/Graphics/SVG/1.1/DTD/svg11.dtd"><svg width="100%" height="100%" viewBox="0 0 286 271" version="1.1" xmlns="http://www.w3.org/2000/svg" xmlns:xlink="http://www.w3.org/1999/xlink" xml:space="preserve" xmlns:serif="http://www.serif.com/" style="fill-rule:evenodd;clip-rule:evenodd;stroke-linejoin:round;stroke-miterlimit:2;"><g id="North-America" serif:id="North America"><path d="M146.06,0.671c-64.669,0 -131.216,48.55 -143.19,118.034c-11.98,69.49 17.224,136.069 113.045,149.752c95.821,13.677 167.955,-52.902 169.701,-138.131c1.752,-85.223 -72.465,-129.655 -139.556,-129.655Z" style="fill-opacity:0.11;fill-rule:nonzero;"/><path d="M143.743,6.058c-68.623,0 -124.257,55.631 -124.257,124.261c-0,68.623 55.634,124.245 124.257,124.245c68.623,0 124.253,-55.622 124.253,-124.245c0,-68.63 -55.63,-124.261 -124.253,-124.261" style="fill:#23c3e5;fill-rule:nonzero;"/><path d="M55.142,44.735c-7.763,8.037 -14.442,17.13 -19.799,27.041c1.612,1.139 4.845,2.094 8.634,2.508c2.44,0.266 6.318,1.382 8.624,2.484c2.846,1.36 4.511,1.748 5.207,1.203c0.714,-0.56 1.455,-0.191 2.441,1.229c0.776,1.119 1.409,2.279 1.409,2.561c0,0.835 3.819,3.58 5.018,3.61c1.838,0.045 3.861,5.486 2.63,7.066c-0.431,0.554 0.17,1.266 1.573,1.87c2.236,0.961 2.257,1.003 0.678,2.79c-0.882,0.999 -1.064,1.388 -0.407,0.845c1.654,-1.364 4.915,0.197 3.58,1.716c-1.085,1.234 -0.353,2.125 1.736,2.125c2.18,-0 9.491,6.802 9.491,8.833c0,1.945 -1.35,3.096 -2.17,1.843c-1.207,-1.844 -1.726,-0.595 -1.816,4.277c-0.053,2.817 -0.245,7.333 -0.407,10.037c-0.307,5.134 1.821,11.195 3.796,10.831c0.531,-0.098 1.014,0.617 1.085,1.587c0.198,2.696 3.815,7.676 6.183,8.526c1.165,0.419 1.862,1.157 1.546,1.639c-0.345,0.527 0.065,0.771 1.031,0.615c1.259,-0.203 1.934,0.715 3.173,4.25c0.867,2.479 2.335,5.269 3.253,6.196c1.21,1.221 1.421,1.937 0.733,2.587c-0.688,0.649 -0.214,1.509 1.735,3.149c1.481,1.245 2.713,3.029 2.74,3.968c0.051,1.837 4.836,5.958 5.83,5.019c0.331,-0.312 -0.064,-0.918 -0.895,-1.357c-0.831,-0.439 -1.519,-1.189 -1.519,-1.664c0,-0.476 -1.171,-2.503 -2.603,-4.506c-1.432,-2.004 -2.605,-3.91 -2.603,-4.226c0.001,-0.315 -0.859,-2.118 -1.926,-4.02c-1.498,-2.67 -1.719,-3.676 -0.922,-4.429c1.188,-1.121 3.716,0.337 3.716,2.151c-0,0.571 1.756,3.313 3.905,6.068c2.147,2.755 3.905,5.29 3.905,5.659c-0,0.368 1.305,2.121 2.902,3.892c3.846,4.266 4.92,6.292 4.366,8.295c-0.596,2.152 2.203,4.242 11.633,8.654c6,2.807 7.541,3.241 8.868,2.458c1.313,-0.774 2.168,-0.577 4.746,1.075c4.087,2.619 9.647,5.275 11.011,5.275c2.148,-0 5.939,4.348 5.939,6.811c0,2.026 0.196,2.253 1.275,1.408c1.051,-0.824 1.447,-0.661 2.223,0.947c0.594,1.232 1.789,2.015 3.2,2.125c1.234,0.097 2.682,0.521 3.227,0.948c0.664,0.52 1.337,0.261 2.034,-0.794c2.326,-3.517 6.261,1.742 6.129,8.194c-0.059,2.878 -0.679,4.398 -2.929,6.99c-1.577,1.817 -3.347,5.08 -3.932,7.272c-0.959,3.598 -0.922,4.068 0.488,4.813c1.476,0.78 1.454,0.899 -0.271,2.15l-1.817,1.332l2.875,6.145c0.27,0.577 0.56,1.216 0.86,1.896c20.62,-5.717 39.062,-16.67 53.805,-31.337c-1.279,-0.542 -2.647,-0.873 -3.952,-0.873c-2.391,-0 -3.754,-0.671 -6.237,-3.073c-1.748,-1.69 -4.133,-3.944 -5.316,-5.018c-1.183,-1.074 -1.9,-2.334 -1.6,-2.791c0.359,-0.549 -0.976,-0.645 -3.878,-0.282c-2.769,0.347 -4.608,0.234 -4.962,-0.307c-0.311,-0.474 -1.013,-0.801 -1.573,-0.717c-1.732,0.26 -5.8,-1.637 -5.858,-2.739c-0.03,-0.575 -0.409,-0.221 -0.841,0.793c-0.431,1.014 -1.152,1.844 -1.6,1.844c-0.448,-0 -0.615,0.685 -0.379,1.536c0.617,2.23 -1.209,2.926 -2.36,0.896c-0.763,-1.346 -0.651,-2.15 0.434,-3.712c1.785,-2.572 0.469,-2.571 -2.088,-0c-1.089,1.094 -2.514,1.775 -3.173,1.536c-1.101,-0.4 -1.507,0.246 -3.444,5.402c-0.331,0.883 -0.933,0.688 -2.603,-0.794c-1.961,-1.738 -2.483,-1.839 -5.614,-1.049c-3.305,0.832 -3.578,0.767 -5.723,-1.639c-2.063,-2.315 -2.211,-2.941 -1.708,-7.579c0.543,-4.999 0.529,-5.075 -1.844,-5.71c-1.32,-0.353 -3.78,-0.656 -5.451,-0.691c-2.844,-0.06 -3.003,-0.242 -2.739,-2.535c0.155,-1.347 0.573,-2.821 0.949,-3.277c0.377,-0.456 0.938,-2.386 1.247,-4.301c0.499,-3.087 0.386,-3.483 -1.111,-3.483c-3.814,0 -6.036,1.492 -6.319,4.251c-0.255,2.483 -0.549,2.73 -4.122,3.303c-4.823,0.771 -7.142,-0.498 -9.573,-5.249c-1.709,-3.34 -2.408,-10.426 -1.139,-11.624c0.344,-0.325 0.516,-1.831 0.379,-3.329c-0.217,-2.378 0.16,-2.955 3.037,-4.635c3.904,-2.277 4.873,-2.469 7.946,-1.561c1.278,0.377 3.652,0.889 5.262,1.152c2.614,0.428 2.797,0.357 1.762,-0.82c-0.985,-1.12 -0.906,-1.508 0.543,-2.509c1.092,-0.755 2.486,-0.965 3.877,-0.589c1.193,0.323 3.203,0.543 4.475,0.487c2.638,-0.117 4.93,2.489 5.37,6.145c0.337,2.807 2.357,5.966 3.824,5.966c1.475,-0 1.378,-1.084 -0.651,-7.784c-0.955,-3.152 -1.736,-6.232 -1.736,-6.836c-0,-0.604 2.083,-3.074 4.638,-5.505c2.553,-2.431 4.466,-4.616 4.23,-4.839c-0.236,-0.223 0.195,-0.639 0.976,-0.922c0.782,-0.283 1.221,-0.806 0.976,-1.178c-0.243,-0.372 -0.025,-0.92 0.461,-1.204c0.597,-0.348 0.57,-1.05 -0.054,-2.15c-1.074,-1.895 -0.752,-6.043 0.461,-6.043c0.456,0 1.078,0.922 1.411,2.048c0.493,1.676 0.634,1.737 0.705,0.385c0.132,-2.519 4.276,-7.758 6.129,-7.758c3.25,-0 4.376,-0.845 3.308,-2.459c-0.768,-1.162 -0.667,-1.944 0.488,-3.61c0.812,-1.17 2.073,-2.125 2.794,-2.125c0.72,-0 3.145,-0.878 5.396,-1.946c2.8,-1.328 4.644,-1.728 5.831,-1.28c1.001,0.378 1.226,0.684 0.515,0.717c-1.726,0.08 -4.421,2.528 -4.421,4.02c0,0.994 0.394,0.907 1.953,-0.41c1.075,-0.907 3.202,-2.124 4.719,-2.688c1.517,-0.565 2.985,-1.564 3.254,-2.228c0.27,-0.663 0.875,-0.972 1.356,-0.691c0.481,0.28 0.868,0.172 0.868,-0.231c-0,-1.665 -1.091,-1.53 -3.118,0.385c-1.734,1.636 -2.407,1.841 -3.418,1.05c-0.69,-0.542 -0.975,-1.409 -0.651,-1.921c0.441,-0.695 0.256,-0.695 -0.677,-0c-0.987,0.735 -1.733,0.459 -3.58,-1.331c-2.448,-2.373 -2.378,-3.278 0.298,-3.278c0.893,0 1.6,-0.582 1.6,-1.331c0,-2.074 -5.818,-0.841 -8.813,1.869c-1.735,1.569 -2.748,1.988 -3.39,1.383c-1.268,-1.198 6.161,-7.293 9.708,-7.964c1.493,-0.281 4.638,-0.511 6.997,-0.511c2.358,-0 5.141,-0.445 6.183,-0.974c1.042,-0.528 3.07,-1.18 4.502,-1.458c2.257,-0.439 2.603,-0.861 2.603,-3.201c0,-3.602 -1.088,-4.266 -4.99,-2.996c-2.21,0.719 -3.446,0.806 -3.824,0.231c-0.704,-1.078 2.069,-3.065 4.421,-3.15c1.263,-0.046 1.409,-0.185 0.488,-0.512c-0.716,-0.254 -2.306,-1.147 -3.552,-1.971c-1.247,-0.824 -2.473,-1.302 -2.712,-1.075c-0.24,0.225 -1.08,-0.524 -1.872,-1.665c-0.791,-1.141 -1.173,-2.074 -0.84,-2.074c0.332,-0 -0.272,-0.858 -1.329,-1.92c-1.057,-1.063 -2.115,-2.979 -2.359,-4.251c-0.709,-3.69 -1.193,-3.861 -3.797,-1.229c-1.469,1.485 -2.995,2.304 -3.77,2.023c-0.712,-0.258 -1.561,-0.054 -1.898,0.461c-0.417,0.636 -1.195,0.341 -2.441,-0.922c-2.047,-2.074 -2.574,-3.76 -1.383,-4.455c1.222,-0.713 0.939,-2.816 -0.38,-2.816c-0.646,-0 -2.306,-0.997 -3.687,-2.228c-1.955,-1.741 -3.436,-2.288 -6.672,-2.381c-3.89,-0.113 -4.249,0.061 -5.315,2.458c-0.756,1.698 -0.86,3.061 -0.325,4.045c0.535,0.987 0.442,1.882 -0.244,2.663c-0.57,0.648 -0.736,1.178 -0.381,1.178c0.356,0 0.214,0.489 -0.325,1.101c-0.747,0.85 -0.569,1.631 0.76,3.226c2.14,2.569 2.207,5.321 0.216,7.989c-0.977,1.31 -1.549,3.746 -1.627,6.887c-0.089,3.588 -0.503,5.113 -1.626,5.889c-1.315,0.907 -2,0.655 -4.963,-1.972c-3.131,-2.774 -3.393,-3.332 -3.038,-6.426l0.38,-3.406l-3.851,-0.409c-2.518,-0.268 -5.466,-1.449 -8.516,-3.431c-2.566,-1.669 -5.037,-2.808 -5.505,-2.535c-1.052,0.614 -2.208,-1.039 -2.251,-3.226c-0.024,-1.224 -0.522,-1.574 -1.979,-1.383c-1.43,0.188 -2.177,-0.312 -2.794,-1.844c-1.211,-3.006 -0.211,-4.969 5.397,-10.523c1.316,-1.304 2.181,-2.682 1.925,-3.073c-0.634,-0.968 2.663,-2.519 4.176,-1.971c0.673,0.244 2.157,-0.29 3.309,-1.178c2.278,-1.754 2.398,-1.617 -2.603,-3.072c-2.293,-0.668 0.442,-2.069 3.498,-1.793c2.702,0.244 2.951,0.49 3.2,3.329c0.196,2.233 -0.104,3.219 -1.112,3.584c-1.107,0.401 -0.898,0.764 1.031,1.716c2.281,1.125 2.521,1.067 4.067,-0.87c1.535,-1.922 1.76,-1.98 3.634,-0.82c1.105,0.683 2.408,1.015 2.875,0.742c1.376,-0.802 -2.893,-4.515 -5.831,-5.069c-1.479,-0.28 -3.295,-1.384 -4.04,-2.458c-1.414,-2.037 -1.244,-2.231 1.871,-1.997c2.056,0.154 7.214,-2.061 7.214,-3.098c-0,-0.353 -0.544,-1.354 -1.221,-2.228c-0.886,-1.144 -0.964,-1.88 -0.298,-2.637c1.24,-1.411 -1.544,-3.396 -4.8,-3.431c-2.063,-0.022 -2.288,0.198 -1.573,1.459c0.638,1.126 0.283,2.123 -1.437,4.199c-2.115,2.552 -2.31,2.624 -3.39,1.229c-0.634,-0.819 -1.166,-2.292 -1.166,-3.277c-0,-0.985 -0.564,-2.229 -1.248,-2.765c-1.002,-0.786 -1.513,-0.563 -2.685,1.126c-1.566,2.258 -3.009,2.108 -3.009,-0.307c-0,-0.844 -0.812,-1.71 -1.872,-1.971c-1.466,-0.362 -1.656,-0.697 -0.895,-1.562c1.346,-1.532 -1.832,-4.86 -4.122,-4.917c-0.328,-0.008 -0.619,0.064 -0.895,0.204c-3.171,1.603 -3.249,5.735 -0.108,5.735c2.359,0 2.624,0.697 1.247,3.303c-1.643,3.11 -2.471,3.534 -4.556,2.305c-1.298,-0.766 -2.199,-0.799 -3.715,-0.103c-3.602,1.654 -9.192,1.966 -12.421,0.692c-1.669,-0.659 -3.037,-1.575 -3.037,-2.049c-0,-0.947 -4.223,-1.187 -6.509,-0.358c-1.153,0.418 -1.222,0.676 -0.298,1.229c0.636,0.381 1.752,0.665 2.467,0.64c0.859,-0.03 0.711,-0.278 -0.433,-0.743c-1.415,-0.574 -1.468,-0.721 -0.271,-0.768c2.241,-0.088 2.873,1.636 0.786,2.151c-1.353,0.334 -1.772,1.014 -1.6,2.535c0.315,2.792 -1.743,3.3 -2.793,0.691c-0.982,-2.436 -3.885,-3.353 -8.733,-2.739c-3.908,0.494 -6.388,-1.166 -3.796,-2.535c1.353,-0.715 1.32,-0.855 -0.435,-1.741c-1.44,-0.728 -2.235,-0.744 -3.118,-0.052c-0.897,0.703 -1.883,0.589 -4.068,-0.486c-3.816,-1.878 -9.553,-2.856 -10.847,-1.844c-0.682,0.534 -1.881,0.37 -3.634,-0.486c-2.447,-1.195 -2.846,-1.176 -5.506,0.333c-7.005,3.973 -9.595,5.048 -10.386,4.301c-0.512,-0.484 0.585,-1.559 2.929,-2.893c2.058,-1.171 3.27,-2.159 2.685,-2.176c-0.585,-0.018 -2.314,0.704 -3.852,1.587c-2.242,1.288 -3.067,1.409 -4.148,0.615c-1.13,-0.83 -1.187,-0.8 -0.38,0.23c1.187,1.516 2.184,6.182 1.465,6.862c-0.954,0.9 -2.875,-1.286 -2.875,-3.277c-0,-1.072 -0.293,-1.963 -0.651,-1.998c-0.657,-0.063 -1.421,-0.208 -2.394,-0.462Zm120.501,69.671c0.372,-0.054 0.74,0.09 0.949,0.41c0.279,0.426 0.153,0.991 -0.298,1.254c-0.453,0.264 -1.05,0.146 -1.329,-0.281c-0.28,-0.427 -0.154,-0.991 0.298,-1.255c0.113,-0.066 0.255,-0.11 0.38,-0.128Zm7.407,6.35c0.102,-0.011 0.177,-0.011 0.245,-0c0.179,0.029 0.237,0.15 0.162,0.333c-0.257,0.633 -1.769,1.479 -3.362,1.895c-1.594,0.415 -4.233,1.722 -5.858,2.893c-1.626,1.17 -3.452,2.125 -4.068,2.125c-1.679,-0 2.323,-2.626 8.38,-5.505c2.236,-1.063 3.789,-1.666 4.501,-1.741Zm-0.799,-9.755c0.306,-0.012 0.633,0.036 0.922,0.205c0.971,0.566 0.32,2.048 -0.895,2.048c-0.421,-0 -1,-0.349 -1.274,-0.769c-0.482,-0.734 0.33,-1.45 1.247,-1.484Zm-25.138,-6.76c0.477,0 0.867,0.369 0.867,0.82c0,0.45 -0.39,0.819 -0.867,0.819c-0.477,0 -0.868,-0.369 -0.868,-0.819c-0,-0.451 0.391,-0.82 0.868,-0.82Zm2.032,4.481c0.469,0.03 0.99,0.202 1.709,0.512c1.237,0.532 2.843,2.17 3.579,3.636c1.122,2.23 2.004,2.791 5.397,3.38c2.231,0.387 4.217,1.163 4.421,1.74c0.203,0.578 -0.118,0.946 -0.733,0.82c-0.639,-0.132 -1.33,0.821 -1.626,2.228c-0.519,2.454 -0.537,2.452 -1.628,0.589c-0.601,-1.027 -1.408,-1.673 -1.817,-1.434c-0.408,0.238 -0.564,-0.264 -0.325,-1.127c0.282,-1.017 -0.182,-1.892 -1.302,-2.458c-1.45,-0.733 -1.96,-0.494 -3.281,1.382c-0.867,1.231 -1.803,3.887 -2.062,5.915c-0.297,2.337 -0.715,3.298 -1.165,2.638c-0.391,-0.574 -0.598,-2.048 -0.461,-3.278c0.136,-1.229 -0.001,-2.592 -0.299,-3.047c-0.756,-1.155 1.17,-3.441 3.227,-3.814c4.935,-0.898 -2.722,-4.006 -8.516,-3.457c-3.219,0.304 -3.405,0.245 -1.491,-0.538c1.193,-0.488 3.007,-1.616 4.014,-2.509c0.976,-0.866 1.577,-1.229 2.359,-1.178Zm-52.288,-95.955c-0.982,0.554 -1.523,1.11 -1.284,1.475c0.655,1.001 1.117,0.878 4.42,-1.05c1.131,-0.659 2.046,-1.438 2.44,-2.025c-1.876,0.491 -3.735,1.024 -5.576,1.6Zm-18.735,7.614c0.845,-0.078 1.614,0.1 1.854,0.467c0.3,0.459 1.329,-0.327 2.278,-1.741c0.293,-0.437 0.555,-0.797 0.795,-1.084c-1.662,0.75 -3.305,1.537 -4.927,2.358Zm35.496,-11.584c0.148,0.183 0.691,0.189 1.534,-0.009c1.456,-0.342 2.888,0.19 5.071,1.92c3.652,2.895 5.056,2.55 2.631,-0.665c-0.55,-0.729 -1.473,-1.485 -2.573,-2.149c-2.24,0.242 -4.461,0.543 -6.663,0.903Zm-28.791,8.44c0.09,0.046 0.181,0.107 0.275,0.18c0.84,0.658 1.478,0.397 2.494,-0.973c0.13,-0.175 0.246,-0.344 0.348,-0.505c-1.046,0.419 -2.086,0.851 -3.117,1.298Zm56.692,-9.807c-0.198,0.219 -0.862,0.409 -2.082,0.641c-2.345,0.446 -2.658,0.704 -1.518,1.306c0.779,0.412 1.199,1.088 0.922,1.511c-0.281,0.429 0.984,0.768 2.874,0.768c2.284,-0 3.906,-0.536 4.963,-1.639c1.203,-1.255 1.834,-1.426 2.739,-0.717c0.649,0.509 2.357,1.524 3.797,2.253c1.44,0.73 2.694,1.701 2.766,2.151c0.22,1.383 -2.703,1.417 -4.149,0.051c-0.751,-0.709 -0.972,-1.28 -0.489,-1.28c0.484,0 1.116,0.369 1.411,0.82c0.294,0.45 1.185,0.819 1.979,0.819c1.115,-0 0.98,-0.307 -0.57,-1.332c-1.656,-1.096 -2.393,-1.146 -4.284,-0.332c-2.053,0.883 -2.148,1.073 -0.787,1.792c1.591,0.84 1.26,2.351 -0.515,2.33c-0.621,-0.008 -0.511,-0.342 0.271,-0.82c0.716,-0.436 0.911,-0.793 0.434,-0.793c-1.423,-0 -3.466,1.489 -2.848,2.074c0.317,0.298 3.974,0.67 8.136,0.845c4.162,0.174 7.786,0.514 8.027,0.742c0.619,0.585 0.963,0.544 4.204,-0.563c2.986,-1.02 4.051,-2.439 1.329,-1.767c-2.154,0.532 -6.49,-1.164 -5.776,-2.253c0.319,-0.489 1.52,-0.66 2.684,-0.384c1.252,0.297 3.26,-0.059 4.909,-0.871c0.061,-0.03 0.123,-0.06 0.185,-0.091c-3.713,-1.153 -7.502,-2.134 -11.357,-2.936c-2.265,0.044 -5.233,-0.469 -6.757,-1.208c-3.455,-0.518 -6.956,-0.893 -10.498,-1.117Zm84.42,41.48c-0.254,0.106 -0.566,0.223 -0.941,0.358c-1.313,0.474 -2.387,1.276 -2.387,1.793c0,0.684 0.355,0.669 1.275,-0.052c2.016,-1.579 3.441,-0.145 1.681,1.69c-0.821,0.857 -1.137,1.573 -0.705,1.588c0.432,0.014 0.077,0.534 -0.786,1.152c-1.012,0.724 -1.226,1.313 -0.624,1.664c0.513,0.3 0.663,0.979 0.325,1.511c-0.393,0.619 -0.13,0.578 0.76,-0.102c1.575,-1.206 2.677,-0.238 1.6,1.407c-0.45,0.688 0.17,2.33 1.708,4.481c3.367,4.711 5.753,6.588 8.488,6.632c1.287,0.021 2.381,0.486 2.441,1.05c0.059,0.563 0.157,1.234 0.217,1.485c0.126,0.532 1.72,-0.281 3.148,-1.318c-4.498,-8.412 -9.946,-16.239 -16.2,-23.339Zm-104.359,-31.288c-0.531,0.017 -1.058,0.126 -1.545,0.333c-1.44,0.61 -1.394,0.839 0.65,2.918c2.875,2.924 5.614,3.009 5.614,0.18c0,-1.938 -2.416,-3.504 -4.719,-3.431Zm-0.436,0.998c0.463,-0.108 1.142,0.216 1.627,0.768c0.596,0.679 0.67,1.333 0.19,1.614c-0.446,0.26 -1.263,-0.035 -1.817,-0.666c-0.596,-0.679 -0.67,-1.359 -0.19,-1.639c0.056,-0.032 0.123,-0.061 0.19,-0.077Zm-5.828,-0.896c-0.124,0.018 -0.267,0.062 -0.38,0.128c-0.452,0.264 -0.577,0.828 -0.299,1.255c0.28,0.427 0.878,0.545 1.329,0.281c0.453,-0.263 0.578,-0.827 0.299,-1.254c-0.21,-0.32 -0.577,-0.464 -0.949,-0.41Zm-10.63,-0.256c-0.474,0.05 -0.788,0.779 -0.678,2.177c0.139,1.79 -0.253,2.296 -1.844,2.509c-1.102,0.147 -2.849,-0.243 -3.906,-0.896c-1.057,-0.654 -3.501,-1.46 -5.423,-1.767c-3.324,-0.53 -3.499,-0.454 -3.499,1.536c-0,2.027 1.635,2.878 2.631,1.357c0.614,-0.939 4.763,0.045 4.854,1.152c0.037,0.451 -0.823,1.064 -1.925,1.357c-1.729,0.46 -1.625,0.545 0.759,0.615c1.52,0.045 3.863,-0.354 5.206,-0.871c1.344,-0.517 3.988,-1.162 5.858,-1.433c1.87,-0.272 3.552,-0.942 3.742,-1.486c0.219,-0.623 -0.334,-0.85 -1.491,-0.64c-1.325,0.241 -2.046,-0.238 -2.63,-1.69c-0.544,-1.351 -1.181,-1.97 -1.654,-1.92Zm99.13,183.789c-0.125,0.018 -0.267,0.062 -0.38,0.128c-0.452,0.264 -0.578,0.827 -0.298,1.254c0.279,0.427 0.876,0.546 1.329,0.282c0.451,-0.264 0.577,-0.828 0.298,-1.254c-0.21,-0.32 -0.577,-0.464 -0.949,-0.41Zm-10.412,-0.82c-0.123,0.019 -0.266,0.063 -0.379,0.128c-0.452,0.264 -0.578,0.828 -0.299,1.255c0.28,0.427 0.877,0.545 1.329,0.282c0.453,-0.264 0.578,-0.828 0.299,-1.255c-0.21,-0.32 -0.578,-0.464 -0.95,-0.41Zm-11.101,3.892c-0.036,0.008 -0.051,0.024 -0.081,0.052c-0.239,0.225 -0.2,1.032 0.108,1.792c0.309,0.759 0.765,1.198 1.004,0.973c0.238,-0.226 0.173,-1.032 -0.136,-1.793c-0.27,-0.664 -0.645,-1.081 -0.895,-1.024Zm24.109,-0.614c-0.123,0.018 -0.267,0.062 -0.379,0.128c-0.453,0.264 -0.578,0.828 -0.299,1.255c0.28,0.426 0.877,0.545 1.329,0.281c0.453,-0.264 0.578,-0.828 0.299,-1.255c-0.21,-0.32 -0.578,-0.463 -0.95,-0.409Zm-15.601,-131.096c-0.124,0.018 -0.266,0.063 -0.38,0.128c-0.451,0.265 -0.577,0.828 -0.298,1.255c0.28,0.427 0.877,0.546 1.329,0.282c0.452,-0.264 0.578,-0.828 0.298,-1.255c-0.209,-0.32 -0.576,-0.463 -0.949,-0.41Zm-6.384,-19.996c-1.011,-0 -1.596,0.368 -1.301,0.819c0.295,0.451 0.881,0.819 1.301,0.819c0.421,0 1.007,-0.368 1.302,-0.819c0.295,-0.451 -0.291,-0.819 -1.302,-0.819Zm-18.544,13.34c-0.197,0.016 -0.417,0.164 -0.678,0.409c-0.525,0.496 -0.698,1.523 -0.38,2.305c0.42,1.033 0.825,1.193 1.519,0.537c0.525,-0.495 0.698,-1.548 0.38,-2.33c-0.263,-0.646 -0.512,-0.949 -0.841,-0.921Zm-6.671,0.076c-1.21,0.12 -2.651,1.352 -2.061,2.253c0.268,0.41 1.253,0.326 2.25,-0.179c1.257,-0.634 1.522,-1.15 0.868,-1.767c-0.269,-0.254 -0.654,-0.347 -1.057,-0.307Zm7.292,-22.915c-0.123,0.017 -0.267,0.062 -0.379,0.127c-0.453,0.264 -0.578,0.828 -0.299,1.255c0.28,0.427 0.877,0.546 1.329,0.282c0.453,-0.264 0.578,-0.828 0.299,-1.255c-0.21,-0.32 -0.578,-0.463 -0.95,-0.409Zm7.239,4.685c-0.099,0.002 -0.192,0.032 -0.299,0.051c-2.177,0.399 -2.494,2.305 -0.379,2.305c1.066,-0 1.816,-0.521 1.816,-1.281c0,-0.667 -0.452,-1.09 -1.138,-1.075Zm-6.376,-1.408c-0.124,0.018 -0.267,0.062 -0.379,0.128c-0.453,0.264 -0.579,0.828 -0.299,1.254c0.279,0.427 0.877,0.546 1.329,0.282c0.452,-0.264 0.577,-0.828 0.298,-1.254c-0.209,-0.321 -0.577,-0.464 -0.949,-0.41Zm5.214,16.386c-0.123,0.019 -0.266,0.063 -0.379,0.128c-0.452,0.264 -0.578,0.828 -0.299,1.256c0.28,0.426 0.877,0.544 1.329,0.281c0.453,-0.264 0.578,-0.828 0.299,-1.255c-0.21,-0.32 -0.578,-0.463 -0.95,-0.41Zm-117.021,-18.332c-0.477,-0 -1.453,0.357 -2.169,0.794c-0.717,0.436 -0.912,0.793 -0.435,0.793c0.478,0 1.454,-0.357 2.17,-0.793c0.716,-0.437 0.912,-0.794 0.434,-0.794Zm71.861,-2.868c-0.404,0.042 -0.8,0.408 -1.465,1.101c-1.344,1.403 -1.348,1.59 -0.081,2.049c0.767,0.277 1.173,0.855 0.894,1.28c-0.315,0.481 0.52,0.494 2.251,0.025c1.527,-0.413 3.087,-1.22 3.472,-1.792c0.562,-0.836 0.721,-0.845 0.732,0c0.007,0.578 -0.588,1.252 -1.302,1.511c-0.713,0.258 -1.078,0.8 -0.813,1.203c0.884,1.351 1.973,0.761 3.335,-1.818l1.356,-2.56l-2.739,0.512c-1.857,0.351 -3.188,0.127 -4.176,-0.717c-0.652,-0.558 -1.06,-0.835 -1.464,-0.794Zm41.69,22.02c-0.125,0.018 -0.267,0.062 -0.381,0.128c-0.451,0.264 -0.577,0.828 -0.298,1.254c0.28,0.427 0.877,0.546 1.329,0.282c0.452,-0.264 0.578,-0.827 0.298,-1.254c-0.209,-0.32 -0.577,-0.464 -0.948,-0.41Zm-0.855,104.876c-0.124,0.018 -0.266,0.062 -0.379,0.128c-0.452,0.264 -0.578,0.828 -0.298,1.255c0.279,0.427 0.876,0.545 1.329,0.281c0.451,-0.263 0.577,-0.828 0.298,-1.255c-0.21,-0.32 -0.577,-0.463 -0.95,-0.409Zm3.473,-3.277c-0.124,0.018 -0.266,0.062 -0.379,0.127c-0.452,0.264 -0.578,0.829 -0.298,1.255c0.278,0.427 0.876,0.545 1.328,0.282c0.452,-0.264 0.578,-0.828 0.299,-1.255c-0.21,-0.32 -0.578,-0.463 -0.95,-0.409Zm0.867,3.277c-0.125,0.018 -0.267,0.062 -0.38,0.128c-0.452,0.264 -0.578,0.828 -0.298,1.255c0.279,0.427 0.876,0.545 1.328,0.281c0.452,-0.263 0.578,-0.828 0.299,-1.255c-0.21,-0.32 -0.577,-0.463 -0.949,-0.409Zm-4.34,-4.097c-0.124,0.018 -0.266,0.062 -0.379,0.128c-0.452,0.264 -0.578,0.828 -0.298,1.255c0.279,0.426 0.876,0.545 1.329,0.281c0.451,-0.264 0.577,-0.827 0.298,-1.254c-0.21,-0.32 -0.577,-0.463 -0.95,-0.41Zm21.675,35.232c-0.123,0.018 -0.266,0.062 -0.379,0.128c-0.452,0.264 -0.578,0.828 -0.298,1.254c0.279,0.427 0.876,0.546 1.328,0.282c0.453,-0.264 0.579,-0.827 0.299,-1.254c-0.21,-0.32 -0.578,-0.463 -0.95,-0.41Zm14.764,-7.374c-0.124,0.018 -0.266,0.062 -0.38,0.128c-0.452,0.263 -0.577,0.828 -0.298,1.254c0.279,0.427 0.877,0.546 1.329,0.282c0.452,-0.264 0.578,-0.828 0.298,-1.255c-0.21,-0.32 -0.577,-0.463 -0.949,-0.409Zm4.334,6.555c-0.125,0.018 -0.267,0.062 -0.38,0.127c-0.452,0.264 -0.578,0.829 -0.298,1.255c0.279,0.427 0.876,0.546 1.329,0.282c0.451,-0.264 0.577,-0.828 0.298,-1.255c-0.209,-0.32 -0.577,-0.463 -0.949,-0.409Zm-3.467,-3.278c-0.123,0.018 -0.266,0.063 -0.379,0.128c-0.452,0.264 -0.607,0.789 -0.353,1.178c0.255,0.388 0.06,0.941 -0.433,1.229c-0.493,0.287 -0.659,0.879 -0.38,1.305c0.279,0.428 0.876,0.546 1.329,0.282c0.452,-0.263 0.607,-0.789 0.352,-1.178c-0.254,-0.388 -0.059,-0.941 0.434,-1.228c0.493,-0.288 0.659,-0.879 0.38,-1.306c-0.21,-0.32 -0.578,-0.464 -0.95,-0.41Zm-8.677,-45.064c-0.124,0.018 -0.267,0.062 -0.38,0.128c-0.452,0.264 -0.577,0.828 -0.298,1.254c0.279,0.427 0.877,0.546 1.328,0.282c0.453,-0.264 0.579,-0.827 0.299,-1.254c-0.21,-0.321 -0.577,-0.464 -0.949,-0.41Zm-85.043,-137.649c-0.124,0.018 -0.267,0.062 -0.38,0.128c-0.452,0.264 -0.578,0.828 -0.298,1.255c0.279,0.427 0.876,0.545 1.329,0.281c0.452,-0.263 0.578,-0.827 0.298,-1.254c-0.209,-0.32 -0.577,-0.464 -0.949,-0.41Zm19.473,3.866c-0.584,0.003 -0.708,0.243 -0.515,0.794c0.226,0.651 2.041,1.328 4.23,1.562c3.235,0.346 3.915,0.729 4.285,2.458c0.423,1.976 1.238,2.359 5.776,2.714c1.035,0.081 2.206,0.465 2.604,0.845c0.398,0.38 3.466,0.484 6.806,0.23c3.342,-0.253 7.37,-0.472 8.95,-0.486c1.768,-0.015 2.65,-0.344 2.305,-0.871c-0.308,-0.47 -0.041,-1.484 0.596,-2.253c1.003,-1.208 0.99,-1.283 -0.135,-0.461c-0.716,0.524 -2.278,0.936 -3.471,0.922c-1.193,-0.014 -5.49,0.168 -9.546,0.384c-7.567,0.403 -11.281,-0.608 -11.281,-3.072c0,-0.59 -1.426,-1.244 -3.254,-1.485c-1.79,-0.237 -4.374,-0.699 -5.75,-1.025c-0.724,-0.171 -1.249,-0.257 -1.6,-0.256Zm-37.699,-1.408c-0.124,0.018 -0.267,0.062 -0.38,0.128c-0.452,0.264 -0.578,0.828 -0.298,1.255c0.279,0.427 0.877,0.545 1.329,0.281c0.452,-0.263 0.577,-0.827 0.298,-1.254c-0.21,-0.32 -0.577,-0.464 -0.949,-0.41Zm34.554,-5.274c-0.264,0.014 -0.032,0.34 0.624,1.101c1.354,1.571 2.366,1.753 3.145,0.563c0.295,-0.451 0.168,-0.819 -0.298,-0.819c-0.466,-0 -1.566,-0.254 -2.441,-0.564c-0.524,-0.186 -0.873,-0.29 -1.03,-0.281Zm15.781,3.635c-0.123,0.018 -0.266,0.063 -0.379,0.128c-0.453,0.264 -0.578,0.828 -0.299,1.255c0.28,0.427 0.877,0.546 1.329,0.282c0.453,-0.264 0.578,-0.828 0.299,-1.255c-0.21,-0.32 -0.578,-0.463 -0.95,-0.41Zm19.742,0.589c-0.301,0.012 -0.561,0.095 -0.704,0.231c-0.289,0.272 0.224,0.445 1.138,0.41c1.011,-0.04 1.208,-0.225 0.516,-0.487c-0.313,-0.118 -0.648,-0.165 -0.95,-0.154Zm18.878,169.937c-1.324,-0.031 -2.166,0.155 -1.899,0.563c0.234,0.357 -0.3,0.906 -1.166,1.229c-2.423,0.903 3.02,1.719 6.156,0.922c1.381,-0.351 2.845,-0.444 3.255,-0.205c0.409,0.239 0.732,0.07 0.732,-0.358c-0,-0.429 -1.074,-1.07 -2.386,-1.435c-1.578,-0.438 -3.368,-0.686 -4.692,-0.716Zm-12.611,2.151c-0.393,-0.003 -0.79,0.068 -1.112,0.256c-0.507,0.296 -0.708,0.886 -0.433,1.305c0.662,1.012 2.766,0.985 3.444,-0.051c0.494,-0.755 -0.716,-1.503 -1.899,-1.51Zm2.636,-12.905c-0.127,0.015 -0.267,0.062 -0.38,0.128c-0.452,0.264 -0.578,0.828 -0.298,1.255c0.279,0.427 0.836,0.573 1.247,0.333c0.411,-0.24 0.997,-0.056 1.302,0.409c0.305,0.466 0.931,0.623 1.383,0.359c0.452,-0.264 0.578,-0.828 0.298,-1.255c-0.28,-0.427 -0.836,-0.573 -1.247,-0.333c-0.412,0.24 -0.997,0.056 -1.302,-0.409c-0.229,-0.349 -0.625,-0.53 -1.003,-0.487Zm28.626,14.748c-0.123,0.018 -0.266,0.062 -0.379,0.128c-0.452,0.264 -0.578,0.827 -0.299,1.255c0.28,0.427 0.877,0.545 1.329,0.281c0.453,-0.263 0.578,-0.828 0.299,-1.254c-0.21,-0.32 -0.578,-0.464 -0.95,-0.41Zm-31.229,-17.206c-0.124,0.018 -0.267,0.062 -0.38,0.128c-0.452,0.264 -0.578,0.828 -0.298,1.254c0.279,0.427 0.877,0.546 1.329,0.282c0.452,-0.264 0.577,-0.827 0.298,-1.254c-0.21,-0.32 -0.577,-0.464 -0.949,-0.41Zm-9.466,3.866c-1.356,-0.003 -2.446,0.362 -3.47,1.076c-1.638,1.139 -1.621,1.177 0.487,1.92c1.193,0.42 2.072,1.02 1.953,1.306c-0.449,1.077 -0.175,1.41 0.705,0.896c0.622,-0.363 0.586,-0.9 -0.108,-1.69c-0.703,-0.8 -0.739,-1.152 -0.082,-1.152c1.42,-0 10.499,4.173 10.414,4.788c-0.04,0.292 -0.029,0.814 0.028,1.152c0.178,1.071 5.071,0.66 6.101,-0.512c0.798,-0.908 -0.369,-1.773 -6.074,-4.506c-4.679,-2.242 -7.693,-3.273 -9.954,-3.278Zm-6.167,13.34c-0.124,0.018 -0.266,0.062 -0.38,0.128c-0.451,0.264 -0.577,0.827 -0.297,1.255c0.279,0.427 0.876,0.545 1.329,0.281c0.451,-0.263 0.577,-0.828 0.297,-1.254c-0.209,-0.32 -0.576,-0.464 -0.949,-0.41Zm19.971,-17.206c-0.123,0.018 -0.266,0.062 -0.379,0.128c-0.452,0.264 -0.577,0.828 -0.298,1.254c0.279,0.427 0.877,0.546 1.329,0.282c0.452,-0.264 0.578,-0.827 0.298,-1.254c-0.21,-0.32 -0.577,-0.464 -0.95,-0.41Zm23.42,16.387c-0.124,0.018 -0.267,0.062 -0.38,0.128c-0.452,0.263 -0.578,0.827 -0.298,1.254c0.28,0.427 0.877,0.546 1.329,0.282c0.452,-0.264 0.577,-0.827 0.298,-1.255c-0.209,-0.32 -0.577,-0.463 -0.949,-0.409Zm-19.08,-11.471c-0.124,0.018 -0.267,0.062 -0.38,0.128c-0.453,0.264 -0.578,0.828 -0.299,1.255c0.28,0.426 0.878,0.545 1.329,0.281c0.453,-0.264 0.578,-0.827 0.299,-1.254c-0.21,-0.321 -0.577,-0.464 -0.949,-0.41Zm26.023,13.11c-0.125,0.017 -0.267,0.061 -0.38,0.128c-0.452,0.263 -0.578,0.827 -0.298,1.254c0.279,0.427 0.876,0.546 1.329,0.282c0.451,-0.264 0.577,-0.828 0.297,-1.255c-0.209,-0.32 -0.576,-0.464 -0.948,-0.409Zm-24.291,-9.833c-0.124,0.018 -0.267,0.062 -0.379,0.129c-0.453,0.263 -0.579,0.827 -0.299,1.254c0.28,0.427 0.877,0.546 1.329,0.282c0.452,-0.264 0.578,-0.828 0.298,-1.255c-0.209,-0.32 -0.577,-0.464 -0.949,-0.41Zm13.558,6.427c-0.917,0.035 -1.729,0.75 -1.248,1.485c0.275,0.42 0.854,0.768 1.275,0.768c1.216,0 1.865,-1.482 0.895,-2.049c-0.289,-0.168 -0.617,-0.216 -0.922,-0.204Zm-11.818,-8.885c-0.124,0.018 -0.267,0.062 -0.379,0.128c-0.453,0.264 -0.578,0.828 -0.299,1.255c0.28,0.427 0.877,0.545 1.329,0.282c0.452,-0.264 0.578,-0.828 0.298,-1.255c-0.209,-0.32 -0.577,-0.463 -0.949,-0.41Zm18.774,-71.36c-0.263,0.015 -0.487,0.074 -0.706,0.154c-1.311,0.481 -1.306,0.631 0.218,1.69c1.947,1.353 3.637,1.522 4.366,0.41c0.631,-0.965 -2.037,-2.354 -3.878,-2.254Zm-35.274,-19.587c-0.123,0.018 -0.266,0.062 -0.379,0.128c-0.452,0.264 -0.578,0.828 -0.298,1.254c0.279,0.428 0.876,0.546 1.329,0.282c0.452,-0.263 0.578,-0.827 0.298,-1.254c-0.21,-0.32 -0.577,-0.463 -0.95,-0.41Zm49.46,26.219c-0.124,0.018 -0.267,0.062 -0.379,0.128c-0.453,0.264 -0.578,0.828 -0.299,1.255c0.279,0.426 0.877,0.545 1.329,0.281c0.452,-0.264 0.577,-0.827 0.299,-1.254c-0.21,-0.321 -0.578,-0.464 -0.95,-0.41Zm1.461,-8.782c-0.819,0.103 -2.461,0.986 -4.285,2.56c-3.212,2.773 -3.445,3.243 -2.386,4.609c1.163,1.502 2.812,1.489 7.132,-0.077c1.069,-0.387 1.353,-0.264 0.895,0.435c-0.359,0.549 -0.396,1.64 -0.081,2.407c0.532,1.296 0.634,1.275 1.708,-0.102c0.744,-0.954 1.364,-1.156 1.736,-0.589c0.317,0.485 0.958,0.648 1.41,0.384c0.452,-0.264 0.578,-0.828 0.298,-1.255c-0.279,-0.426 -0.915,-0.519 -1.41,-0.23c-0.564,0.329 -0.69,-0.097 -0.352,-1.101c0.767,-2.283 -2.212,-4.669 -4.855,-3.892c-1.97,0.58 -1.974,0.554 -0.433,-1.075c1.442,-1.526 1.443,-2.178 0.623,-2.074Zm-55.071,-8.398c-0.227,-0.014 -0.46,0.101 -0.705,0.332c-0.654,0.617 -0.59,1.238 0.19,2.125c1.541,1.753 2.842,0.743 1.681,-1.306c-0.42,-0.741 -0.786,-1.129 -1.166,-1.151Zm-7.054,-58.532c-0.21,0 -0.38,0.369 -0.38,0.819c0,0.451 0.417,0.82 0.923,0.82c0.505,-0 0.674,-0.369 0.379,-0.82c-0.295,-0.45 -0.711,-0.819 -0.922,-0.819Zm-70.368,-16.054c-0.125,0.018 -0.267,0.062 -0.38,0.128c-0.452,0.264 -0.578,0.828 -0.298,1.255c0.279,0.427 0.876,0.545 1.328,0.281c0.452,-0.263 0.578,-0.827 0.299,-1.254c-0.21,-0.32 -0.577,-0.464 -0.949,-0.41Zm66.92,8.68c-2.606,-0 -6.481,3.013 -6.481,5.044c-0,2.33 2.719,6.417 4.312,6.478c0.732,0.028 5.234,0.172 10.006,0.307c6.032,0.171 9.737,0.69 12.15,1.716c1.909,0.812 4.164,1.536 5.017,1.613c2.645,0.239 3.664,1.789 2.278,3.456c-1.103,1.326 -1.072,1.357 0.244,0.384c1.244,-0.918 1.595,-0.833 2.386,0.564c0.511,0.9 0.922,2.148 0.922,2.791c0,0.79 0.664,1.071 2.061,0.819c2.533,-0.457 3.598,0.858 1.817,2.253c-1.061,0.832 -1.589,0.768 -2.848,-0.307c-1.412,-1.207 -1.726,-1.197 -3.498,-0.026c-1.542,1.02 -1.727,1.517 -0.922,2.433c0.559,0.635 0.661,1.168 0.244,1.203c-0.416,0.035 -2.498,0.127 -4.637,0.205c-2.939,0.107 -3.98,0.504 -4.204,1.587c-0.214,1.037 0.278,1.444 1.736,1.434c1.109,-0.007 2.533,-0.334 3.173,-0.717c1.256,-0.751 7.946,1.855 7.946,3.098c-0,0.392 1.044,0.976 2.332,1.281c1.78,0.422 2.069,0.712 1.139,1.254c-0.848,0.495 -0.413,0.69 1.437,0.64c1.467,-0.039 4.192,0.678 6.047,1.588c4.383,2.147 4.338,2.156 2.468,0.204c-1.564,-1.631 -1.574,-1.702 0.136,-2.125c2.778,-0.686 1.912,-3.484 -2.332,-7.45c-3.692,-3.45 -3.79,-3.647 -2.17,-4.788c2.274,-1.602 2.503,-1.534 5.723,1.305c2.179,1.923 3.066,2.258 3.986,1.537c0.651,-0.51 0.959,-1.286 0.678,-1.716c-0.282,-0.43 0.307,-0.977 1.329,-1.229c1.733,-0.428 1.756,-0.566 0.434,-1.946c-0.78,-0.813 -1.886,-1.312 -2.468,-1.101c-0.582,0.211 -1.779,-0.363 -2.658,-1.28c-0.885,-0.923 -2.69,-1.664 -4.04,-1.664c-2.919,-0 -5.056,-2.771 -2.984,-3.867c0.698,-0.368 1.015,-1.031 0.679,-1.485c-0.779,-1.049 -5.587,-3.187 -6.617,-2.944c-0.43,0.101 -1.406,-0.053 -2.17,-0.333c-1.219,-0.446 -1.18,-0.638 0.298,-1.664c1.409,-0.979 1.456,-1.178 0.271,-1.178c-0.779,-0 -1.656,0.367 -1.952,0.819c-0.334,0.511 -1.097,0.537 -2.007,0.077c-0.807,-0.407 -1.855,-0.775 -2.332,-0.819c-0.478,-0.045 -0.868,-0.486 -0.868,-0.973c0,-1.601 -2.911,-2.931 -5.586,-2.561c-1.446,0.201 -2.434,0.698 -2.17,1.101c0.78,1.192 -2.135,1.811 -3.499,0.743c-0.688,-0.54 -1.623,-0.758 -2.088,-0.487c-1.176,0.687 -2.282,-1.219 -1.979,-3.431c0.199,-1.456 -0.172,-1.838 -1.763,-1.817c-1.108,0.014 -2.59,0.475 -3.309,1.024c-1.506,1.15 -1.961,5.459 -0.732,6.862c0.546,0.623 0.465,1.163 -0.217,1.562c-1.588,0.926 -3.394,-2.031 -3.254,-5.326l0.108,-2.919l0.543,3.277c0.465,2.817 0.614,3.012 1.111,1.357c0.822,-2.729 -0.9,-5.863 -3.226,-5.863Zm38.377,33.798c1.183,-0.04 4.434,1.31 5.018,2.201c0.312,0.479 0.25,0.863 -0.136,0.845c-1.207,-0.056 -5.645,-2.531 -5.234,-2.919c0.071,-0.067 0.183,-0.122 0.352,-0.127Zm-75.798,-40.839c-0.123,0.018 -0.266,0.062 -0.379,0.128c-0.453,0.264 -0.578,0.828 -0.299,1.254c0.28,0.427 0.877,0.546 1.329,0.282c0.453,-0.264 0.578,-0.828 0.299,-1.255c-0.21,-0.32 -0.578,-0.463 -0.95,-0.409Zm15.627,-1.639c-0.125,0.018 -0.267,0.062 -0.38,0.128c-0.452,0.264 -0.578,0.828 -0.298,1.255c0.28,0.427 0.876,0.545 1.329,0.281c0.452,-0.263 0.577,-0.827 0.298,-1.254c-0.209,-0.32 -0.577,-0.464 -0.949,-0.41Zm-65.96,17.206c-0.124,0.018 -0.267,0.062 -0.379,0.128c-0.453,0.264 -0.579,0.828 -0.299,1.255c0.279,0.427 0.877,0.545 1.329,0.281c0.452,-0.263 0.577,-0.827 0.298,-1.254c-0.209,-0.32 -0.577,-0.464 -0.949,-0.41Zm15.484,-11.675c-2.04,-0.005 -4.568,1.043 -4.448,2.202c0.323,3.108 -0.158,4.316 -2.006,5.018c-1.485,0.564 -1.583,0.754 -0.435,0.794c0.832,0.028 1.967,0.747 2.523,1.587c1.101,1.665 3.508,1.488 5.152,-0.384c0.552,-0.627 1.54,-1.152 2.197,-1.152c0.658,0 1.193,-0.355 1.193,-0.794c0,-0.439 1.169,-1.361 2.576,-2.048c3.229,-1.576 4.677,-1.598 1.764,-0.026c-1.194,0.644 -1.78,1.169 -1.303,1.178c1.495,0.029 3.342,-1.406 3.553,-2.765c0.261,-1.675 -2.567,-3.087 -5.559,-2.791c-1.283,0.127 -2.837,-0.081 -3.444,-0.435c-0.456,-0.266 -1.083,-0.383 -1.763,-0.384Zm61.207,1.075c-1.991,0.081 -4.593,0.573 -5.262,1.203c-0.43,0.407 -0.516,2.095 -0.189,3.739c0.491,2.473 0.817,2.827 1.844,2.022c0.682,-0.534 1.023,-1.312 0.759,-1.715c-0.264,-0.403 0.219,-0.964 1.084,-1.255c2.271,-0.762 4.634,-2.854 4.123,-3.635c-0.204,-0.312 -1.165,-0.408 -2.359,-0.359Zm26.548,1.331c-1.174,-0.026 -2.007,0.312 -2.007,1.025c0,1.671 1.071,2.31 3.011,1.818c0.966,-0.246 2.543,-0.465 3.498,-0.487c1.546,-0.036 1.499,-0.16 -0.434,-1.203c-1.377,-0.743 -2.894,-1.126 -4.068,-1.153Zm-32.894,-6.273c-0.163,-0.007 -0.328,0.008 -0.487,0.026c-0.424,0.047 -0.808,0.173 -1.085,0.435c-0.665,0.628 -0.57,1.114 0.353,1.665c1.499,0.894 2.787,0.657 3.226,-0.589c0.29,-0.82 -0.863,-1.481 -2.007,-1.537Zm-16.779,-1.587c-0.066,0.015 -0.134,0.044 -0.189,0.077c-0.481,0.28 -0.407,0.96 0.189,1.638c0.555,0.631 1.371,0.927 1.818,0.666c0.479,-0.28 0.406,-0.935 -0.191,-1.613c-0.485,-0.552 -1.163,-0.876 -1.627,-0.768Zm11.599,6.734c-0.413,0.014 -1.02,0.257 -1.953,0.717c-1.279,0.63 -2.87,1.149 -3.525,1.152c-0.927,0.004 -0.953,0.253 -0.163,1.152c1.445,1.643 -0.292,2.444 -2.739,1.255c-2.593,-1.26 -1.167,0.128 3.227,3.149c1.909,1.313 3.611,2.073 3.77,1.69c0.159,-0.383 0.996,-0.691 1.871,-0.691c2.264,-0 2.566,-1.675 0.624,-3.508c-1.13,-1.067 -1.39,-1.837 -0.787,-2.407c0.488,-0.46 0.696,-1.317 0.461,-1.895c-0.171,-0.421 -0.374,-0.628 -0.786,-0.614Zm-16.87,1.05c-0.477,-0 -0.77,0.446 -0.651,0.998c0.12,0.553 -0.661,1.126 -1.735,1.28c-1.392,0.201 -1.952,0.843 -1.952,2.228c-0,2.324 -1.528,3.495 -2.251,1.715c-0.282,-0.693 -1.629,-1.794 -2.983,-2.432c-2.152,-1.014 -2.519,-1 -2.956,0.077c-0.418,1.028 -0.724,1.053 -1.872,0.153c-1.155,-0.905 -1.52,-0.854 -2.223,0.333c-1.083,1.827 -2.697,0.899 -2.007,-1.152c0.29,-0.863 0.252,-1.562 -0.082,-1.562c-0.461,0 -5.062,2.393 -7.132,3.713c-0.132,0.085 0.176,1.186 0.678,2.432c0.859,2.134 1.161,2.229 5.017,1.818c4.2,-0.447 7.579,0.534 6.671,1.921c-0.28,0.428 -3.124,0.798 -6.318,0.845c-5.444,0.079 -5.614,0.146 -2.631,0.896c1.75,0.44 3.826,1.46 4.611,2.278c1.693,1.768 6.652,1.467 12.176,-0.742c3.006,-1.202 3.993,-1.241 7.268,-0.333c2.081,0.577 4.424,1.504 5.207,2.074c1.129,0.822 1.086,0.692 -0.136,-0.666c-1.606,-1.784 -1.105,-2.736 1.98,-3.815c0.716,-0.25 0.104,-0.476 -1.356,-0.512c-1.46,-0.035 -3.324,-0.532 -4.149,-1.101c-1.951,-1.347 -4.156,-7.311 -3.092,-8.346c1.054,-1.025 1.006,-2.1 -0.082,-2.1Zm30.665,198.613c-0.125,0.018 -0.267,0.062 -0.38,0.128c-0.452,0.264 -0.578,0.828 -0.299,1.255c0.28,0.427 0.877,0.545 1.329,0.281c0.452,-0.263 0.578,-0.827 0.298,-1.254c-0.209,-0.32 -0.576,-0.463 -0.948,-0.41Zm-0.001,4.097c-0.124,0.018 -0.267,0.062 -0.38,0.128c-0.452,0.264 -0.578,0.828 -0.299,1.255c0.28,0.426 0.878,0.545 1.329,0.281c0.453,-0.264 0.578,-0.827 0.299,-1.255c-0.21,-0.32 -0.577,-0.463 -0.949,-0.409Zm-3.473,0.051c-0.804,0.025 -1.356,1.116 -0.678,2.151c0.419,0.641 0.839,0.641 1.518,0c0.68,-0.641 0.68,-1.151 0,-1.793c-0.288,-0.271 -0.573,-0.366 -0.84,-0.358Zm6.942,0.768c-0.124,0.018 -0.266,0.062 -0.379,0.128c-0.453,0.264 -0.578,0.828 -0.299,1.255c0.279,0.427 0.877,0.545 1.329,0.281c0.452,-0.263 0.578,-0.827 0.298,-1.254c-0.21,-0.32 -0.577,-0.463 -0.949,-0.41Zm-92.593,-144.768c-0.059,-0.005 -0.127,0.01 -0.19,0.026c-0.823,0.214 -1.14,1.819 -0.57,2.893c0.184,0.345 0.657,0.414 1.058,0.179c0.904,-0.527 0.582,-3.007 -0.298,-3.098Zm-6.322,-5.991c-0.124,0.017 -0.267,0.062 -0.38,0.128c-0.452,0.264 -0.577,0.827 -0.298,1.255c0.28,0.427 0.876,0.545 1.329,0.281c0.452,-0.263 0.578,-0.828 0.298,-1.254c-0.209,-0.32 -0.577,-0.464 -0.949,-0.41Zm17.893,22.276c-0.349,0.037 -0.503,0.179 -0.352,0.409c0.267,0.409 1.232,0.743 2.142,0.743c0.909,0 2.065,0.737 2.576,1.639c0.511,0.901 1.337,1.638 1.817,1.638c1.509,0 -3.021,-3.864 -5.071,-4.327c-0.269,-0.061 -0.497,-0.087 -0.706,-0.102c-0.156,-0.011 -0.29,-0.013 -0.406,-0Zm-11.815,-11.573c-0.803,0.024 -1.355,1.116 -0.678,2.15c0.42,0.642 0.839,0.642 1.518,0c0.68,-0.641 0.68,-1.151 0,-1.792c-0.288,-0.272 -0.573,-0.367 -0.84,-0.358Zm1.081,4.66c-0.038,-0.006 -0.054,0 -0.081,0.025c-0.217,0.205 0.069,1.567 0.651,3.022c0.582,1.454 1.186,2.296 1.329,1.894c0.141,-0.402 -0.172,-1.764 -0.678,-3.021c-0.443,-1.1 -0.955,-1.876 -1.221,-1.92Z" style="fill:#2d8a06;"/><path d="M146.07,7.43c-49.136,-0 -99.699,36.888 -108.797,89.683c-9.102,52.799 13.087,103.387 85.893,113.783c72.806,10.392 127.614,-40.196 128.94,-104.953c1.332,-64.754 -55.06,-98.513 -106.036,-98.513Z" style="fill:#fff;fill-opacity:0.11;fill-rule:nonzero;"/><path d="M151.89,12.679c-42.15,3.836 -76.207,22.57 -82.28,59.384c-6.072,36.81 24.438,81.429 79.751,72.256c55.316,-9.168 68.329,-44.941 67.75,-74.666c-0.579,-29.72 -22.991,-50.211 -65.221,-56.974Z" style="fill:#fff;fill-opacity:0.1;fill-rule:nonzero;"/></g></svg>