<?xml version="1.0" encoding="UTF-8" standalone="no"?><!DOCTYPE svg PUBLIC "-//W3C//DTD SVG 1.1//EN" "http://www.w3.org/Graphics/SVG/1.1/DTD/svg11.dtd"><svg width="100%" height="100%" viewBox="0 0 287 271" version="1.1" xmlns="http://www.w3.org/2000/svg" xmlns:xlink="http://www.w3.org/1999/xlink" xml:space="preserve" xmlns:serif="http://www.serif.com/" style="fill-rule:evenodd;clip-rule:evenodd;stroke-linejoin:round;stroke-miterlimit:2;"><g id="Australia"><path d="M146.725,0.671c-64.67,0 -131.216,48.55 -143.191,118.034c-11.979,69.49 17.225,136.069 113.046,149.752c95.821,13.677 167.954,-52.902 169.701,-138.131c1.752,-85.223 -72.466,-129.655 -139.556,-129.655Z" style="fill-opacity:0.11;fill-rule:nonzero;"/><path d="M138.165,13.254c-68.622,-0 -124.257,55.63 -124.257,124.261c0,68.623 55.635,124.245 124.257,124.245c68.623,-0 124.253,-55.622 124.253,-124.245c0,-68.631 -55.63,-124.261 -124.253,-124.261" style="fill:#23c3e5;fill-rule:nonzero;"/><path d="M127.28,200.674c-1.559,0.665 -3.211,0.992 -4.589,0.319c-1.93,-0.942 -2.419,-1.664 -2.118,-3.153c0.609,-3.007 -1.99,-13.357 -4.018,-16.046c-1.005,-1.332 -1.819,-2.905 -1.819,-3.486c0,-0.61 0.532,-0.382 1.249,0.539c1.172,1.503 1.278,1.512 1.846,0.128c0.365,-0.891 0.041,-2.056 -0.815,-2.948c-2.325,-2.427 -1.765,-5.225 1.412,-6.998c2.257,-1.26 5.525,-2.904 8.295,-3.919c-0.001,-0.087 -0.002,-0.174 -0.003,-0.26c0.492,-0.197 0.879,-0.327 1.143,-0.381c0.092,-0.019 0.169,-0.029 0.23,-0.029c1.415,0 6.676,-4.163 6.543,-5.177c-0.07,-0.532 -0.083,-1.688 -0.027,-2.563c0.099,-1.537 0.146,-1.536 1.276,-0.078c0.846,1.093 1.354,1.224 1.819,0.513c0.354,-0.541 0.433,-1.477 0.19,-2.076c-0.251,-0.617 0.491,-1.461 1.684,-1.973c1.156,-0.498 2.089,-1.467 2.089,-2.154c0,-1.51 1.981,-1.304 2.661,0.282c0.476,1.108 5.789,1.983 7.168,1.179c0.381,-0.222 0.262,-0.884 -0.245,-1.461c-0.667,-0.758 -0.563,-1.311 0.38,-2.05c0.718,-0.562 1.126,-1.316 0.896,-1.666c-0.23,-0.351 0.56,-1.254 1.765,-2c1.206,-0.746 1.943,-1.75 1.629,-2.23c-0.192,-0.292 -0.166,-0.448 0.081,-0.487c0.248,-0.039 0.721,0.042 1.412,0.256c1.135,0.352 2.73,0.613 3.557,0.565c0.826,-0.05 1.754,0.261 2.036,0.691c0.281,0.431 0.859,0.567 1.303,0.308c1.035,-0.604 1.057,1.506 0.027,2.538c-0.427,0.428 -1.038,1.952 -1.357,3.383c-0.542,2.432 -0.247,2.821 4.235,5.947c2.638,1.84 5.012,3.332 5.295,3.332c0.952,0 3.877,-6.951 3.963,-9.433c0.107,-3.083 2.087,-8.37 2.742,-7.331c0.268,0.427 0.736,1.939 1.059,3.358c0.322,1.42 1.352,3.231 2.28,4.025c1.12,0.957 1.684,2.5 1.684,4.614c-0,3.908 2.825,9.384 5.212,10.099c0.971,0.29 1.568,0.817 1.33,1.179c-0.236,0.362 0.552,1.663 1.738,2.871c1.186,1.208 2.145,2.495 2.145,2.871c-0,0.773 4.5,3.787 5.321,3.563c1.561,-0.426 -0.613,16.452 -2.66,20.686c-2.051,4.239 -3.657,8.593 -3.937,10.662c-0.152,1.125 -0.794,1.589 -2.037,1.461c-1.064,-0.11 -2.507,0.652 -3.502,1.846c-1.979,2.375 -1.834,2.366 -3.882,0.257c-1.399,-1.442 -1.765,-1.499 -3.041,-0.462c-1.765,1.435 -7.112,0.378 -7.112,-1.41c-0,-0.629 -0.964,-2.237 -2.145,-3.563c-1.182,-1.325 -1.93,-2.613 -1.656,-2.871c0.273,-0.258 0.22,-0.881 -0.109,-1.384c-0.437,-0.667 -0.925,-0.675 -1.819,0.025c-1.493,1.17 -1.525,0.691 -0.19,-2.076c0.752,-1.557 0.745,-2.373 0.027,-3.05c-0.718,-0.677 -1.356,-0.13 -2.47,2.076c-0.832,1.646 -1.74,2.984 -2.009,2.974c-0.27,-0.01 -1.091,-1.192 -1.847,-2.64c-1.828,-3.502 -8.585,-6.064 -12.597,-4.768c-1.467,0.474 -3.649,0.872 -4.859,0.872c-1.211,-0 -3.273,0.922 -4.561,2.05c-1.491,1.303 -3.356,2.051 -5.132,2.051c-1.364,-0 -3.577,0.705 -5.317,1.656c-0.137,0.08 -0.276,0.16 -0.417,0.238c-0.1,0.06 -0.198,0.121 -0.293,0.182c-0.202,0.129 -0.391,0.25 -0.571,0.363c-0.2,0.126 -0.387,0.241 -0.563,0.347c-0.002,-0.061 -0.004,-0.122 -0.005,-0.183Zm-0.839,-64.164c0.206,0.127 0.365,0.28 0.456,0.452c0.147,0.277 -0.061,0.502 -0.447,0.662c-0.964,0.398 -3.042,0.381 -3.489,-0.303c-0.235,-0.359 -0.122,-0.8 0.244,-0.974c0.337,-0.16 0.751,-0.255 1.168,-0.282c0.139,-0.009 0.267,-0.005 0.407,0c0.628,0.024 1.242,0.184 1.661,0.445Zm28.361,-18.516c0.315,-0.018 0.753,0.008 1.33,0.128c4.289,0.891 4.848,1.184 4.371,2.359c-0.256,0.63 0.293,1.795 1.222,2.588c1.617,1.382 1.769,1.371 3.719,-0.359l2.036,-1.794l5.892,2c5.334,1.828 15.106,7.339 15.284,8.612c0.04,0.283 0.178,1.35 0.299,2.383c0.121,1.034 1.545,2.964 3.177,4.282c3.149,2.542 2.905,2.766 -1.602,1.538c-1.553,-0.424 -2.823,-1.253 -2.823,-1.847c-0,-0.593 -0.796,-1.759 -1.766,-2.588c-1.418,-1.212 -2.226,-1.355 -4.126,-0.692c-1.299,0.453 -2.264,1.263 -2.145,1.794c0.33,1.467 -2.877,1.157 -6.38,-0.615c-1.719,-0.87 -3.774,-1.347 -4.561,-1.076c-1.201,0.412 -1.183,0.195 0.19,-1.282c1.506,-1.62 1.548,-1.916 0.299,-3.717c-1.753,-2.526 -9.861,-6.594 -10.67,-5.357c-0.405,0.619 -0.821,0.558 -1.303,-0.18c-0.431,-0.657 -0.139,-1.452 0.76,-2.076c1.314,-0.911 1.236,-1.097 -0.841,-1.845c-2.723,-0.982 -3.731,-2.178 -2.362,-2.256Zm-69.309,0.846c0.372,-0.054 0.74,0.09 0.949,0.41c0.28,0.428 0.155,0.992 -0.298,1.256c-0.452,0.264 -1.051,0.145 -1.33,-0.282c-0.28,-0.427 -0.154,-0.992 0.298,-1.256c0.114,-0.066 0.256,-0.11 0.381,-0.128Zm78.192,-0c0.372,-0.054 0.74,0.09 0.95,0.41c0.28,0.428 0.154,0.992 -0.298,1.256c-0.453,0.264 -1.051,0.145 -1.331,-0.282c-0.28,-0.427 -0.154,-0.992 0.299,-1.256c0.113,-0.066 0.255,-0.11 0.38,-0.128Zm13.9,-0c0.373,-0.054 0.74,0.09 0.95,0.41c0.28,0.428 0.154,0.992 -0.299,1.256c-0.452,0.264 -1.05,0.145 -1.33,-0.282c-0.279,-0.427 -0.153,-0.992 0.299,-1.256c0.113,-0.066 0.256,-0.11 0.38,-0.128Zm16.506,-0c0.373,-0.054 0.741,0.09 0.95,0.41c0.28,0.428 0.154,0.992 -0.298,1.256c-0.453,0.264 -1.051,0.145 -1.33,-0.282c-0.28,-0.427 -0.154,-0.992 0.299,-1.256c0.112,-0.066 0.255,-0.11 0.379,-0.128Zm-42.57,0.051c0.269,-0.009 0.554,0.087 0.842,0.359c0.68,0.642 0.68,1.152 0,1.794c-0.68,0.642 -1.1,0.642 -1.52,0c-0.678,-1.035 -0.126,-2.128 0.678,-2.153Zm-46.045,0.769c0.372,-0.054 0.74,0.09 0.95,0.41c0.279,0.428 0.154,0.992 -0.299,1.256c-0.452,0.264 -1.05,0.146 -1.33,-0.282c-0.28,-0.427 -0.154,-0.992 0.299,-1.256c0.113,-0.066 0.256,-0.11 0.38,-0.128Zm81.661,0c0.373,-0.054 0.741,0.09 0.951,0.41c0.279,0.428 0.153,0.992 -0.299,1.256c-0.453,0.264 -1.05,0.146 -1.33,-0.282c-0.28,-0.427 -0.154,-0.992 0.298,-1.256c0.113,-0.066 0.256,-0.11 0.38,-0.128Zm-46.913,0.821c0.372,-0.055 0.74,0.089 0.949,0.41c0.28,0.427 0.154,0.991 -0.298,1.256c-0.453,0.264 -1.051,0.145 -1.33,-0.283c-0.28,-0.427 -0.154,-0.991 0.298,-1.255c0.114,-0.066 0.256,-0.11 0.381,-0.128Zm3.474,-0c0.373,-0.055 0.741,0.089 0.951,0.41c0.28,0.427 0.154,0.991 -0.299,1.256c-0.453,0.264 -1.05,0.145 -1.33,-0.283c-0.28,-0.427 -0.155,-0.991 0.298,-1.255c0.113,-0.066 0.256,-0.11 0.38,-0.128Zm-39.957,1.64c0.372,-0.054 0.74,0.089 0.95,0.41c0.28,0.427 0.154,0.992 -0.298,1.256c-0.453,0.264 -1.051,0.146 -1.331,-0.282c-0.28,-0.427 -0.154,-0.992 0.299,-1.256c0.113,-0.066 0.255,-0.11 0.38,-0.128Zm95.56,0.102c0.442,0.023 1.096,0.417 1.901,1.256c1.076,1.124 1.317,1.884 0.706,2.461c-0.611,0.577 -1.361,0.199 -2.335,-1.204c-1.101,-1.587 -1.007,-2.55 -0.272,-2.513Zm-112.042,0.462c0.117,0.04 0.329,0.211 0.651,0.513c0.594,0.556 0.865,1.234 0.597,1.486c-0.268,0.253 -0.759,-0.216 -1.086,-1.026c-0.294,-0.73 -0.36,-1.039 -0.162,-0.973Zm62.252,-0c1.5,-0.07 3.014,0.403 3.014,1.153c-0,1.128 -4.487,1.529 -5.186,0.461c-0.314,-0.479 0.014,-1.098 0.733,-1.358c0.441,-0.16 0.939,-0.233 1.439,-0.256Zm-5.81,1.076c0.373,-0.053 0.741,0.09 0.951,0.41c0.28,0.428 0.154,0.992 -0.299,1.256c-0.453,0.264 -1.051,0.146 -1.331,-0.281c-0.28,-0.428 -0.154,-0.993 0.299,-1.257c0.113,-0.066 0.256,-0.11 0.38,-0.128Zm54.216,1.666c1.05,-0.133 0.828,1.602 -1.004,3.333c-2.334,2.203 -3.567,2.542 -4.426,1.23c-0.668,-1.021 0.202,-2.461 1.493,-2.461c0.532,0 1.644,-0.575 2.471,-1.281c0.619,-0.53 1.116,-0.776 1.466,-0.821Zm-40.316,2.435c0.372,-0.053 0.74,0.09 0.95,0.41c0.28,0.428 0.154,0.993 -0.298,1.257c-0.453,0.264 -1.052,0.145 -1.331,-0.282c-0.28,-0.428 -0.154,-0.992 0.298,-1.256c0.114,-0.067 0.256,-0.111 0.381,-0.129Zm32.144,0c0.373,-0.053 0.74,0.09 0.95,0.41c0.28,0.428 0.154,0.993 -0.299,1.257c-0.452,0.264 -1.05,0.145 -1.33,-0.282c-0.279,-0.428 -0.154,-0.992 0.299,-1.256c0.113,-0.067 0.256,-0.111 0.38,-0.129Zm-50.389,0.821c0.373,-0.054 0.741,0.089 0.951,0.41c0.279,0.427 0.154,0.992 -0.299,1.256c-0.453,0.264 -1.05,0.145 -1.33,-0.282c-0.28,-0.427 -0.154,-0.992 0.298,-1.256c0.113,-0.066 0.256,-0.11 0.38,-0.128Zm21.72,-0c0.373,-0.054 0.74,0.089 0.95,0.41c0.28,0.427 0.154,0.992 -0.299,1.256c-0.452,0.264 -1.05,0.145 -1.33,-0.282c-0.279,-0.427 -0.154,-0.992 0.299,-1.256c0.113,-0.066 0.256,-0.11 0.38,-0.128Zm43.438,-0c0.373,-0.054 0.741,0.089 0.951,0.41c0.279,0.427 0.153,0.992 -0.299,1.256c-0.453,0.264 -1.051,0.145 -1.33,-0.282c-0.28,-0.427 -0.154,-0.992 0.299,-1.256c0.112,-0.066 0.255,-0.11 0.379,-0.128Zm3.477,1.64c0.373,-0.053 0.74,0.09 0.951,0.411c0.279,0.427 0.153,0.991 -0.299,1.255c-0.453,0.264 -1.051,0.146 -1.33,-0.282c-0.28,-0.427 -0.154,-0.992 0.298,-1.256c0.113,-0.065 0.256,-0.11 0.38,-0.128Zm-107.32,0.334c0.719,-0.049 1.862,0.184 3.53,0.717c2.094,0.669 4.641,1.018 5.647,0.769c1.769,-0.436 7.48,2.453 7.493,3.794c0.007,0.695 -1.213,0.828 -1.874,0.205c-0.424,-0.401 -2.027,-0.711 -8.877,-1.743c-4.35,-0.655 -7.503,-2.228 -6.761,-3.358c0.154,-0.234 0.411,-0.355 0.842,-0.384Zm16.643,0.359c0.306,-0.012 0.633,0.036 0.923,0.204c0.971,0.568 0.32,2.051 -0.897,2.051c-0.421,0 -1.001,-0.349 -1.276,-0.769c-0.482,-0.736 0.332,-1.452 1.25,-1.486Zm3.8,0.128c0.373,-0.054 0.741,0.089 0.95,0.41c0.28,0.427 0.154,0.992 -0.298,1.256c-0.453,0.264 -1.051,0.145 -1.33,-0.282c-0.28,-0.427 -0.154,-0.992 0.298,-1.256c0.114,-0.066 0.256,-0.11 0.38,-0.128Zm90.894,0.692c0.306,-0.012 0.633,0.036 0.923,0.205c0.971,0.567 0.32,2.051 -0.897,2.051c-0.421,-0 -1,-0.35 -1.276,-0.769c-0.482,-0.737 0.332,-1.452 1.25,-1.487Zm-77.863,0.128c0.373,-0.054 0.741,0.09 0.951,0.41c0.28,0.428 0.154,0.992 -0.299,1.256c-0.453,0.264 -1.05,0.145 -1.33,-0.282c-0.28,-0.427 -0.154,-0.992 0.299,-1.256c0.112,-0.066 0.256,-0.11 0.379,-0.128Zm12.163,0.82c0.373,-0.054 0.74,0.09 0.95,0.411c0.28,0.426 0.154,0.991 -0.298,1.255c-0.453,0.264 -1.051,0.146 -1.33,-0.282c-0.28,-0.427 -0.154,-0.992 0.298,-1.256c0.113,-0.065 0.256,-0.11 0.38,-0.128Zm7.493,0.693c0.306,-0.012 0.634,0.036 0.923,0.204c0.972,0.568 0.321,2.051 -0.896,2.051c-0.421,0 -1.001,-0.349 -1.276,-0.769c-0.482,-0.736 0.331,-1.452 1.249,-1.486Zm55.058,0.128c0.373,-0.054 0.741,0.089 0.951,0.41c0.28,0.427 0.154,0.992 -0.299,1.256c-0.453,0.264 -1.05,0.145 -1.33,-0.282c-0.28,-0.428 -0.154,-0.992 0.298,-1.256c0.113,-0.066 0.257,-0.111 0.38,-0.128Zm7.494,0.666c1.162,0.043 2.164,1.417 1.221,2.307c-0.628,0.593 -1.227,0.494 -1.954,-0.333c-0.774,-0.882 -0.811,-1.343 -0.081,-1.769c0.265,-0.155 0.546,-0.215 0.814,-0.205Zm-66.568,0.153c0.373,-0.053 0.74,0.09 0.95,0.411c0.28,0.427 0.154,0.992 -0.299,1.256c-0.452,0.264 -1.05,0.146 -1.33,-0.282c-0.28,-0.428 -0.154,-0.992 0.298,-1.256c0.114,-0.066 0.257,-0.111 0.381,-0.129Zm-5.593,0.539c0.314,-0.041 0.591,-0.003 0.76,0.128c1.38,1.073 0.297,2.397 -3.774,4.665c-1.975,1.101 -3.112,1.338 -3.502,0.744c-0.79,-1.208 4.317,-5.249 6.516,-5.537Zm-23.946,0.282c0.373,-0.054 0.74,0.089 0.95,0.41c0.28,0.427 0.154,0.992 -0.299,1.256c-0.452,0.265 -1.05,0.145 -1.329,-0.282c-0.28,-0.427 -0.154,-0.991 0.298,-1.256c0.113,-0.066 0.256,-0.11 0.38,-0.128Zm17.375,-0c0.373,-0.054 0.74,0.089 0.95,0.41c0.28,0.427 0.154,0.992 -0.298,1.256c-0.453,0.265 -1.051,0.145 -1.33,-0.282c-0.28,-0.427 -0.154,-0.991 0.299,-1.256c0.112,-0.066 0.255,-0.11 0.379,-0.128Zm-6.108,0.615c1.184,0.008 2.395,0.757 1.9,1.512c-0.679,1.038 -2.785,1.064 -3.448,0.052c-0.274,-0.42 -0.073,-1.011 0.435,-1.308c0.321,-0.187 0.719,-0.259 1.113,-0.256Zm82.564,1.025c0.372,-0.053 0.74,0.09 0.949,0.411c0.28,0.427 0.154,0.991 -0.298,1.255c-0.453,0.265 -1.051,0.146 -1.33,-0.282c-0.28,-0.426 -0.154,-0.991 0.299,-1.255c0.113,-0.066 0.255,-0.11 0.38,-0.129Zm-85.139,1.641c0.373,-0.054 0.741,0.09 0.951,0.41c0.279,0.427 0.153,0.992 -0.299,1.256c-0.453,0.264 -1.051,0.146 -1.33,-0.282c-0.28,-0.427 -0.154,-0.992 0.298,-1.256c0.113,-0.066 0.256,-0.11 0.38,-0.128Zm5.213,0.821c0.372,-0.055 0.74,0.089 0.95,0.409c0.28,0.428 0.154,0.993 -0.299,1.257c-0.452,0.264 -1.05,0.145 -1.33,-0.283c-0.279,-0.427 -0.154,-0.991 0.299,-1.255c0.113,-0.067 0.256,-0.111 0.38,-0.128Zm84.267,-0c0.372,-0.055 0.741,0.089 0.95,0.409c0.28,0.428 0.154,0.993 -0.298,1.257c-0.453,0.264 -1.051,0.145 -1.331,-0.283c-0.28,-0.427 -0.154,-0.991 0.299,-1.255c0.113,-0.067 0.256,-0.111 0.38,-0.128Zm-19.113,1.64c0.373,-0.054 0.74,0.089 0.951,0.41c0.279,0.427 0.153,0.991 -0.299,1.256c-0.453,0.264 -1.051,0.145 -1.33,-0.282c-0.28,-0.427 -0.155,-0.992 0.298,-1.256c0.113,-0.066 0.256,-0.11 0.38,-0.128Zm15.637,0.82c0.373,-0.054 0.741,0.09 0.951,0.41c0.28,0.428 0.154,0.992 -0.299,1.256c-0.453,0.264 -1.05,0.145 -1.33,-0.282c-0.28,-0.427 -0.154,-0.992 0.299,-1.256c0.113,-0.066 0.256,-0.11 0.379,-0.128Zm-48.652,5.742c0.373,-0.054 0.741,0.089 0.95,0.41c0.28,0.427 0.154,0.992 -0.298,1.256c-0.453,0.264 -1.051,0.145 -1.33,-0.282c-0.28,-0.427 -0.154,-0.992 0.299,-1.256c0.113,-0.066 0.255,-0.11 0.379,-0.128Zm-0.866,54.956c0.372,-0.053 0.741,0.09 0.95,0.41c0.28,0.428 0.154,0.992 -0.298,1.256c-0.453,0.264 -1.052,0.146 -1.331,-0.282c-0.28,-0.427 -0.154,-0.992 0.299,-1.256c0.113,-0.066 0.255,-0.11 0.38,-0.128Zm23.457,10.663c0.372,-0.054 0.74,0.089 0.95,0.41c0.279,0.427 0.154,0.992 -0.299,1.256c-0.452,0.265 -1.05,0.146 -1.33,-0.282c-0.28,-0.427 -0.154,-0.991 0.299,-1.256c0.113,-0.066 0.256,-0.11 0.38,-0.128Zm-7.818,0.82c0.371,-0.053 0.74,0.09 0.949,0.41c0.28,0.428 0.155,0.993 -0.298,1.257c-0.452,0.264 -1.051,0.144 -1.331,-0.282c-0.279,-0.428 -0.154,-0.992 0.299,-1.256c0.113,-0.067 0.256,-0.111 0.381,-0.129Zm3.094,3.23c0.45,-0.015 1.06,0.013 1.847,0.051c4.004,0.195 4.776,0.735 3.855,2.718c-0.376,0.808 -0.719,1.797 -0.761,2.204c-0.148,1.463 -4.041,1.353 -4.533,-0.128c-0.263,-0.789 -0.787,-2.234 -1.195,-3.204c-0.515,-1.229 -0.56,-1.596 0.787,-1.641Zm-36.79,-166.28c0.262,-0.003 0.515,0.078 0.732,0.282c0.637,0.602 0.502,1.243 -0.461,2.153c-0.979,0.925 -1.575,1.048 -2.009,0.385c-0.726,-1.108 0.598,-2.807 1.738,-2.82Zm-5.381,4.742c0.372,-0.053 0.741,0.09 0.95,0.411c0.28,0.427 0.154,0.991 -0.298,1.255c-0.453,0.264 -1.051,0.146 -1.331,-0.281c-0.28,-0.428 -0.154,-0.993 0.299,-1.257c0.113,-0.065 0.256,-0.11 0.38,-0.128Zm-3.473,0.821c0.372,-0.054 0.74,0.089 0.95,0.41c0.279,0.427 0.154,0.992 -0.299,1.256c-0.452,0.264 -1.05,0.145 -1.33,-0.282c-0.28,-0.427 -0.154,-0.992 0.299,-1.256c0.113,-0.066 0.256,-0.11 0.38,-0.128Zm-5.403,0.179c0.45,-0.089 0.438,0.693 0.136,2.922c-0.541,4 -0.615,4.162 -1.412,3.409c-1.041,-0.983 -0.603,-4.989 0.652,-5.972c0.258,-0.203 0.474,-0.329 0.624,-0.359Zm-24.713,11.817c0.671,-0.065 1.189,0.245 0.923,0.999c-0.199,0.564 -0.997,1.137 -1.792,1.282c-1.008,0.185 -1.288,-0.126 -0.923,-1.025c0.308,-0.758 1.12,-1.191 1.792,-1.256Zm24.516,3.537c0.186,-0.009 0.392,0.013 0.624,0.026c2.421,0.131 2.882,2.951 0.76,4.613c-1.933,1.515 -1.702,2.008 3.041,6.486c4.183,3.949 5.917,6.403 2.878,4.075c-0.837,-0.641 -1.219,-0.706 -0.869,-0.154l0.027,0c0.339,0.533 0.117,1.235 -0.489,1.564c-0.605,0.329 -0.827,0.304 -0.488,-0.051c1.068,-1.118 -1.858,-5.319 -4.072,-5.845c-3.342,-0.792 -4.082,-2.2 -3.449,-6.715c0.45,-3.195 0.735,-3.936 2.037,-3.999Zm7.324,9.074c0.373,-0.054 0.741,0.09 0.951,0.411c0.279,0.426 0.153,0.991 -0.299,1.256c-0.453,0.264 -1.051,0.145 -1.33,-0.283c-0.28,-0.427 -0.154,-0.991 0.298,-1.255c0.113,-0.066 0.256,-0.111 0.38,-0.129Zm-7.823,3.333c0.268,-0.008 0.553,0.086 0.841,0.358c0.681,0.643 0.681,1.153 -0,1.794c-0.68,0.643 -1.1,0.643 -1.52,0c-0.678,-1.035 -0.125,-2.128 0.679,-2.152Zm-60.817,0.769c0.373,-0.054 0.741,0.089 0.951,0.41c0.279,0.427 0.153,0.992 -0.299,1.256c-0.453,0.264 -1.05,0.145 -1.33,-0.283c-0.28,-0.426 -0.154,-0.991 0.298,-1.255c0.113,-0.066 0.257,-0.11 0.38,-0.128Zm58.204,1.64c0.372,-0.054 0.74,0.09 0.949,0.41c0.28,0.427 0.154,0.992 -0.298,1.256c-0.453,0.264 -1.051,0.146 -1.33,-0.282c-0.28,-0.427 -0.154,-0.992 0.298,-1.256c0.114,-0.066 0.256,-0.11 0.381,-0.128Zm-58.208,1.64c0.372,-0.053 0.74,0.09 0.95,0.41c0.28,0.428 0.154,0.993 -0.298,1.257c-0.453,0.264 -1.051,0.145 -1.331,-0.282c-0.28,-0.428 -0.154,-0.992 0.299,-1.256c0.113,-0.067 0.255,-0.111 0.38,-0.129Zm63.42,0c0.373,-0.053 0.741,0.09 0.95,0.41c0.28,0.428 0.154,0.993 -0.298,1.257c-0.453,0.264 -1.051,0.145 -1.331,-0.282c-0.279,-0.428 -0.153,-0.992 0.299,-1.256c0.114,-0.067 0.256,-0.111 0.38,-0.129Zm-7.09,2.128c0.413,-0 0.144,1.107 -0.597,2.461c-1.203,2.195 -2.172,3.14 -2.172,2.101c0,-1.064 2.121,-4.562 2.769,-4.562Zm14.905,0.333c0.372,-0.053 0.741,0.09 0.95,0.41c0.28,0.428 0.154,0.992 -0.298,1.256c-0.453,0.264 -1.051,0.146 -1.331,-0.282c-0.28,-0.427 -0.154,-0.992 0.299,-1.256c0.113,-0.065 0.256,-0.11 0.38,-0.128Zm-47.782,0.821c0.373,-0.054 0.74,0.089 0.95,0.41c0.28,0.427 0.154,0.992 -0.298,1.256c-0.453,0.264 -1.051,0.145 -1.33,-0.282c-0.28,-0.427 -0.155,-0.992 0.298,-1.256c0.113,-0.066 0.256,-0.11 0.38,-0.128Zm47.429,3.076c0.676,0.013 0.839,0.666 1.059,2.127c0.202,1.343 -0.21,2.775 -1.032,3.537c-1.563,1.452 -3.447,1.184 -3.447,-0.487c-0,-1.67 -1.637,-2.3 -3.069,-1.179c-0.695,0.545 -1.276,0.651 -1.276,0.231c0,-1.158 2.548,-4.096 2.579,-2.973c0.021,0.708 0.683,0.648 2.417,-0.205c1.412,-0.696 2.243,-1.062 2.769,-1.051Zm-96.597,0.179c0.619,0.037 1.331,0.787 1.873,2.256c0.758,2.053 0.742,2.797 -0.108,3.306c-2.353,1.41 -3.658,-0.038 -3.123,-3.486c0.221,-1.423 0.739,-2.113 1.358,-2.076Zm-15.991,0.846c0.373,-0.054 0.741,0.089 0.951,0.41c0.279,0.427 0.153,0.992 -0.299,1.256c-0.453,0.264 -1.05,0.145 -1.33,-0.282c-0.28,-0.427 -0.155,-0.992 0.298,-1.256c0.113,-0.066 0.256,-0.11 0.38,-0.128Zm131.43,3.178c0.329,-0.027 0.579,0.276 0.841,0.923c0.319,0.783 0.146,1.837 -0.379,2.333c-0.696,0.656 -1.101,0.496 -1.521,-0.538c-0.318,-0.783 -0.146,-1.811 0.38,-2.307c0.261,-0.246 0.481,-0.394 0.679,-0.411Zm-131.432,0.103c0.373,-0.054 0.74,0.089 0.95,0.41c0.28,0.427 0.154,0.992 -0.298,1.256c-0.453,0.264 -1.051,0.146 -1.331,-0.282c-0.28,-0.427 -0.154,-0.992 0.298,-1.256c0.114,-0.066 0.257,-0.11 0.381,-0.128Zm44.307,0.82c0.373,-0.054 0.741,0.089 0.951,0.41c0.279,0.428 0.154,0.992 -0.299,1.257c-0.453,0.264 -1.05,0.145 -1.33,-0.283c-0.28,-0.427 -0.155,-0.991 0.298,-1.255c0.113,-0.067 0.256,-0.111 0.38,-0.129Zm57.341,1.64c0.373,-0.053 0.741,0.09 0.951,0.411c0.279,0.427 0.153,0.991 -0.299,1.256c-0.453,0.264 -1.05,0.145 -1.33,-0.283c-0.28,-0.426 -0.155,-0.991 0.298,-1.255c0.113,-0.066 0.256,-0.11 0.38,-0.129Zm-100.773,0.821c0.372,-0.054 0.74,0.09 0.95,0.41c0.279,0.428 0.154,0.992 -0.299,1.256c-0.452,0.264 -1.051,0.145 -1.33,-0.282c-0.28,-0.427 -0.154,-0.992 0.299,-1.256c0.113,-0.066 0.255,-0.11 0.38,-0.128Zm47.427,1.41l2.851,0.769c1.571,0.425 3.005,1.231 3.203,1.794c0.199,0.563 2.465,2.986 5.023,5.383c2.559,2.396 4.483,4.636 4.262,4.973c-0.584,0.893 4.513,5.231 5.484,4.665c1.216,-0.71 2.114,1.08 1.114,2.229c-0.473,0.545 -1.002,1.907 -1.168,3c-0.165,1.092 -0.689,2.075 -1.167,2.204c-1.189,0.321 -8.21,-7.161 -8.226,-8.766c-0.008,-0.711 -1.005,-2.171 -2.2,-3.23c-1.194,-1.059 -2.171,-2.542 -2.171,-3.306c-0,-0.765 -1.573,-3.275 -3.502,-5.563l-3.503,-4.152Zm-48.298,1.871c0.372,-0.054 0.74,0.089 0.95,0.41c0.279,0.427 0.154,0.992 -0.299,1.256c-0.452,0.264 -1.051,0.145 -1.33,-0.282c-0.28,-0.427 -0.154,-0.992 0.299,-1.256c0.113,-0.066 0.255,-0.11 0.38,-0.128Zm74.713,0.82c0.373,-0.054 0.741,0.09 0.951,0.41c0.28,0.428 0.154,0.992 -0.299,1.256c-0.453,0.265 -1.05,0.145 -1.33,-0.281c-0.28,-0.428 -0.154,-0.992 0.299,-1.257c0.113,-0.066 0.256,-0.11 0.379,-0.128Zm-26.056,2.461c0.373,-0.054 0.74,0.09 0.95,0.41c0.28,0.428 0.154,0.992 -0.299,1.256c-0.452,0.264 -1.05,0.145 -1.33,-0.282c-0.279,-0.427 -0.153,-0.992 0.299,-1.256c0.113,-0.066 0.256,-0.11 0.38,-0.128Zm69.501,-0c0.373,-0.054 0.741,0.09 0.951,0.41c0.279,0.428 0.153,0.992 -0.299,1.256c-0.453,0.264 -1.05,0.145 -1.33,-0.282c-0.28,-0.427 -0.154,-0.992 0.299,-1.256c0.112,-0.066 0.256,-0.11 0.379,-0.128Zm-0.653,4.05c0.993,-0 1.201,0.519 0.787,2.102c-0.873,3.343 -1.861,3.688 -1.981,0.666c-0.079,-1.979 0.242,-2.768 1.194,-2.768Zm-65.375,0.051c0.372,-0.054 0.741,0.09 0.95,0.41c0.28,0.428 0.154,0.992 -0.298,1.256c-0.453,0.264 -1.051,0.145 -1.331,-0.282c-0.28,-0.427 -0.154,-0.992 0.299,-1.256c0.113,-0.066 0.256,-0.11 0.38,-0.128Zm56.416,0.769c1.732,0.037 2.004,0.261 1.14,0.718c-0.85,0.449 -2.636,0.609 -3.963,0.358c-2.764,-0.521 -5.683,1.078 -5.077,2.795c0.274,0.777 1.456,1.072 3.61,0.897c1.9,-0.155 3.177,0.106 3.177,0.64c-0,0.539 -0.82,0.706 -2.063,0.41c-3.086,-0.73 -3.838,1.201 -1.276,3.282c1.408,1.144 2.119,2.572 2.09,4.178c-0.058,3.293 -1.572,3.09 -2.307,-0.308c-1.326,-6.119 -4.101,-4.716 -3.042,1.538c0.303,1.788 0.429,3.256 0.299,3.256c-0.762,-0 -2.348,-3.494 -1.9,-4.179c0.296,-0.452 0.092,-1.297 -0.434,-1.897c-1.046,-1.188 0.298,-9.216 1.792,-10.714c0.436,-0.438 3.023,-0.871 5.728,-0.949c0.916,-0.026 1.649,-0.037 2.226,-0.025Zm13.081,1.691c0.373,-0.053 0.74,0.09 0.95,0.411c0.28,0.427 0.154,0.992 -0.299,1.256c-0.452,0.264 -1.05,0.146 -1.329,-0.282c-0.28,-0.428 -0.155,-0.992 0.298,-1.256c0.113,-0.066 0.256,-0.111 0.38,-0.129Zm-6.93,-81.205c0.372,-0.053 0.741,0.09 0.95,0.41c0.28,0.428 0.154,0.992 -0.298,1.257c-0.453,0.264 -1.052,0.145 -1.331,-0.282c-0.28,-0.428 -0.154,-0.992 0.299,-1.256c0.113,-0.067 0.255,-0.111 0.38,-0.129Zm3.476,2.461c0.373,-0.053 0.741,0.09 0.951,0.411c0.279,0.427 0.153,0.991 -0.299,1.255c-0.453,0.264 -1.051,0.146 -1.33,-0.282c-0.28,-0.427 -0.154,-0.992 0.299,-1.256c0.113,-0.065 0.255,-0.11 0.379,-0.128Zm2.608,10.664c0.373,-0.054 0.74,0.089 0.95,0.41c0.28,0.427 0.154,0.992 -0.298,1.256c-0.453,0.264 -1.051,0.146 -1.33,-0.282c-0.28,-0.427 -0.154,-0.992 0.299,-1.256c0.112,-0.066 0.255,-0.11 0.379,-0.128Zm-24.346,66.438c-0.528,0.476 -1.158,1.416 -1.632,2.489c-0.685,1.548 -1.693,3.072 -2.226,3.383c-0.576,0.336 -0.75,1.588 -0.435,3.076c0.292,1.379 0.265,2.25 -0.054,1.948c-0.319,-0.301 -1.036,-0.187 -1.602,0.256c-0.566,0.444 -1.328,0.54 -1.683,0.206c-0.355,-0.335 -2.041,-0.616 -3.774,-0.616c-2.714,0 -3.476,-0.471 -5.511,-3.332c-1.3,-1.826 -2.508,-4.41 -2.661,-5.742c-0.231,-2.014 0.082,-2.463 1.792,-2.691c1.133,-0.152 2.258,-0.979 2.498,-1.846c0.239,-0.864 1.008,-1.563 1.71,-1.563c0.702,-0 3.393,-1.992 6,-4.435l4.751,-4.434l2.199,1.795l2.227,1.794l-2.417,2.255c-2.377,2.244 -2.378,2.283 -0.515,2.743c1.037,0.256 1.658,0.811 1.384,1.23c-0.031,0.047 -0.047,1.299 -0.051,3.484Zm23.151,-99.226l-1.303,1.36l-2.035,2.128l2.199,5.152c2.286,5.344 2.217,5.684 -1.521,7.177c-2.242,0.896 -2.283,0.869 -2.09,-2.358c0.157,-2.638 -0.204,-3.495 -1.847,-4.512c-1.618,-1.001 -1.853,-1.583 -1.167,-2.794c0.674,-1.188 0.506,-1.716 -0.814,-2.383c-2.665,-1.347 -5.135,-0.99 -6.19,0.871c-0.533,0.941 -1.202,1.506 -1.467,1.256c-0.264,-0.25 0.16,-1.36 0.923,-2.461c1.079,-1.554 1.148,-2.176 0.327,-2.82c-1.232,-0.963 -9.313,4.216 -9.313,5.973c0,2.032 3.884,3.613 7.901,3.204l3.828,-0.384l-2.743,1.204c-1.516,0.663 -3.41,2.132 -4.208,3.282c-1.398,2.015 -1.372,2.226 1.141,5.742c2.485,3.476 2.531,3.664 0.869,4.075c-1.976,0.488 -1.346,2.178 0.815,2.178c1.185,0 1.138,0.199 -0.272,1.18c-1.572,1.092 -1.58,1.198 -0.163,1.717c2.052,0.751 1.916,1.794 -0.652,4.973c-1.194,1.478 -2.188,3.174 -2.199,3.768c-0.011,0.594 -1.759,2.795 -3.882,4.895c-3.049,3.017 -4.617,3.924 -7.521,4.307c-2.022,0.267 -4.082,0.855 -4.561,1.307c-0.478,0.452 -1.568,0.821 -2.443,0.821c-0.875,-0 -1.834,0.559 -2.117,1.255c-0.457,1.124 -0.693,1.115 -2.118,-0.102c-1.517,-1.297 -1.787,-1.209 -4.779,1.615c-2.838,2.68 -3.017,3.164 -1.954,4.588c0.651,0.872 2.313,3.108 3.72,4.973c1.951,2.589 2.628,4.498 2.85,8.048l0.299,4.64l-4.371,3.563c-4.295,3.495 -4.371,3.512 -4.371,1.436c-0,-1.223 -0.732,-2.535 -1.738,-3.128c-0.956,-0.563 -1.738,-1.703 -1.738,-2.511c0,-1.605 -0.878,-2.054 -4.669,-2.41c-2.306,-0.216 -2.599,0.07 -3.774,3.819c-1.107,3.535 -1.091,4.194 0,4.947c0.689,0.476 1.536,1.77 1.901,2.897c0.364,1.126 1.67,2.839 2.904,3.793c1.503,1.162 2.607,3.196 3.313,6.152c0.579,2.43 0.917,4.542 0.76,4.691c-1.608,1.529 -7.384,-6.517 -7.384,-10.278c-0,-0.682 -0.754,-2.14 -1.684,-3.256c-1.403,-1.685 -1.617,-2.948 -1.276,-7.408c0.227,-2.954 0.039,-5.793 -0.407,-6.306c-0.447,-0.512 -1.095,-2.768 -1.439,-5.024c-0.823,-5.388 -1.157,-5.762 -3.149,-3.742c-0.924,0.936 -2.329,1.691 -3.15,1.691c-1.227,0 -1.439,-0.625 -1.194,-3.536c0.228,-2.712 -0.134,-4.01 -1.548,-5.537c-1.015,-1.097 -2.649,-3.227 -3.61,-4.742c-1.63,-2.569 -1.846,-2.666 -3.286,-1.436c-0.849,0.726 -2.786,1.308 -4.317,1.308c-1.853,-0 -2.987,0.478 -3.366,1.435c-0.728,1.839 -10.489,11.113 -13.058,12.406c-1.644,0.828 -1.955,1.652 -1.955,5.255c0,4.849 -1.047,8.892 -3.04,11.765l-1.358,1.974l-3.014,-5.46c-1.657,-3.002 -3.013,-6.134 -3.013,-6.946c0,-0.812 -0.341,-1.678 -0.76,-1.923c-0.419,-0.245 -1.263,-2.181 -1.874,-4.332l-0.399,-1.408c21.205,-37.132 61.18,-62.159 106.999,-62.159c3.896,0 7.749,0.181 11.552,0.535Zm93.481,186.883c-0.19,0.309 -0.38,0.616 -0.572,0.923c-0.493,-0.828 -0.734,-1.496 -0.564,-1.657c0.029,-0.029 0.087,-0.029 0.138,-0.026c0.209,0.014 0.569,0.304 0.998,0.76Zm-70.966,-182.644c1.708,0.49 3.4,1.017 5.076,1.579c-0.102,0.307 -0.241,0.557 -0.418,0.722c-0.358,0.333 -1.237,2.885 -1.954,5.665l-1.303,5.049l-3.475,0c-2.365,0.01 -3.906,0.532 -4.86,1.615c-1.381,1.567 -1.441,1.564 -2.443,-0.205c-0.599,-1.055 -1.803,-1.774 -2.932,-1.743c-1.904,0.051 -1.896,0.052 0.135,0.82c1.742,0.658 1.876,0.992 0.923,2.076c-0.619,0.704 -1.786,1.1 -2.606,0.897c-1.084,-0.267 -1.86,0.505 -2.824,2.82c-1.361,3.274 -2.894,4.095 -3.747,2c-0.266,-0.656 -0.229,-1.601 0.082,-2.076c0.312,-0.476 -0.223,-1.917 -1.194,-3.205c-1.811,-2.4 -1.547,-4.043 0.407,-2.512c0.796,0.624 1.659,0.266 3.203,-1.307c1.391,-1.416 3.392,-2.308 5.81,-2.614c2.873,-0.364 3.844,-0.907 4.48,-2.487c0.635,-1.579 1.066,-1.82 1.982,-1.102c0.882,0.69 1.428,0.62 2.199,-0.256c0.712,-0.811 0.751,-1.318 0.108,-1.693c-0.508,-0.296 -0.696,-0.916 -0.407,-1.358c0.333,-0.509 0.985,-0.462 1.738,0.128c1.032,0.809 1.546,0.202 2.02,-2.813Z" style="fill:#2d8a06;"/><path d="M137.208,21.13c-49.136,-0 -99.699,36.889 -108.797,89.683c-9.102,52.799 13.087,103.387 85.893,113.783c72.806,10.392 127.614,-40.195 128.94,-104.953c1.332,-64.754 -55.06,-98.513 -106.036,-98.513Z" style="fill:#fff;fill-opacity:0.11;fill-rule:nonzero;"/><path d="M143.028,26.38c-42.15,3.836 -76.207,22.569 -82.28,59.384c-6.072,36.81 24.438,81.428 79.751,72.256c55.316,-9.169 68.329,-44.941 67.75,-74.666c-0.579,-29.721 -22.991,-50.212 -65.221,-56.974Z" style="fill:#fff;fill-opacity:0.1;fill-rule:nonzero;"/></g></svg>