<?xml version="1.0" encoding="UTF-8" standalone="no"?><!DOCTYPE svg PUBLIC "-//W3C//DTD SVG 1.1//EN" "http://www.w3.org/Graphics/SVG/1.1/DTD/svg11.dtd"><svg width="100%" height="100%" viewBox="0 0 287 271" version="1.1" xmlns="http://www.w3.org/2000/svg" xmlns:xlink="http://www.w3.org/1999/xlink" xml:space="preserve" xmlns:serif="http://www.serif.com/" style="fill-rule:evenodd;clip-rule:evenodd;stroke-linejoin:round;stroke-miterlimit:2;"><g id="South-America" serif:id="South America"><path d="M140.569,0.671c64.669,0 131.216,48.55 143.19,118.034c11.979,69.49 -17.224,136.069 -113.045,149.752c-95.822,13.677 -167.955,-52.902 -169.702,-138.131c-1.751,-85.223 72.466,-129.655 139.557,-129.655Z" style="fill-opacity:0.11;fill-rule:nonzero;"/><path d="M146.235,6.52c-68.623,0 -124.257,55.631 -124.257,124.262c-0,68.622 55.634,124.245 124.257,124.245c68.623,-0 124.253,-55.623 124.253,-124.245c0,-68.631 -55.63,-124.262 -124.253,-124.262" style="fill:#23c3e5;fill-rule:nonzero;"/><path d="M107.56,172.44c-0.125,0.018 -0.27,0.063 -0.383,0.129c-0.457,0.267 -0.584,0.837 -0.302,1.268c0.283,0.431 0.886,0.551 1.343,0.285c0.457,-0.267 0.584,-0.836 0.301,-1.268c-0.212,-0.323 -0.583,-0.469 -0.959,-0.414Zm9.648,22.401c-0.811,0.024 -1.369,1.128 -0.685,2.172c0.424,0.648 0.848,0.648 1.534,0c0.686,-0.647 0.686,-1.162 -0,-1.81c-0.291,-0.275 -0.579,-0.37 -0.849,-0.362Zm-1.751,15.675c-0.125,0.018 -0.269,0.063 -0.383,0.13c-0.457,0.266 -0.584,0.836 -0.301,1.267c0.282,0.432 0.885,0.551 1.342,0.285c0.456,-0.267 0.583,-0.837 0.302,-1.267c-0.212,-0.325 -0.584,-0.469 -0.96,-0.415Zm0,4.139c-0.125,0.018 -0.269,0.063 -0.383,0.129c-0.457,0.267 -0.584,0.836 -0.301,1.268c0.282,0.431 0.885,0.551 1.342,0.284c0.456,-0.266 0.583,-0.836 0.302,-1.267c-0.212,-0.323 -0.584,-0.469 -0.96,-0.414Zm0,4.139c-0.125,0.018 -0.269,0.063 -0.383,0.129c-0.457,0.266 -0.584,0.837 -0.301,1.267c0.282,0.432 0.885,0.552 1.342,0.285c0.456,-0.266 0.583,-0.836 0.302,-1.267c-0.212,-0.324 -0.584,-0.468 -0.96,-0.414Zm35.946,1.655c-0.126,0.019 -0.27,0.063 -0.384,0.13c-0.457,0.266 -0.613,0.797 -0.356,1.19c0.256,0.392 0.059,0.951 -0.439,1.241c-0.497,0.291 -0.665,0.888 -0.383,1.32c0.282,0.43 0.886,0.551 1.343,0.284c0.456,-0.267 0.612,-0.798 0.356,-1.19c-0.257,-0.392 -0.06,-0.951 0.438,-1.241c0.498,-0.291 0.666,-0.889 0.383,-1.32c-0.211,-0.323 -0.582,-0.468 -0.958,-0.414Zm-3.864,0.673c-1.004,0.068 -1.95,1.264 -1.287,2.276c0.455,0.695 0.949,0.686 1.89,-0.052c0.884,-0.693 0.99,-1.263 0.357,-1.862c-0.293,-0.277 -0.625,-0.385 -0.96,-0.362Zm-29.04,3.389c-0.279,0.001 -0.544,0.05 -0.768,0.181c-0.806,0.47 -0.661,0.931 0.576,1.785c0.917,0.633 1.572,1.317 1.452,1.525c-0.121,0.208 -0.219,0.6 -0.219,0.854c-0,0.255 0.425,0.217 0.931,-0.078c0.629,-0.366 0.592,-0.908 -0.109,-1.707c-0.565,-0.642 -0.698,-1.164 -0.302,-1.164c0.397,0 0.263,-0.425 -0.274,-0.931c-0.335,-0.316 -0.822,-0.468 -1.287,-0.465Zm9.835,1.552c-0.438,0.1 -0.548,0.824 -0.52,2.12c0.041,1.896 -0.287,2.241 -1.973,2.07c-1.167,-0.119 -1.791,0.144 -1.479,0.621c0.297,0.454 1.679,0.828 3.069,0.828c1.389,-0 2.742,0.335 3.013,0.749c0.545,0.832 2.14,0.765 3.699,-0.155c0.671,-0.396 -0.014,-1.565 -2.056,-3.492c-1.85,-1.747 -2.923,-2.652 -3.534,-2.741c-0.076,-0.012 -0.156,-0.015 -0.219,-0Zm9.919,4.319c-0.126,0.019 -0.27,0.063 -0.384,0.13c-0.457,0.266 -0.584,0.835 -0.302,1.267c0.283,0.431 0.886,0.551 1.343,0.285c0.457,-0.267 0.584,-0.837 0.301,-1.268c-0.212,-0.323 -0.582,-0.468 -0.958,-0.414Zm-9.973,3.182c-0.926,0.035 -1.747,0.757 -1.26,1.5c0.277,0.424 0.862,0.776 1.287,0.776c1.228,0 1.885,-1.497 0.904,-2.069c-0.292,-0.171 -0.623,-0.219 -0.931,-0.207Zm9.978,-224.191c-0.126,0.018 -0.27,0.062 -0.384,0.129c-0.457,0.266 -0.584,0.836 -0.302,1.267c0.283,0.432 0.886,0.551 1.343,0.285c0.457,-0.267 0.584,-0.836 0.301,-1.268c-0.211,-0.323 -0.582,-0.468 -0.958,-0.413Zm0.874,37.249c-0.125,0.018 -0.269,0.063 -0.383,0.129c-0.457,0.266 -0.584,0.836 -0.301,1.267c0.282,0.432 0.885,0.551 1.342,0.285c0.457,-0.266 0.583,-0.836 0.302,-1.267c-0.212,-0.324 -0.584,-0.469 -0.96,-0.414Zm-25.413,-19.038c-0.125,0.017 -0.269,0.062 -0.384,0.129c-0.456,0.267 -0.583,0.836 -0.301,1.267c0.282,0.432 0.886,0.552 1.342,0.285c0.457,-0.266 0.584,-0.836 0.302,-1.268c-0.212,-0.323 -0.583,-0.468 -0.959,-0.413Zm-4.384,-0c-0.125,0.017 -0.269,0.062 -0.383,0.129c-0.457,0.267 -0.584,0.836 -0.302,1.267c0.283,0.432 0.886,0.552 1.343,0.285c0.456,-0.266 0.583,-0.836 0.301,-1.268c-0.211,-0.323 -0.583,-0.468 -0.959,-0.413Zm3.509,-3.312c-0.126,0.019 -0.27,0.063 -0.383,0.13c-0.457,0.266 -0.585,0.836 -0.302,1.267c0.282,0.432 0.886,0.551 1.343,0.285c0.456,-0.267 0.583,-0.836 0.301,-1.268c-0.212,-0.323 -0.583,-0.468 -0.959,-0.414Zm22.459,20.565c-0.925,0.035 -1.746,0.758 -1.26,1.5c0.278,0.424 0.862,0.776 1.288,0.776c1.228,0 1.884,-1.497 0.904,-2.07c-0.292,-0.17 -0.623,-0.218 -0.932,-0.206Zm-40.006,2.613c-0.126,0.017 -0.27,0.062 -0.384,0.129c-0.457,0.266 -0.584,0.836 -0.301,1.267c0.282,0.432 0.885,0.551 1.342,0.285c0.457,-0.267 0.584,-0.837 0.301,-1.267c-0.211,-0.324 -0.582,-0.469 -0.958,-0.414Zm18.422,-14.9c-0.128,0.015 -0.269,0.063 -0.384,0.13c-0.456,0.266 -0.583,0.835 -0.301,1.267c0.282,0.431 0.845,0.579 1.26,0.336c0.416,-0.242 1.008,-0.056 1.315,0.414c0.308,0.471 0.941,0.629 1.397,0.362c0.457,-0.266 0.584,-0.836 0.302,-1.268c-0.283,-0.43 -0.845,-0.578 -1.26,-0.335c-0.416,0.242 -1.008,0.056 -1.316,-0.414c-0.23,-0.353 -0.63,-0.535 -1.013,-0.492Zm-2.662,13.037c-0.398,-0.003 -0.799,0.07 -1.124,0.259c-0.512,0.299 -0.715,0.895 -0.438,1.319c0.67,1.022 2.795,0.995 3.479,-0.052c0.5,-0.763 -0.722,-1.518 -1.917,-1.526Zm12.307,-9.726c-0.125,0.018 -0.269,0.063 -0.383,0.129c-0.457,0.267 -0.583,0.837 -0.301,1.268c0.282,0.431 0.885,0.551 1.342,0.284c0.457,-0.266 0.584,-0.836 0.302,-1.267c-0.212,-0.323 -0.584,-0.468 -0.96,-0.414Zm-3.508,-0.828c-0.125,0.018 -0.269,0.063 -0.384,0.129c-0.457,0.267 -0.583,0.837 -0.301,1.268c0.283,0.431 0.886,0.551 1.343,0.284c0.457,-0.266 0.584,-0.835 0.301,-1.267c-0.212,-0.323 -0.583,-0.468 -0.959,-0.414Zm-8.766,-4.966c-0.126,0.018 -0.27,0.063 -0.384,0.129c-0.457,0.266 -0.584,0.837 -0.301,1.267c0.282,0.432 0.885,0.552 1.342,0.285c0.457,-0.266 0.584,-0.836 0.301,-1.267c-0.212,-0.324 -0.583,-0.468 -0.958,-0.414Zm-1.755,-6.622c-0.125,0.018 -0.269,0.062 -0.383,0.129c-0.457,0.266 -0.584,0.836 -0.302,1.268c0.283,0.431 0.886,0.55 1.343,0.284c0.456,-0.267 0.583,-0.836 0.301,-1.267c-0.211,-0.324 -0.583,-0.468 -0.959,-0.414Zm12.271,14.899c-0.124,0.018 -0.269,0.063 -0.383,0.13c-0.457,0.266 -0.584,0.836 -0.301,1.267c0.282,0.432 0.885,0.551 1.342,0.285c0.457,-0.267 0.584,-0.837 0.302,-1.268c-0.212,-0.324 -0.584,-0.468 -0.96,-0.414Zm-20.079,-4.372c-1.37,-0.002 -2.471,0.366 -3.507,1.087c-1.654,1.151 -1.636,1.19 0.493,1.94c1.205,0.425 2.093,1.03 1.973,1.319c-0.454,1.089 -0.177,1.425 0.712,0.906c0.629,-0.367 0.592,-0.909 -0.109,-1.707c-0.711,-0.808 -0.746,-1.165 -0.083,-1.165c1.435,0 10.607,4.216 10.522,4.838c-0.041,0.295 -0.03,0.822 0.027,1.164c0.181,1.082 5.124,0.667 6.164,-0.518c0.807,-0.917 -0.373,-1.791 -6.137,-4.552c-4.727,-2.265 -7.771,-3.306 -10.055,-3.312Zm13.946,-3.905c-0.125,0.018 -0.27,0.063 -0.384,0.129c-0.457,0.266 -0.583,0.837 -0.301,1.267c0.282,0.432 0.886,0.552 1.342,0.285c0.457,-0.266 0.584,-0.836 0.302,-1.267c-0.212,-0.324 -0.583,-0.468 -0.959,-0.414Zm8.323,13.347c-1.337,-0.031 -2.187,0.157 -1.917,0.569c0.235,0.361 -0.304,0.916 -1.179,1.242c-2.447,0.912 3.051,1.737 6.22,0.931c1.395,-0.355 2.874,-0.448 3.288,-0.207c0.413,0.241 0.739,0.07 0.739,-0.362c0,-0.433 -1.085,-1.08 -2.41,-1.449c-1.595,-0.442 -3.403,-0.693 -4.741,-0.724Zm-40.788,42.94c-0.126,0.018 -0.269,0.063 -0.384,0.129c-0.456,0.267 -0.583,0.837 -0.301,1.268c0.282,0.431 0.886,0.551 1.342,0.284c0.457,-0.266 0.584,-0.836 0.302,-1.267c-0.212,-0.324 -0.583,-0.468 -0.959,-0.414Zm-3.509,4.19c-0.812,0.026 -1.37,1.128 -0.686,2.174c0.424,0.647 0.849,0.647 1.535,-0c0.686,-0.649 0.686,-1.163 -0,-1.812c-0.292,-0.274 -0.579,-0.37 -0.849,-0.362Zm3.508,-0.052c-0.125,0.019 -0.269,0.063 -0.384,0.13c-0.456,0.267 -0.583,0.836 -0.301,1.268c0.282,0.43 0.886,0.551 1.342,0.284c0.457,-0.267 0.584,-0.836 0.302,-1.268c-0.212,-0.323 -0.583,-0.468 -0.959,-0.414Zm3.505,0.828c-0.125,0.019 -0.269,0.063 -0.383,0.13c-0.457,0.266 -0.584,0.836 -0.302,1.268c0.282,0.43 0.886,0.55 1.343,0.284c0.456,-0.267 0.583,-0.836 0.301,-1.268c-0.212,-0.323 -0.583,-0.468 -0.959,-0.414Zm59.636,-39.732c-0.126,0.018 -0.269,0.063 -0.384,0.129c-0.456,0.267 -0.583,0.837 -0.302,1.268c0.283,0.431 0.887,0.551 1.343,0.284c0.457,-0.266 0.584,-0.835 0.301,-1.267c-0.211,-0.323 -0.582,-0.468 -0.958,-0.414Zm83.287,-0.828c-0.125,0.019 -0.269,0.063 -0.384,0.13c-0.457,0.266 -0.583,0.836 -0.301,1.268c0.282,0.43 0.886,0.55 1.342,0.284c0.457,-0.267 0.584,-0.836 0.302,-1.268c-0.212,-0.323 -0.583,-0.468 -0.959,-0.414Zm-105.909,13.038c-0.036,0.008 -0.051,0.023 -0.082,0.052c-0.241,0.227 -0.202,1.042 0.109,1.81c0.313,0.768 0.773,1.211 1.014,0.983c0.241,-0.228 0.176,-1.043 -0.137,-1.811c-0.273,-0.671 -0.651,-1.092 -0.904,-1.034Zm11.215,-3.932c-0.125,0.018 -0.269,0.063 -0.383,0.129c-0.457,0.267 -0.584,0.836 -0.302,1.268c0.283,0.431 0.886,0.551 1.343,0.284c0.457,-0.266 0.584,-0.836 0.301,-1.267c-0.211,-0.323 -0.583,-0.469 -0.959,-0.414Zm7.898,-12.416c-0.124,0.017 -0.269,0.062 -0.383,0.129c-0.457,0.266 -0.584,0.836 -0.301,1.267c0.282,0.432 0.885,0.551 1.342,0.285c0.457,-0.267 0.583,-0.837 0.302,-1.267c-0.212,-0.324 -0.584,-0.469 -0.96,-0.414Zm83.287,6.622c-0.125,0.018 -0.269,0.063 -0.384,0.129c-0.456,0.266 -0.583,0.836 -0.301,1.267c0.282,0.432 0.886,0.551 1.342,0.285c0.457,-0.266 0.584,-0.837 0.302,-1.267c-0.212,-0.324 -0.583,-0.469 -0.959,-0.414Zm-75.4,4.138c-0.126,0.019 -0.269,0.063 -0.383,0.13c-0.457,0.266 -0.584,0.836 -0.302,1.267c0.282,0.431 0.886,0.551 1.343,0.285c0.456,-0.267 0.583,-0.836 0.301,-1.268c-0.211,-0.323 -0.583,-0.468 -0.959,-0.414Zm-3.502,-3.31c-0.125,0.017 -0.269,0.062 -0.383,0.129c-0.457,0.266 -0.614,0.797 -0.357,1.19c0.257,0.392 0.06,0.95 -0.438,1.241c-0.497,0.29 -0.665,0.888 -0.384,1.319c0.283,0.431 0.886,0.551 1.343,0.285c0.457,-0.267 0.613,-0.797 0.356,-1.19c-0.257,-0.392 -0.06,-0.951 0.438,-1.241c0.499,-0.291 0.667,-0.889 0.384,-1.319c-0.211,-0.324 -0.583,-0.469 -0.959,-0.414Zm-0.878,-6.623c-0.125,0.018 -0.269,0.063 -0.384,0.13c-0.456,0.266 -0.583,0.836 -0.3,1.267c0.282,0.431 0.885,0.551 1.342,0.285c0.457,-0.267 0.584,-0.837 0.301,-1.268c-0.212,-0.324 -0.583,-0.468 -0.959,-0.414Zm83.286,5.795c-0.124,0.018 -0.269,0.063 -0.383,0.129c-0.457,0.266 -0.584,0.836 -0.301,1.267c0.282,0.432 0.885,0.551 1.342,0.285c0.457,-0.266 0.584,-0.837 0.302,-1.267c-0.212,-0.324 -0.584,-0.469 -0.96,-0.414Zm-98.199,4.966c-0.125,0.018 -0.27,0.063 -0.384,0.129c-0.457,0.267 -0.584,0.837 -0.301,1.268c0.282,0.431 0.885,0.551 1.342,0.284c0.457,-0.266 0.584,-0.835 0.302,-1.267c-0.212,-0.323 -0.583,-0.468 -0.959,-0.414Zm92.942,-9.106c-0.126,0.019 -0.27,0.063 -0.384,0.13c-0.457,0.267 -0.584,0.836 -0.301,1.268c0.282,0.43 0.885,0.55 1.342,0.284c0.457,-0.267 0.584,-0.836 0.302,-1.268c-0.212,-0.323 -0.583,-0.468 -0.959,-0.414Zm-76.292,13.245c-0.125,0.018 -0.27,0.063 -0.384,0.13c-0.457,0.266 -0.583,0.836 -0.301,1.267c0.282,0.431 0.885,0.551 1.342,0.284c0.457,-0.266 0.584,-0.836 0.302,-1.267c-0.212,-0.324 -0.584,-0.468 -0.959,-0.414Zm-2.624,-2.483c-0.125,0.018 -0.269,0.063 -0.384,0.129c-0.456,0.267 -0.583,0.836 -0.3,1.267c0.282,0.432 0.885,0.552 1.342,0.285c0.457,-0.266 0.584,-0.836 0.301,-1.267c-0.212,-0.324 -0.583,-0.469 -0.959,-0.414Zm-77.145,-25.365c-4.011,3.226 -7.817,6.696 -11.397,10.388c1.693,0.936 3.842,2.004 6.522,3.258c6.061,2.836 7.618,3.274 8.959,2.483c1.326,-0.782 2.19,-0.582 4.795,1.087c4.129,2.645 9.745,5.328 11.123,5.328c2.17,0 6,4.393 6,6.881c0,2.047 0.198,2.277 1.288,1.422c1.062,-0.832 1.462,-0.667 2.246,0.958c0.6,1.244 1.807,2.036 3.233,2.147c1.247,0.097 2.71,0.525 3.26,0.957c0.671,0.525 1.351,0.263 2.055,-0.802c2.35,-3.553 6.325,1.759 6.192,8.278c-0.059,2.908 -0.687,4.443 -2.959,7.062c-1.593,1.836 -3.382,5.132 -3.972,7.346c-0.97,3.635 -0.932,4.11 0.493,4.863c1.491,0.787 1.468,0.908 -0.274,2.172l-1.836,1.346l2.905,6.208c1.6,3.414 3.864,8.979 5.013,12.364c1.768,5.206 2.606,6.481 5.425,8.278c1.832,1.168 4.756,3.326 6.492,4.811l3.151,2.716l-1.095,14.253c-0.595,7.847 -1.186,16.327 -1.315,18.831c-0.154,2.975 -1.058,6.106 -2.631,9.028c-1.736,3.227 -2.271,5.162 -1.89,6.958c0.29,1.369 0.056,3.721 -0.521,5.226c-0.818,2.137 -0.815,3.142 0.028,4.629c1.288,2.273 0.906,11.017 -0.548,12.391c-0.756,0.714 -1.147,0.598 -1.589,-0.492c-0.466,-1.146 -0.756,-1.235 -1.342,-0.362c-0.947,1.41 -0.977,2.581 -0.055,2.044c1.006,-0.588 5.65,4.252 5.013,5.224c-0.29,0.444 -1.045,0.625 -1.698,0.389c-0.921,-0.334 -1.124,0.447 -0.905,3.518c0.156,2.18 -0.167,4.475 -0.712,5.095c-0.764,0.87 -0.702,1.077 0.274,0.88c1.874,-0.377 6.257,2.652 5.726,3.958c-0.821,2.021 0.923,1.161 1.946,-0.957c0.549,-1.139 1.398,-2.07 1.89,-2.07c0.492,-0 0.904,-0.872 0.904,-1.94c0,-1.068 0.786,-2.614 1.753,-3.44c0.968,-0.827 1.576,-1.694 1.342,-1.915c-0.232,-0.219 0.805,-1.701 2.302,-3.31c2.648,-2.847 2.666,-2.945 0.877,-3.57c-3.537,-1.235 -3.195,-7.346 0.411,-7.346c0.765,-0 1.205,-0.938 1.205,-2.561c0,-1.874 0.483,-2.68 1.781,-3.001c1.502,-0.371 1.573,-0.58 0.493,-1.371c-0.7,-0.513 -1.407,-1.676 -1.561,-2.586c-0.226,-1.335 0.207,-1.656 2.246,-1.656c2.433,-0 3.392,-0.858 4.384,-3.906c0.32,-0.983 1.843,-1.575 4.959,-1.966c7.165,-0.897 8.871,-3.889 4.822,-8.432c-2.635,-2.956 -2.08,-3.816 1.287,-1.992c2.31,1.251 2.722,1.241 5.534,-0.026c3.05,-1.373 5.23,-4.218 9.864,-12.933c1.875,-3.527 2.167,-4.803 1.452,-6.285c-0.494,-1.024 -0.629,-2.269 -0.302,-2.769c0.651,-0.993 6.885,-5.147 7.727,-5.147c0.287,-0 0.971,-0.549 1.507,-1.216c0.535,-0.667 2.533,-1.35 4.438,-1.526c3.332,-0.307 3.535,-0.52 5.863,-5.613c1.974,-4.319 2.439,-6.545 2.466,-12.08c0.023,-4.77 0.379,-6.984 1.205,-7.45c0.648,-0.364 2.62,-2.68 4.384,-5.121c4.23,-5.856 4.458,-10.211 0.63,-12.08c-1.417,-0.692 -3.094,-1.944 -3.726,-2.794c-0.845,-1.138 -2.566,-1.645 -6.521,-1.914c-4.611,-0.314 -5.789,-0.758 -8.191,-3.026c-3.386,-3.198 -4.917,-3.299 -7.233,-0.518c-1.247,1.497 -2.449,2.041 -4.082,1.862c-2.785,-0.304 -2.749,-1.728 0.054,-2.353c1.112,-0.248 2.144,-1.086 2.302,-1.863c0.427,-2.092 -1.147,-1.738 -4.493,1.035c-1.635,1.356 -3.216,2.241 -3.507,1.966c-0.923,-0.872 4.682,-7.811 5.808,-7.191c0.573,0.315 0.252,-0.283 -0.712,-1.319c-0.964,-1.037 -1.661,-2.112 -1.562,-2.406c1.031,-3.044 -4.677,-7.579 -9.534,-7.579c-2.415,0 -3.792,-0.678 -6.301,-3.104c-1.766,-1.707 -4.175,-3.985 -5.37,-5.07c-1.196,-1.085 -1.92,-2.357 -1.617,-2.819c0.363,-0.554 -0.986,-0.652 -3.918,-0.285c-2.797,0.35 -4.655,0.236 -5.013,-0.31c-0.314,-0.479 -1.023,-0.81 -1.589,-0.725c-1.749,0.263 -5.86,-1.654 -5.918,-2.767c-0.031,-0.58 -0.413,-0.223 -0.85,0.801c-0.436,1.025 -1.163,1.863 -1.616,1.863c-0.453,-0 -0.621,0.693 -0.383,1.552c0.623,2.253 -1.222,2.956 -2.384,0.905c-0.771,-1.359 -0.658,-2.172 0.438,-3.75c1.803,-2.598 0.474,-2.597 -2.11,-0c-1.099,1.105 -2.539,1.793 -3.205,1.552c-1.112,-0.404 -1.522,0.248 -3.48,5.458c-0.334,0.891 -0.942,0.694 -2.629,-0.803c-1.981,-1.755 -2.508,-1.858 -5.672,-1.06c-3.338,0.841 -3.614,0.776 -5.781,-1.655c-2.084,-2.339 -2.234,-2.972 -1.726,-7.657c0.549,-5.05 0.535,-5.127 -1.863,-5.769c-1.333,-0.357 -3.819,-0.663 -5.506,-0.698c-2.874,-0.061 -3.034,-0.245 -2.767,-2.561c0.156,-1.36 0.578,-2.85 0.958,-3.311c0.381,-0.461 0.948,-2.411 1.26,-4.345c0.504,-3.118 0.39,-3.518 -1.122,-3.518c-3.854,-0 -6.098,1.507 -6.385,4.294c-0.257,2.508 -0.554,2.759 -4.164,3.337c-4.872,0.779 -7.215,-0.503 -9.671,-5.303c-0.663,-1.295 -1.175,-3.148 -1.482,-5.008Zm35.015,-19.815c-1.585,0.582 -3.155,1.195 -4.709,1.839c1.548,1.002 2.71,3.019 3.011,5.524c0.341,2.836 2.382,6.027 3.863,6.027c1.491,-0 1.393,-1.095 -0.657,-7.863c-0.639,-2.11 -1.201,-4.187 -1.508,-5.527Zm138.79,37.768c-1.145,2.598 -1.082,2.918 0.451,4.229c0.924,0.789 1.672,1.824 1.672,2.276c-0,0.451 1.412,2.425 3.123,4.397c1.711,1.972 2.993,4.154 2.849,4.837c-0.419,1.99 2.75,5.771 6.904,8.252c0.252,0.15 0.489,0.291 0.713,0.422c-4.286,-8.767 -9.573,-16.954 -15.712,-24.413Z" style="fill:#2d8a06;"/><path d="M143.047,9.361c-49.137,0 -99.699,36.889 -108.797,89.684c-9.103,52.799 13.087,103.386 85.892,113.783c72.806,10.392 127.614,-40.196 128.941,-104.954c1.331,-64.753 -55.06,-98.513 -106.036,-98.513Z" style="fill:#fff;fill-opacity:0.11;fill-rule:nonzero;"/><path d="M148.867,14.611c-42.151,3.836 -76.208,22.57 -82.28,59.384c-6.072,36.81 24.438,81.429 79.75,72.256c55.317,-9.168 68.329,-44.941 67.751,-74.666c-0.579,-29.721 -22.992,-50.211 -65.221,-56.974Z" style="fill:#fff;fill-opacity:0.1;fill-rule:nonzero;"/></g></svg>